<svg xmlns="http://www.w3.org/2000/svg" xmlns:xlink="http://www.w3.org/1999/xlink" width="1920" height="1080" viewBox="0 0 1920 1080">
  <defs>
    <style>
      .cls-1 {
        fill: #ffe8cc;
      }

      .cls-2 {
        fill: #f4a04d;
      }

      .cls-3 {
        fill: #7f5029;
      }

      .cls-4 {
        fill: #42210b;
      }

      .cls-5 {
        fill: #efd9c2;
      }

      .cls-6 {
        fill: url(#linear-gradient);
      }

      .cls-7 {
        fill: #009245;
      }

      .cls-8 {
        fill: #4d4d4d;
      }

      .cls-9 {
        fill: #fff4e9;
      }

      .cls-10 {
        fill: #666;
      }

      .cls-11 {
        fill: #e5bdc5;
      }

      .cls-12 {
        fill: #f9f9f9;
      }

      .cls-13 {
        fill: #fff;
      }

      .cls-14 {
        fill: #ad7d8e;
      }

      .cls-15 {
        fill: #e6e6e6;
      }

      .cls-16 {
        fill: #cea5b2;
      }

      .cls-17 {
        fill: #e0b1be;
      }

      .cls-18 {
        fill: #fbb03b;
      }

      .cls-19 {
        fill: #bf4b54;
      }

      .cls-20 {
        fill: #f9c98a;
      }

      .cls-21 {
        fill: #f4a54e;
      }

      .cls-22 {
        fill: #f7931e;
      }

      .cls-23 {
        fill: #999;
      }

      .cls-24 {
        fill: gray;
      }

      .cls-25 {
        fill: #515151;
      }
    </style>
    <linearGradient id="linear-gradient" x1="989.04" y1="634.79" x2="989.04" y2="1106.79" gradientUnits="userSpaceOnUse">
      <stop offset="0" stop-color="#c7a47d"/>
      <stop offset="1" stop-color="#b38652"/>
    </linearGradient>
  </defs>
  <g id="info">
    <rect class="cls-1" x="-158.46" y="-83.21" width="2146" height="1223"/>
    <circle class="cls-2" cx="198.54" cy="257.79" r="341"/>
    <rect class="cls-3" x="-25.46" y="291" width="181.38" height="451.72"/>
    <rect class="cls-3" x="1750.81" y="170.22" width="190.18" height="473.65"/>
    <rect class="cls-3" x="99.78" y="329.01" width="198.65" height="451.72"/>
    <polygon class="cls-3" points="1948.75 659 1662.96 683.72 1683.27 214.87 1889.96 189.01 1948.75 659"/>
    <polygon class="cls-3" points="1750.42 755.9 1464.62 780.62 1484.94 311.77 1691.62 285.92 1750.42 755.9"/>
    <polygon class="cls-4" points="476.36 862.78 298.43 780.73 287.58 392.81 479.13 445.47 476.36 862.78"/>
    <polygon class="cls-4" points="1683.27 497.68 1683.27 214.87 1710.98 214.87 1683.27 497.68"/>
    <polygon class="cls-4" points="127.86 561.92 127.86 292.21 154.29 292.21 127.86 561.92"/>
    <polygon class="cls-4" points="1577.84 652.93 1683.27 652.93 1688.81 370.44 1626.89 373.52 1615.74 393.41 1600.71 384.27 1545.22 407.05 1577.84 652.93"/>
    <polygon class="cls-4" points="1508.69 439.66 1508.69 310.61 1527.75 310.61 1508.69 439.66"/>
    <polygon class="cls-4" points="1514.2 652.93 1503.07 652.93 1514.2 480.26 1514.2 652.93"/>
    <polygon class="cls-4" points="1766.48 488.61 1750.42 488.61 1750.42 206.47 1766.48 488.61"/>
    <polygon class="cls-4" points="43.75 623.45 32.37 623.45 32.37 423.69 43.75 623.45"/>
    <polygon class="cls-4" points="1904.76 662.8 1770.02 662.8 1750.42 488.61 1904.76 456.22 1904.76 662.8"/>
    <polygon class="cls-4" points="1866.18 352.82 1827.59 170.22 1904.76 170.22 1866.18 352.82"/>
    <ellipse class="cls-5" cx="1103.73" cy="501.36" rx="60.71" ry="22.74"/>
    <ellipse class="cls-5" cx="744.12" cy="352.2" rx="60.71" ry="22.74"/>
    <ellipse class="cls-5" cx="1173.39" cy="493.19" rx="58.57" ry="21.94"/>
    <polygon class="cls-3" points="1194.27 652.93 1475.2 652.93 1480.18 421.61 1194.27 456.22 1194.27 652.93"/>
    <polygon class="cls-4" points="1464.62 553.13 1464.62 424.08 1483.68 424.08 1464.62 553.13"/>
    <polygon class="cls-4" points="1414.74 652.93 1194.27 652.93 1194.27 580.6 1444.36 545.26 1414.74 652.93"/>
    <ellipse class="cls-5" cx="833.83" cy="131.11" rx="82" ry="30.71"/>
    <ellipse class="cls-5" cx="672.91" cy="358.16" rx="84.16" ry="18.03"/>
    <ellipse class="cls-5" cx="927.92" cy="120.07" rx="79.12" ry="29.63"/>
    <ellipse class="cls-5" cx="1459.16" cy="170.22" rx="66.31" ry="24.58"/>
    <ellipse class="cls-5" cx="1546.97" cy="170.22" rx="66.31" ry="24.58"/>
    <rect class="cls-6" x="-59.46" y="634.79" width="2097" height="472"/>
    <g>
      <path class="cls-7" d="M118.88,661.58c0,32.68-5.28,32.87-13.71,32.87s-16.83-.19-16.83-32.87,6.84-59.16,15.27-59.16S118.88,628.91,118.88,661.58Z"/>
      <polygon class="cls-8" points="111.74 664.24 109.96 663.62 112.63 655.92 111.74 664.24"/>
      <polygon class="cls-8" points="107.94 620.29 107.41 618.48 115.24 616.2 107.94 620.29"/>
      <polygon class="cls-8" points="98.06 673.79 96.89 675.28 90.47 670.27 98.06 673.79"/>
      <polygon class="cls-8" points="93.87 639.13 92.71 640.62 86.28 635.61 93.87 639.13"/>
    </g>
  </g>
  <g id="info2">
    <rect class="cls-9" x="353.13" y="179.92" width="1243.54" height="745.05"/>
  </g>
  <g id="info3">
    <g>
      <path d="M708.93,270.88a2.73,2.73,0,0,0-1.83.74,2.9,2.9,0,0,0-.91,1.79V300.2a2.9,2.9,0,0,0,.91,1.79,2.55,2.55,0,0,0,1.83.74H709v8.72H697.57v-8.72h.07a2.57,2.57,0,0,0,1.83-.74,2.63,2.63,0,0,0,.88-1.76V288.77H692.9v11.39a2.82,2.82,0,0,0,.87,1.8,3,3,0,0,0,1.87.73h.07v8.72H684.28v-8.72h.07a2.76,2.76,0,0,0,2.71-2.53V273.34a2.65,2.65,0,0,0-.88-1.76,2.55,2.55,0,0,0-1.83-.74h-.07v-9.95h11.43v9.95h-.07a2.59,2.59,0,0,0-1.83.74,2.78,2.78,0,0,0-.91,1.76V283h7.45v-9.63a2.78,2.78,0,0,0-2.71-2.53h-.07v-9.95H709v9.95Z"/>
      <path d="M732.83,261v10h-.07a2.93,2.93,0,0,0-2.77,2.53v2.54l0-.07V305.4a5.92,5.92,0,0,1-1.62,4.22,5.14,5.14,0,0,1-3.93,1.76h-4.33q-5.86.42-7.7-2.11-1.4-1.93-1.37-7.84v-.21h0V290.46h6v4.85a9.25,9.25,0,0,0,.21,2.57c.42,1.69,1.26,2.53,2.53,2.53h1.65c1.22,0,2-.84,2.46-2.53a8,8,0,0,0,.29-2.57V276.78c0-.51,0-1,0-1.47v-1.62a2.82,2.82,0,0,0-.84-1.86,2.78,2.78,0,0,0-1.9-.85h-.11V261Z"/>
      <path d="M756.11,261.07h10.83v0h3.76v18.71h-6.54v-3.1q-.52-5.89-3.45-5.9h-3.44v12.55h8.08v5.41h-8.08v11.46h2.63a5.94,5.94,0,0,0,2.85-.52c1.27-.68,1.9-2.07,1.9-4.15l0-5h6.09v20.92H748.76v-8.69h.07a2.71,2.71,0,0,0,1.83-.77,2.8,2.8,0,0,0,.91-1.76V289.37l-.07-.35-5.2,0-2.39,11.25a2.28,2.28,0,0,0,.53,1.8,1.72,1.72,0,0,0,1.26.73v8.69H734.27v-8.69h.53a3.56,3.56,0,0,0,2-.73,3.81,3.81,0,0,0,1.26-1.8l5.66-26.75a2.12,2.12,0,0,0-.49-1.79,2,2,0,0,0-1.58-.74V261h14.45Zm-5.28,22.29-1.37-6.58-1.4,6.58Z"/>
      <path d="M795.06,290.32v21.13H773v-8.79H773a2.81,2.81,0,0,0,1.86-.74,2.76,2.76,0,0,0,.88-1.79V283.32h0v-9.63a2.73,2.73,0,0,0-.84-1.86,2.76,2.76,0,0,0-1.9-.81H773V261h11.56v10h-.07a2.57,2.57,0,0,0-1.86.74,2.63,2.63,0,0,0-.84,2l0,16.59h0V302.2h3.83c1.26,0,2.07-.84,2.42-2.53a8.71,8.71,0,0,0,.14-2.5v-6.85Z"/>
      <path d="M819.21,280.12a7.5,7.5,0,0,1-.74,4.4q-2,4.35-8.64,4.36h-3.91v11.35a2.76,2.76,0,0,0,2.71,2.53h.11v8.69H797.27v-8.69h.08a2.76,2.76,0,0,0,2.7-2.53V288.88h0l0-15.4a2.82,2.82,0,0,0-.91-1.76,2.71,2.71,0,0,0-1.83-.77h-.07V261h12.59a8.88,8.88,0,0,1,4.71.85q4.66,2.17,4.67,8.93Zm-13.32,4.22q4.25,0,5.73-2.42a3.84,3.84,0,0,0,.6-2.36v-2.81q.06-3-3.13-4a8.75,8.75,0,0,0-3.2-.39Z"/>
      <path d="M849.9,280.12a7.58,7.58,0,0,1-.73,4.4q-2,4.35-8.65,4.36h-3.91v11.35a2.89,2.89,0,0,0,.88,1.8,2.81,2.81,0,0,0,1.83.73h.11v8.69H828v-8.69H828a2.76,2.76,0,0,0,2.7-2.53V288.88h0l0-15.4a2.82,2.82,0,0,0-.91-1.76A2.71,2.71,0,0,0,828,271h-.07V261h12.59a8.88,8.88,0,0,1,4.71.85q4.66,2.17,4.67,8.93Zm-13.32,4.22q4.26,0,5.73-2.42a3.84,3.84,0,0,0,.6-2.36v-2.81q.06-3-3.13-4a8.75,8.75,0,0,0-3.2-.39Z"/>
      <path d="M878.63,304.31a8.35,8.35,0,0,1,.1,1.13,5.89,5.89,0,0,1-1.4,4.32,5.26,5.26,0,0,1-7.25.46,5.68,5.68,0,0,1-2-3.31,30.21,30.21,0,0,1-1.12-7.66c0-.54,0-1.64,0-3.31a13.44,13.44,0,0,0-.14-2.7c-.35-1.78-1.66-3.23-3.93-4.33-.73-.07-1.51-.11-2.36-.14v11.32a2.74,2.74,0,0,0,.88,1.76,2.81,2.81,0,0,0,1.86.74h.07v8.86H852v-8.86h.07a2.73,2.73,0,0,0,1.83-.74,2.63,2.63,0,0,0,.88-1.76V288.77h0V273.48a2.69,2.69,0,0,0-.88-1.76,2.59,2.59,0,0,0-1.83-.74H852V261.1h12.51a8.8,8.8,0,0,1,4.68.85q4.68,2.18,4.68,8.86v9.28a8.25,8.25,0,0,1-.53,3.48,7.28,7.28,0,0,1-5.35,4.78q5,2.59,5.31,10.06a.82.82,0,0,0,.46.59,1.45,1.45,0,0,0,1,.18c.87-.12,1.24-.87,1.12-2.25q.68,0,1.62,2.28A13.78,13.78,0,0,1,878.63,304.31Zm-18.07-20q4.25,0,5.69-2.39a3.63,3.63,0,0,0,.6-2.35v-2.78c0-2-1-3.34-3.09-4a8.77,8.77,0,0,0-3.2-.39Z"/>
      <path d="M902.5,261.07h10.83v0h3.76v18.71h-6.54v-3.1q-.52-5.89-3.45-5.9h-3.44v12.55h8.08v5.41h-8.08v11.46h2.63a5.94,5.94,0,0,0,2.85-.52c1.27-.68,1.9-2.07,1.9-4.15l0-5h6.08v20.92H895.15v-8.69h.07a2.71,2.71,0,0,0,1.83-.77,2.8,2.8,0,0,0,.91-1.76V289.37l-.07-.35-5.2,0-2.39,11.25a2.28,2.28,0,0,0,.53,1.8,1.72,1.72,0,0,0,1.26.73v8.69H880.67v-8.69h.52a3.56,3.56,0,0,0,2-.73,3.81,3.81,0,0,0,1.26-1.8l5.66-26.75a2.12,2.12,0,0,0-.49-1.79,2,2,0,0,0-1.58-.74V261H902.5Zm-5.28,22.29-1.37-6.58-1.4,6.58Z"/>
      <path d="M946,304.31a8.35,8.35,0,0,1,.1,1.13,5.89,5.89,0,0,1-1.4,4.32,5.26,5.26,0,0,1-7.25.46,5.68,5.68,0,0,1-2-3.31,30.21,30.21,0,0,1-1.12-7.66c0-.54,0-1.64,0-3.31a13.44,13.44,0,0,0-.14-2.7c-.35-1.78-1.66-3.23-3.93-4.33-.73-.07-1.52-.11-2.36-.14v11.32a2.74,2.74,0,0,0,.88,1.76,2.79,2.79,0,0,0,1.86.74h.07v8.86H919.37v-8.86h.07a2.73,2.73,0,0,0,1.83-.74,2.63,2.63,0,0,0,.88-1.76V288.77h0V273.48a2.68,2.68,0,0,0-.87-1.76,2.59,2.59,0,0,0-1.83-.74h-.07V261.1h12.51a8.8,8.8,0,0,1,4.68.85q4.68,2.18,4.67,8.86v9.28a8.08,8.08,0,0,1-.52,3.48,7.28,7.28,0,0,1-5.35,4.78q5,2.59,5.31,10.06a.82.82,0,0,0,.46.59,1.45,1.45,0,0,0,.95.18c.87-.12,1.24-.87,1.12-2.25q.68,0,1.62,2.28A13.78,13.78,0,0,1,946,304.31Zm-18.07-20q4.25,0,5.69-2.39a3.63,3.63,0,0,0,.6-2.35v-2.78c0-2-1-3.34-3.1-4a8.69,8.69,0,0,0-3.19-.39Z"/>
      <path d="M959.27,270.84a2.62,2.62,0,0,0-1.86.74,2.81,2.81,0,0,0-.88,1.79V300.2a2.78,2.78,0,0,0,2.74,2.53h.08v8.72h-11.5v-8.72h.07a2.77,2.77,0,0,0,1.83-.74,2.71,2.71,0,0,0,.91-1.79V273.37a2.71,2.71,0,0,0-.91-1.79,2.59,2.59,0,0,0-1.83-.74h-.07v-9.95h11.5v9.95Z"/>
      <path d="M983.32,261.07v18.67h-6.54v-3.1q-.53-5.89-3.44-5.9h-3.45v12.55H978v5.41h-8.09v11.46h2.64a5.94,5.94,0,0,0,2.85-.52c1.26-.68,1.89-2.07,1.89-4.15l0-5h6.08v20.92H961.38v-8.69h.07a2.67,2.67,0,0,0,1.83-.77,2.81,2.81,0,0,0,.92-1.76V273.48a2.61,2.61,0,0,0-.92-1.76,2.55,2.55,0,0,0-1.83-.74h-.07v-9.91h18.18v0h3.76Z"/>
      <path d="M1010.5,270.88a2.73,2.73,0,0,0-1.83.74,3,3,0,0,0-.92,1.79V300.2a3,3,0,0,0,.92,1.79,2.55,2.55,0,0,0,1.83.74h.07v8.72H999.14v-8.72h.07A2.57,2.57,0,0,0,1001,302a2.63,2.63,0,0,0,.88-1.76V288.77h-7.45v11.39a2.82,2.82,0,0,0,.87,1.8,2.94,2.94,0,0,0,1.87.73h.07v8.72H985.85v-8.72h.07a2.76,2.76,0,0,0,2.71-2.53V273.34a2.65,2.65,0,0,0-.88-1.76,2.55,2.55,0,0,0-1.83-.74h-.07v-9.95h11.43v9.95h-.07a2.57,2.57,0,0,0-1.83.74,2.78,2.78,0,0,0-.91,1.76V283h7.45v-9.63a2.78,2.78,0,0,0-2.71-2.53h-.07v-9.95h11.43v9.95Z"/>
      <path d="M1037.32,261.1v10.41h-.07a2.53,2.53,0,0,0-1.83.77,2.92,2.92,0,0,0-.88,1.87v27.7a9.24,9.24,0,0,1-2.81,6.79,9.55,9.55,0,0,1-13.43.1,9.33,9.33,0,0,1-2.88-6.61h0v-28a2.82,2.82,0,0,0-.88-1.86,2.58,2.58,0,0,0-1.82-.81h-.07V261.07H1024v10.37H1024a2.71,2.71,0,0,0-1.83.77,3.16,3.16,0,0,0-.91,1.87V293h0v3.3a3.73,3.73,0,0,0,1.09,2.67,3.74,3.74,0,0,0,5.28,0,3.73,3.73,0,0,0,1.09-2.67V274.15a2.91,2.91,0,0,0-.92-1.87,2.5,2.5,0,0,0-1.82-.77h-.07V261.1Z"/>
      <path d="M1067.7,311.27a11.29,11.29,0,0,1-5.49-.38q-5.52-1.72-5.52-8.37V276.89a2.85,2.85,0,0,0-1-2.15,3.55,3.55,0,0,0-2.43-.87,3.66,3.66,0,0,0-2.46.87,2.75,2.75,0,0,0-1,2.15v23.2a2.59,2.59,0,0,0,1,1.44,3.2,3.2,0,0,0,2,.74h.11v9.14h-12.8v-9.14h.07a3.33,3.33,0,0,0,2.07-.74,2.64,2.64,0,0,0,1-1.72v-26.4a2.66,2.66,0,0,0-1-1.72,3.06,3.06,0,0,0-2.07-.74h-.07v-9.78h12.8v1.66q4.21-3.56,7.52-.65a9.84,9.84,0,0,1,3.34,7.71l0,28.48a4.46,4.46,0,0,0,.28,2.18,3.54,3.54,0,0,0,3.66,2.14Z"/>
      <path d="M1095.05,302.69a7.74,7.74,0,0,1-.92,4.36q-2.25,4.4-9,4.4h-14.91v-8.72h.07a2.55,2.55,0,0,0,1.83-.74,2.81,2.81,0,0,0,.92-1.76V273.41a2.93,2.93,0,0,0-2.75-2.53h-.07V261h14.91a10.46,10.46,0,0,1,5,1.09q4.92,2.32,4.92,8.69Zm-8.93-2.28c1.24,0,2-1,2.35-2.88a9.69,9.69,0,0,0,.14-2.89v-16c0-2.22-.41-3.71-1.23-4.46a1.54,1.54,0,0,0-1.26-.42h-7.07v26.61Z"/>
      <path d="M1119.27,261.07v18.67h-6.54v-3.1q-.52-5.89-3.44-5.9h-3.45v12.55h8.09v5.41h-8.09v11.46h2.64a5.94,5.94,0,0,0,2.85-.52c1.26-.68,1.89-2.07,1.89-4.15l0-5h6.08v20.92h-21.94v-8.69h.07a2.67,2.67,0,0,0,1.83-.77,2.81,2.81,0,0,0,.92-1.76V273.48a2.61,2.61,0,0,0-.92-1.76,2.55,2.55,0,0,0-1.83-.74h-.07v-9.91h18.18v0h3.76Z"/>
      <path d="M1149.36,311.27a11.26,11.26,0,0,1-5.48-.38q-5.52-1.72-5.52-8.37V276.89a2.85,2.85,0,0,0-1-2.15,3.55,3.55,0,0,0-2.43-.87,3.66,3.66,0,0,0-2.46.87,2.75,2.75,0,0,0-1,2.15v23.2a2.49,2.49,0,0,0,1,1.44,3.2,3.2,0,0,0,2,.74h.1v9.14h-12.79v-9.14h.07a3.35,3.35,0,0,0,2.07-.74,2.68,2.68,0,0,0,1-1.72v-26.4a2.7,2.7,0,0,0-1-1.72,3.08,3.08,0,0,0-2.07-.74h-.07v-9.78h12.79v1.66c2.82-2.37,5.32-2.59,7.53-.65a9.88,9.88,0,0,1,3.34,7.71l0,28.48a4.46,4.46,0,0,0,.28,2.18,3.54,3.54,0,0,0,3.66,2.14Z"/>
      <path d="M1183.25,270.88a2.73,2.73,0,0,0-1.82.74,3,3,0,0,0-.92,1.79V300.2a3,3,0,0,0,.92,1.79,2.55,2.55,0,0,0,1.82.74h.08v8.72H1171.9v-8.72h.07a2.59,2.59,0,0,0,1.83-.74,2.67,2.67,0,0,0,.88-1.76V288.77h-7.46v11.39a2.84,2.84,0,0,0,.88,1.8,2.94,2.94,0,0,0,1.87.73h.07v8.72h-11.43v-8.72h.07a2.76,2.76,0,0,0,2.71-2.53V273.34a2.69,2.69,0,0,0-.88-1.76,2.59,2.59,0,0,0-1.83-.74h-.07v-9.95H1170v9.95H1170a2.55,2.55,0,0,0-1.83.74,2.84,2.84,0,0,0-.92,1.76V283h7.46v-9.63a2.81,2.81,0,0,0-.88-1.79,2.77,2.77,0,0,0-1.83-.74h-.07v-9.95h11.43v9.95Z"/>
      <path d="M1207.16,261v10h-.07a2.71,2.71,0,0,0-1.86.78,2.81,2.81,0,0,0-.92,1.75v2.54l0-.07V305.4a5.92,5.92,0,0,1-1.62,4.22,5.16,5.16,0,0,1-3.94,1.76h-4.32q-5.87.42-7.7-2.11c-.94-1.29-1.39-3.9-1.37-7.84v-.21h0V290.46h6v4.85a9.25,9.25,0,0,0,.21,2.57c.42,1.69,1.26,2.53,2.53,2.53h1.65c1.22,0,2-.84,2.46-2.53a7.72,7.72,0,0,0,.28-2.57V276.78q0-.76,0-1.47v-1.62a2.92,2.92,0,0,0-2.74-2.71h-.11V261Z"/>
      <path d="M1230.54,261.07v18.67H1224v-3.1q-.52-5.89-3.44-5.9h-3.45v12.55h8.09v5.41h-8.09v11.46h2.64a5.87,5.87,0,0,0,2.84-.52c1.27-.68,1.9-2.07,1.9-4.15l0-5h6.08v20.92H1208.6v-8.69h.07a2.67,2.67,0,0,0,1.83-.77,2.81,2.81,0,0,0,.92-1.76V273.48a2.65,2.65,0,0,0-.92-1.76,2.55,2.55,0,0,0-1.83-.74h-.07v-9.91h18.18v0h3.76Z"/>
      <path d="M1271.18,302.8v8.65h-11.46V302.8h.07a2.82,2.82,0,0,0,1.86-.77,3,3,0,0,0,.88-1.87V276.08a3.59,3.59,0,0,0-1.09-2.64,3.75,3.75,0,0,0-6.4,2.64v24A2.82,2.82,0,0,0,1256,302a2.61,2.61,0,0,0,1.83.8h.07v8.65h0v0h-11.46V302.8h0v0h.07a2.71,2.71,0,0,0,2.18-1.16,2.93,2.93,0,0,0,.52-1.44V276.08a3.59,3.59,0,0,0-1.09-2.64,3.64,3.64,0,0,0-2.67-1.09,3.76,3.76,0,0,0-3.69,3.38v24.43a2.79,2.79,0,0,0,.88,1.83,2.67,2.67,0,0,0,1.83.77h.07v8.65H1233v-8.65h.07a2.76,2.76,0,0,0,1.86-.8,2.84,2.84,0,0,0,.88-1.83V273.34a2.81,2.81,0,0,0-2.67-2.43h-.11V261h11.46c.31,0,.6,0,.88,0a9.39,9.39,0,0,1,6.72,2.71,9.58,9.58,0,0,1,16.24,6.65l0,.17v.18l0,29.49a3.16,3.16,0,0,0,.91,1.87,2.71,2.71,0,0,0,1.83.77Z"/>
    </g>
    <g>
      <path d="M569.77,574.35V600a4.94,4.94,0,0,0,.68,2.73,1.68,1.68,0,0,0,.81.64,2,2,0,0,1,.44.07l.41.12v5.84H562.05v-6l.54-.1a4.87,4.87,0,0,0,.61-.15,1.91,1.91,0,0,0,.51-.58,5,5,0,0,0,.61-2.74V584.19c0-2.17-.75-3.19-2.29-3.08v-4a8.11,8.11,0,0,0,4.15-2.78Z"/>
      <path d="M598.33,587.61a5.19,5.19,0,0,1-.51,3c-1,2-3,3-6,3H589.1v7.89a1.92,1.92,0,0,0,1.88,1.76h.08v6h-8v-6h0a1.92,1.92,0,0,0,1.88-1.76v-7.89h0L585,583a2,2,0,0,0-.64-1.22,1.9,1.9,0,0,0-1.27-.54h0v-6.88h8.74a6.23,6.23,0,0,1,3.27.58q3.25,1.52,3.25,6.21Zm-9.25,2.92c2,0,3.29-.57,4-1.68a2.68,2.68,0,0,0,.41-1.64v-2a2.64,2.64,0,0,0-2.17-2.76,6.45,6.45,0,0,0-2.22-.27Z"/>
      <path d="M611.22,574.32a3.79,3.79,0,0,1,2.76,1.13,3.68,3.68,0,0,1,1.12,2.71v27.37a3.7,3.7,0,0,1-1.12,2.71,3.82,3.82,0,0,1-2.76,1.12h-7.57a3.75,3.75,0,0,1-2.73-1.12,3.65,3.65,0,0,1-1.15-2.71V578.16a3.64,3.64,0,0,1,1.15-2.71,3.72,3.72,0,0,1,2.73-1.13Zm-1.07,9.13a3.12,3.12,0,0,0-.42-1.66,1.25,1.25,0,0,0-1.05-.68h-2.49a1.2,1.2,0,0,0-1,.68,3,3,0,0,0-.44,1.66v16.78a3,3,0,0,0,.44,1.66,1.2,1.2,0,0,0,1,.68h2.49a1.25,1.25,0,0,0,1.05-.68,3.12,3.12,0,0,0,.42-1.66Z"/>
      <path d="M624.89,581.16a1.81,1.81,0,0,0-1.29.51,1.94,1.94,0,0,0-.61,1.25v18.63a1.94,1.94,0,0,0,.61,1.24,1.9,1.9,0,0,0,1.29.51h.05v6.06h-8V603.3h0a1.87,1.87,0,0,0,1.27-.51,1.91,1.91,0,0,0,.63-1.24V582.92a1.92,1.92,0,0,0-.63-1.25,1.78,1.78,0,0,0-1.27-.51h0v-6.91h8v6.91Z"/>
      <path d="M645.52,609.24a8,8,0,0,1-3.81-.27q-3.83-1.2-3.83-5.81v-17.8a2,2,0,0,0-.73-1.49,2.44,2.44,0,0,0-1.69-.61,2.5,2.5,0,0,0-1.7.61,1.87,1.87,0,0,0-.71,1.49v16.11a1.72,1.72,0,0,0,.71,1,2.24,2.24,0,0,0,1.41.52h.08v6.34h-8.89V603h0a2.37,2.37,0,0,0,1.44-.52,1.8,1.8,0,0,0,.68-1.19V582.94a1.8,1.8,0,0,0-.68-1.19,2.14,2.14,0,0,0-1.44-.52h0v-6.78h8.89v1.14q2.93-2.46,5.22-.45a6.87,6.87,0,0,1,2.32,5.36l0,19.78a3,3,0,0,0,.2,1.51,2.46,2.46,0,0,0,2.54,1.49Z"/>
      <path d="M651.76,582.19a1.7,1.7,0,0,0-.44-.66,1.64,1.64,0,0,0-1.16-.69,1.73,1.73,0,0,0-1.18.69,2.29,2.29,0,0,0-.61,1.63v4.1h-3.56V574.35h18v12.91h-3.54v-4.1h0a2.26,2.26,0,0,0-.63-1.63,1.68,1.68,0,0,0-1.16-.69,1.66,1.66,0,0,0-1.16.69,1.82,1.82,0,0,0-.44.66l0,19.36a1.89,1.89,0,0,0,.61,1.24,1.87,1.87,0,0,0,1.29.51h.05v6.06h-8V603.3h0a2,2,0,0,0,1.91-1.75Z"/>
    </g>
    <g>
      <path d="M568.17,696v3.81h-11V696Z"/>
      <path d="M582.18,680.56v25.61a5,5,0,0,0,.68,2.73,1.8,1.8,0,0,0,.81.64,1.91,1.91,0,0,1,.44.07l.41.12v5.84h-10v-6l.53-.1a4.87,4.87,0,0,0,.61-.15,2.21,2.21,0,0,0,.52-.58,5.08,5.08,0,0,0,.61-2.74V690.4c0-2.17-.75-3.19-2.3-3.08v-4a8.06,8.06,0,0,0,4.15-2.78Z"/>
      <path d="M606.13,693.81a5.22,5.22,0,0,1-.51,3.06q-1.43,3-6,3H596.9v7.89a1.94,1.94,0,0,0,1.88,1.76h.07v6h-8v-6h0a1.91,1.91,0,0,0,1.27-.52,1.87,1.87,0,0,0,.61-1.24v-7.89h0l0-10.69a2,2,0,0,0-1.9-1.76h0v-6.88h8.74a6.13,6.13,0,0,1,3.27.58q3.25,1.51,3.25,6.2Zm-9.25,2.93c2,0,3.29-.57,4-1.68a2.68,2.68,0,0,0,.41-1.64v-1.95a2.64,2.64,0,0,0-2.17-2.76,6,6,0,0,0-2.22-.27Z"/>
      <path d="M619,680.53a3.81,3.81,0,0,1,2.76,1.13,3.67,3.67,0,0,1,1.12,2.71v27.36a3.67,3.67,0,0,1-1.12,2.71,3.81,3.81,0,0,1-2.76,1.13h-7.57a3.72,3.72,0,0,1-2.73-1.13,3.62,3.62,0,0,1-1.15-2.71V684.37a3.62,3.62,0,0,1,1.15-2.71,3.72,3.72,0,0,1,2.73-1.13ZM618,689.66a3.12,3.12,0,0,0-.42-1.66,1.25,1.25,0,0,0-1-.68H614a1.19,1.19,0,0,0-1,.68,3,3,0,0,0-.44,1.66v16.78a3,3,0,0,0,.44,1.66,1.19,1.19,0,0,0,1,.68h2.49a1.25,1.25,0,0,0,1-.68,3.12,3.12,0,0,0,.42-1.66Z"/>
      <path d="M632.69,687.37a1.81,1.81,0,0,0-1.29.51,1.94,1.94,0,0,0-.61,1.25v18.62a1.92,1.92,0,0,0,1.9,1.76h0v6.06h-8v-6.06h0a2,2,0,0,0,1.9-1.76V689.13a1.92,1.92,0,0,0-.63-1.25,1.78,1.78,0,0,0-1.27-.51h0v-6.91h8v6.91Z"/>
      <path d="M653.32,715.44a7.85,7.85,0,0,1-3.81-.26q-3.82-1.2-3.83-5.81v-17.8a2,2,0,0,0-.73-1.49,2.44,2.44,0,0,0-1.69-.61,2.5,2.5,0,0,0-1.7.61,1.87,1.87,0,0,0-.71,1.49v16.11a1.72,1.72,0,0,0,.71,1,2.17,2.17,0,0,0,1.41.51H643v6.35h-8.88v-6.35h.05a2.3,2.3,0,0,0,1.44-.51,1.8,1.8,0,0,0,.68-1.19V689.15a1.85,1.85,0,0,0-.68-1.2,2.19,2.19,0,0,0-1.44-.51h-.05v-6.79H643v1.15q2.94-2.46,5.23-.45a6.86,6.86,0,0,1,2.32,5.36l0,19.77a3.09,3.09,0,0,0,.2,1.52,2.46,2.46,0,0,0,2.54,1.49Z"/>
      <path d="M659.56,688.39a1.86,1.86,0,0,0-.44-.66,1.66,1.66,0,0,0-1.16-.68,1.75,1.75,0,0,0-1.18.68,2.32,2.32,0,0,0-.61,1.64v4.1H652.6V680.56h18v12.91h-3.54v-4.1h0a2.29,2.29,0,0,0-.63-1.64,1.69,1.69,0,0,0-1.16-.68,1.67,1.67,0,0,0-1.16.68,2,2,0,0,0-.44.66l0,19.36a2,2,0,0,0,.61,1.25,2,2,0,0,0,1.3.51h0v6.06h-8v-6.06h0A1.92,1.92,0,0,0,659,709a1.88,1.88,0,0,0,.64-1.25Z"/>
    </g>
    <g>
      <path d="M656.56,389.27v9.88H668v-9.88h3.08v23.6H668V401.81H656.56v11.06h-3v-23.6Z"/>
      <path d="M672.38,417.77a5,5,0,0,0,3.36-1.3c.84-1,1.16-2.31,1.16-6.37V395.93H680v15.36c0,3.29-.53,5.43-2,7a7.86,7.86,0,0,1-5.26,1.92Zm8-26.61a1.81,1.81,0,0,1-1.93,1.89,1.84,1.84,0,0,1-1.89-1.89,1.89,1.89,0,0,1,2-1.92A1.82,1.82,0,0,1,680.33,391.16Z"/>
      <path d="M696.81,404.71c-.1,4,2.21,6.16,5.39,6.16a9.75,9.75,0,0,0,4.62-1l.56,2.17a11.94,11.94,0,0,1-5.56,1.19c-2.87,0-5.46-1.36-6.44-3.74h-.07a6.64,6.64,0,0,1-6.3,3.74c-3.54,0-5.29-2.38-5.29-4.83,0-3.92,3.64-6.19,10.22-6.12v-.7a3.75,3.75,0,0,0-4-3.78,8.24,8.24,0,0,0-4.34,1.29l-.74-2a10.83,10.83,0,0,1,5.29-1.54c3,0,4.76,1.44,5.46,3.61h.07a6.43,6.43,0,0,1,5.91-3.61c5.18,0,6.62,5,6.62,7.81a7.08,7.08,0,0,1-.11,1.36Zm-2.83-.35c-3.26-.07-7.21.49-7.21,3.82a2.74,2.74,0,0,0,2.94,2.8,4.14,4.14,0,0,0,4.09-2.91,3.54,3.54,0,0,0,.18-1.22Zm11.3-1.85c.11-1.72-.84-4.77-3.95-4.77s-4.45,2.84-4.55,4.77Z"/>
      <path d="M712.07,388h3.08v24.86h-3.08Z"/>
      <path d="M720.33,401.46c0-2.17-.07-3.93-.14-5.53H723l.14,2.9h.07a6.66,6.66,0,0,1,6-3.29c4.09,0,7.17,3.47,7.17,8.61,0,6.09-3.71,9.1-7.7,9.1a6,6,0,0,1-5.22-2.66h-.06v9.21h-3Zm3,4.51a6.07,6.07,0,0,0,.14,1.26,4.75,4.75,0,0,0,4.62,3.61c3.25,0,5.14-2.66,5.14-6.55,0-3.39-1.78-6.3-5-6.3a4.93,4.93,0,0,0-4.66,3.82,5.18,5.18,0,0,0-.2,1.26Z"/>
      <path d="M747.66,401.46c0-2.17-.07-3.93-.14-5.53h2.77l.14,2.9h.07a6.66,6.66,0,0,1,6-3.29c4.1,0,7.18,3.47,7.18,8.61,0,6.09-3.72,9.1-7.71,9.1a5.93,5.93,0,0,1-5.21-2.66h-.07v9.21h-3.05Zm3.05,4.51a6.84,6.84,0,0,0,.14,1.26,4.75,4.75,0,0,0,4.62,3.61c3.25,0,5.15-2.66,5.15-6.55,0-3.39-1.79-6.3-5-6.3a4.91,4.91,0,0,0-4.65,3.82,4.75,4.75,0,0,0-.21,1.26Z"/>
      <path d="M767.58,401.21c0-2,0-3.71-.14-5.28h2.69l.11,3.32h.14a5.08,5.08,0,0,1,4.69-3.71,2.92,2.92,0,0,1,.87.11v2.9a4.62,4.62,0,0,0-1.05-.1c-2.17,0-3.71,1.64-4.13,3.95a8.68,8.68,0,0,0-.14,1.44v9h-3Z"/>
      <path d="M790.65,404.71c-.11,4,2.2,6.16,5.39,6.16a9.81,9.81,0,0,0,4.62-1l.56,2.17a12,12,0,0,1-5.57,1.19c-2.87,0-5.46-1.36-6.44-3.74h-.07a6.64,6.64,0,0,1-6.3,3.74c-3.54,0-5.29-2.38-5.29-4.83,0-3.92,3.64-6.19,10.22-6.12v-.7a3.75,3.75,0,0,0-3.95-3.78,8.24,8.24,0,0,0-4.34,1.29l-.74-2a10.83,10.83,0,0,1,5.29-1.54c3,0,4.76,1.44,5.46,3.61h.07a6.43,6.43,0,0,1,5.92-3.61c5.18,0,6.61,5,6.61,7.81a7.2,7.2,0,0,1-.1,1.36Zm-2.84-.35c-3.26-.07-7.21.49-7.21,3.82a2.74,2.74,0,0,0,2.94,2.8,4.14,4.14,0,0,0,4.09-2.91,3.54,3.54,0,0,0,.18-1.22Zm11.31-1.85c.1-1.72-.84-4.77-4-4.77s-4.45,2.84-4.55,4.77Z"/>
      <path d="M805.9,401.21c0-2,0-3.71-.14-5.28h2.7l.1,3.32h.14a5.09,5.09,0,0,1,4.69-3.71,3,3,0,0,1,.88.11v2.9a4.68,4.68,0,0,0-1-.1c-2.17,0-3.71,1.64-4.13,3.95a8.68,8.68,0,0,0-.14,1.44v9H805.9Z"/>
      <path d="M820.92,391.16a1.91,1.91,0,0,1-3.82,0,1.88,1.88,0,0,1,1.93-1.92A1.83,1.83,0,0,1,820.92,391.16Zm-3.43,21.71V395.93h3.08v16.94Z"/>
      <path d="M827.39,405c.07,4.16,2.73,5.88,5.81,5.88a11.09,11.09,0,0,0,4.69-.88l.53,2.21a13.75,13.75,0,0,1-5.64,1.05c-5.21,0-8.33-3.43-8.33-8.54s3-9.14,7.95-9.14c5.53,0,7,4.87,7,8a10.69,10.69,0,0,1-.11,1.44Zm9-2.21c0-2-.8-5-4.27-5-3.11,0-4.48,2.88-4.72,5Z"/>
      <path d="M843.21,388h3.08v10.58h.07a5.72,5.72,0,0,1,2.21-2.18,6.37,6.37,0,0,1,3.15-.87c2.27,0,5.91,1.4,5.91,7.25v10.08h-3.08v-9.73c0-2.73-1-5-3.92-5a4.43,4.43,0,0,0-4.13,3.08,3.81,3.81,0,0,0-.21,1.47v10.22h-3.08Z"/>
      <path d="M876.81,408.25c0,1.75,0,3.29.14,4.62h-2.73l-.17-2.77H874a6.37,6.37,0,0,1-5.6,3.15c-2.66,0-5.85-1.47-5.85-7.42v-9.9h3.08v9.38c0,3.22,1,5.39,3.78,5.39a4.33,4.33,0,0,0,4.34-4.38V395.93h3.08Z"/>
      <path d="M881.92,400.51c0-1.75,0-3.19-.14-4.58h2.73l.18,2.8h.07a6.23,6.23,0,0,1,5.6-3.19c2.34,0,6,1.4,6,7.21v10.12h-3.08V403.1c0-2.73-1-5-3.92-5a4.52,4.52,0,0,0-4.34,4.58v10.19h-3.08Z"/>
      <path d="M916,388v20.48c0,1.51,0,3.22.14,4.38h-2.77l-.14-2.94h-.07a6.25,6.25,0,0,1-5.77,3.32c-4.1,0-7.25-3.46-7.25-8.61,0-5.63,3.47-9.1,7.6-9.1a5.67,5.67,0,0,1,5.11,2.59h.07V388Zm-3.08,14.81a5.66,5.66,0,0,0-.14-1.29,4.54,4.54,0,0,0-4.45-3.57c-3.18,0-5.07,2.8-5.07,6.54,0,3.43,1.68,6.27,5,6.27a4.64,4.64,0,0,0,4.52-3.68,5.6,5.6,0,0,0,.14-1.33Z"/>
      <path d="M922.8,405c.07,4.16,2.73,5.88,5.81,5.88a11.09,11.09,0,0,0,4.69-.88l.53,2.21a13.75,13.75,0,0,1-5.64,1.05c-5.21,0-8.33-3.43-8.33-8.54s3-9.14,7.95-9.14c5.53,0,7,4.87,7,8a10.69,10.69,0,0,1-.11,1.44Zm9-2.21c0-2-.8-5-4.27-5-3.11,0-4.48,2.88-4.72,5Z"/>
      <path d="M938.62,400.51c0-1.75,0-3.19-.14-4.58h2.73l.18,2.8h.07a6.23,6.23,0,0,1,5.6-3.19c2.34,0,6,1.4,6,7.21v10.12H950V403.1c0-2.73-1-5-3.92-5a4.52,4.52,0,0,0-4.34,4.58v10.19h-3.08Z"/>
      <path d="M965.05,409.72a8.12,8.12,0,0,0,4.06,1.22c2.24,0,3.29-1.12,3.29-2.52s-.88-2.27-3.15-3.11c-3-1.09-4.48-2.77-4.48-4.8,0-2.73,2.2-5,5.84-5a8.48,8.48,0,0,1,4.17,1l-.77,2.24a6.61,6.61,0,0,0-3.47-1c-1.82,0-2.83,1-2.83,2.31s1,2,3.22,2.87c2.94,1.12,4.44,2.59,4.44,5.11,0,3-2.31,5.08-6.33,5.08a9.65,9.65,0,0,1-4.76-1.16Z"/>
      <path d="M982.76,391.16a1.91,1.91,0,0,1-3.82,0,1.88,1.88,0,0,1,1.93-1.92A1.83,1.83,0,0,1,982.76,391.16Zm-3.43,21.71V395.93h3.08v16.94Z"/>
      <path d="M990.56,403.7h.07c.42-.6,1-1.33,1.51-1.93l5-5.84h3.71l-6.55,7,7.46,10H998l-5.84-8.12-1.58,1.75v6.37h-3V388h3Z"/>
      <path d="M1007.57,403.7h.07c.42-.6,1-1.33,1.51-1.93l5-5.84h3.71l-6.55,7,7.46,10H1015l-5.84-8.12-1.58,1.75v6.37h-3V388h3Z"/>
      <path d="M1022.66,405c.07,4.16,2.73,5.88,5.81,5.88a11.16,11.16,0,0,0,4.69-.88l.52,2.21a13.69,13.69,0,0,1-5.63,1.05c-5.22,0-8.34-3.43-8.34-8.54s3-9.14,8-9.14c5.53,0,7,4.87,7,8a13.18,13.18,0,0,1-.1,1.44Zm9-2.21c0-2-.81-5-4.27-5-3.12,0-4.48,2.88-4.73,5Z"/>
      <path d="M1038.47,401.21c0-2,0-3.71-.14-5.28h2.7l.1,3.32h.15a5.07,5.07,0,0,1,4.69-3.71,2.92,2.92,0,0,1,.87.11v2.9a4.62,4.62,0,0,0-1-.1c-2.17,0-3.71,1.64-4.13,3.95a8.68,8.68,0,0,0-.14,1.44v9h-3Z"/>
      <path d="M1054.47,391.06v4.87h4.41v2.34h-4.41v9.14c0,2.1.6,3.29,2.31,3.29a7.19,7.19,0,0,0,1.79-.21l.14,2.31a7.67,7.67,0,0,1-2.73.42,4.27,4.27,0,0,1-3.33-1.3c-.88-.91-1.19-2.41-1.19-4.41v-9.24h-2.63v-2.34h2.63v-4.06Z"/>
      <path d="M1069.76,388h3.08v10.58h.07a5.72,5.72,0,0,1,2.21-2.18,6.4,6.4,0,0,1,3.15-.87c2.27,0,5.92,1.4,5.92,7.25v10.08h-3.08v-9.73c0-2.73-1-5-3.93-5a4.43,4.43,0,0,0-4.13,3.08,3.81,3.81,0,0,0-.21,1.47v10.22h-3.08Z"/>
      <path d="M1085.06,417.77a5,5,0,0,0,3.36-1.3c.84-1,1.15-2.31,1.15-6.37V395.93h3.08v15.36c0,3.29-.52,5.43-2,7a7.82,7.82,0,0,1-5.25,1.92Zm7.94-26.61a1.8,1.8,0,0,1-1.92,1.89,1.83,1.83,0,0,1-1.89-1.89,1.88,1.88,0,0,1,2-1.92A1.81,1.81,0,0,1,1093,391.16Z"/>
      <path d="M1099.41,405c.07,4.16,2.73,5.88,5.81,5.88a11.16,11.16,0,0,0,4.69-.88l.52,2.21a13.65,13.65,0,0,1-5.63,1.05c-5.22,0-8.33-3.43-8.33-8.54s3-9.14,7.94-9.14c5.54,0,7,4.87,7,8a12.67,12.67,0,0,1-.11,1.44Zm9-2.21c0-2-.81-5-4.27-5-3.12,0-4.48,2.88-4.73,5Z"/>
      <path d="M1115.23,400.51c0-1.75,0-3.19-.14-4.58h2.69l.14,2.73h.11a5.84,5.84,0,0,1,5.32-3.12,5,5,0,0,1,4.79,3.4h.07a7.2,7.2,0,0,1,1.89-2.21,5.81,5.81,0,0,1,3.75-1.19c2.24,0,5.57,1.47,5.57,7.35v10h-3v-9.59c0-3.26-1.19-5.22-3.68-5.22a4,4,0,0,0-3.64,2.8,5.07,5.07,0,0,0-.25,1.54v10.47h-3V402.72c0-2.7-1.19-4.66-3.53-4.66a4.21,4.21,0,0,0-3.82,3.08,4.39,4.39,0,0,0-.24,1.51v10.22h-3Z"/>
      <path d="M1155.55,391.06v4.87H1160v2.34h-4.41v9.14c0,2.1.59,3.29,2.31,3.29a7,7,0,0,0,1.78-.21l.14,2.31a7.63,7.63,0,0,1-2.73.42,4.26,4.26,0,0,1-3.32-1.3c-.88-.91-1.19-2.41-1.19-4.41v-9.24h-2.63v-2.34h2.63v-4.06Z"/>
      <path d="M1166.85,391.16a1.91,1.91,0,0,1-3.81,0,1.87,1.87,0,0,1,1.92-1.92A1.82,1.82,0,0,1,1166.85,391.16Zm-3.43,21.71V395.93h3.08v16.94Z"/>
      <path d="M1171.61,388h3.08v24.86h-3.08Z"/>
      <path d="M1186.87,409.72a8.12,8.12,0,0,0,4.06,1.22c2.24,0,3.29-1.12,3.29-2.52s-.87-2.27-3.15-3.11c-3-1.09-4.48-2.77-4.48-4.8,0-2.73,2.21-5,5.85-5a8.43,8.43,0,0,1,4.16,1l-.77,2.24a6.57,6.57,0,0,0-3.46-1c-1.82,0-2.84,1-2.84,2.31s1,2,3.22,2.87c2.94,1.12,4.45,2.59,4.45,5.11,0,3-2.31,5.08-6.34,5.08a9.67,9.67,0,0,1-4.76-1.16Z"/>
      <path d="M1204.58,391.16a1.91,1.91,0,0,1-3.81,0,1.87,1.87,0,0,1,1.92-1.92A1.82,1.82,0,0,1,1204.58,391.16Zm-3.43,21.71V395.93h3.08v16.94Z"/>
      <path d="M1209.34,400.51c0-1.75,0-3.19-.14-4.58h2.73l.18,2.8h.07a6.23,6.23,0,0,1,5.6-3.19c2.34,0,6,1.4,6,7.21v10.12h-3.08V403.1c0-2.73-1-5-3.92-5a4.52,4.52,0,0,0-4.34,4.58v10.19h-3.08Z"/>
      <path d="M1236.19,388h3.08v10.58h.07a5.76,5.76,0,0,1,2.2-2.18,6.4,6.4,0,0,1,3.15-.87c2.28,0,5.92,1.4,5.92,7.25v10.08h-3.08v-9.73c0-2.73-1-5-3.92-5a4.42,4.42,0,0,0-4.13,3.08,3.63,3.63,0,0,0-.21,1.47v10.22h-3.08Z"/>
      <path d="M1269.79,408.25c0,1.75,0,3.29.14,4.62h-2.73l-.18-2.77H1267a6.36,6.36,0,0,1-5.6,3.15c-2.66,0-5.84-1.47-5.84-7.42v-9.9h3.08v9.38c0,3.22,1,5.39,3.78,5.39a4.47,4.47,0,0,0,4.06-2.8,4.67,4.67,0,0,0,.28-1.58V395.93h3.08Z"/>
      <path d="M1274.9,388H1278v24.86h-3.08Z"/>
      <path d="M1284.87,405c.07,4.16,2.73,5.88,5.81,5.88a11.09,11.09,0,0,0,4.69-.88l.53,2.21a13.75,13.75,0,0,1-5.64,1.05c-5.21,0-8.33-3.43-8.33-8.54s3-9.14,8-9.14c5.53,0,7,4.87,7,8a10.69,10.69,0,0,1-.11,1.44Zm9-2.21c0-2-.8-5-4.27-5-3.11,0-4.48,2.88-4.72,5Z"/>
      <path d="M1299.54,411.05a2.07,2.07,0,0,1,2.09-2.21,2.21,2.21,0,1,1-2.09,2.21Z"/>
      <path d="M652,431.59a29.49,29.49,0,0,1,5.56-.49c3.05,0,5,.52,6.48,1.71a5,5,0,0,1,2,4.17,5.6,5.6,0,0,1-4,5.18v.07a6.08,6.08,0,0,1,4.86,5.92,6.34,6.34,0,0,1-2,4.72c-1.65,1.51-4.31,2.21-8.16,2.21a35.45,35.45,0,0,1-4.72-.28Zm3,9.66h2.77c3.22,0,5.11-1.68,5.11-4,0-2.76-2.1-3.84-5.18-3.84a12.76,12.76,0,0,0-2.7.21Zm0,11.31a17,17,0,0,0,2.56.14c3.15,0,6-1.16,6-4.59,0-3.22-2.76-4.55-6.09-4.55H655Z"/>
      <path d="M672.7,447c.07,4.16,2.73,5.88,5.81,5.88a11.16,11.16,0,0,0,4.69-.88l.52,2.21a13.69,13.69,0,0,1-5.63,1.05c-5.22,0-8.33-3.43-8.33-8.54s3-9.14,7.94-9.14c5.53,0,7,4.87,7,8a13.18,13.18,0,0,1-.1,1.44Zm9-2.21c0-2-.81-5-4.27-5-3.12,0-4.48,2.88-4.73,5Z"/>
      <path d="M688.1,451.72a8.12,8.12,0,0,0,4.06,1.22c2.24,0,3.29-1.12,3.29-2.52s-.88-2.27-3.15-3.11c-3-1.09-4.48-2.77-4.48-4.8,0-2.73,2.2-5,5.84-5a8.48,8.48,0,0,1,4.17,1l-.77,2.24a6.61,6.61,0,0,0-3.47-1c-1.82,0-2.83,1-2.83,2.31s1,2,3.22,2.87c2.94,1.12,4.44,2.59,4.44,5.11,0,3-2.31,5.08-6.33,5.08a9.65,9.65,0,0,1-4.76-1.16Z"/>
      <path d="M705.42,445.7h.07c.42-.6,1-1.33,1.51-1.93l5-5.84h3.71l-6.55,7,7.46,10h-3.75L707,446.75l-1.58,1.75v6.37h-3V430h3Z"/>
      <path d="M720.36,437.93l3.72,10c.38,1.12.8,2.45,1.08,3.46h.07c.32-1,.67-2.31,1.09-3.53l3.36-9.94h3.25L728.31,450c-2.2,5.81-3.71,8.79-5.81,10.61a8.3,8.3,0,0,1-3.78,2L718,460a8.15,8.15,0,0,0,2.7-1.5,9.54,9.54,0,0,0,2.59-3.43,2.2,2.2,0,0,0,.24-.74,2.66,2.66,0,0,0-.21-.8L717,437.93Z"/>
      <path d="M739.44,433.06v4.87h4.41v2.34h-4.41v9.14c0,2.1.6,3.29,2.31,3.29a7.12,7.12,0,0,0,1.79-.21l.14,2.31a7.67,7.67,0,0,1-2.73.42,4.27,4.27,0,0,1-3.33-1.3c-.88-.91-1.19-2.41-1.19-4.41v-9.24H733.8v-2.34h2.63v-4.06Z"/>
      <path d="M769.37,430v20.48c0,1.51,0,3.22.14,4.38h-2.77l-.14-2.94h-.07a6.27,6.27,0,0,1-5.78,3.32c-4.09,0-7.24-3.46-7.24-8.61,0-5.63,3.46-9.1,7.59-9.1a5.69,5.69,0,0,1,5.12,2.59h.07V430Zm-3.08,14.81a5.66,5.66,0,0,0-.14-1.29A4.54,4.54,0,0,0,761.7,440c-3.19,0-5.08,2.8-5.08,6.54,0,3.43,1.68,6.27,5,6.27a4.65,4.65,0,0,0,4.52-3.68,5.6,5.6,0,0,0,.14-1.33Z"/>
      <path d="M776.19,447c.07,4.16,2.73,5.88,5.81,5.88a11.16,11.16,0,0,0,4.69-.88l.52,2.21a13.69,13.69,0,0,1-5.63,1.05c-5.22,0-8.33-3.43-8.33-8.54s3-9.14,7.94-9.14c5.54,0,7,4.87,7,8a12.67,12.67,0,0,1-.11,1.44Zm9-2.21c0-2-.81-5-4.27-5-3.12,0-4.48,2.88-4.73,5Z"/>
      <path d="M792,442.51c0-1.75,0-3.19-.14-4.58h2.73l.17,2.8h.07a6.23,6.23,0,0,1,5.6-3.19c2.35,0,6,1.4,6,7.21v10.12h-3.08V445.1c0-2.73-1-5-3.92-5a4.52,4.52,0,0,0-4.34,4.58v10.19H792Z"/>
      <path d="M819.17,454.87v-14.6h-2.38v-2.34h2.38v-.81c0-2.38.52-4.55,2-5.92a5.87,5.87,0,0,1,4.13-1.57,7,7,0,0,1,2.62.49l-.42,2.38a4.57,4.57,0,0,0-2-.38c-2.62,0-3.29,2.3-3.29,4.9v.91h4.1v2.34h-4.1v14.6Z"/>
      <path d="M844,446.26c0,6.26-4.34,9-8.44,9-4.58,0-8.12-3.36-8.12-8.71,0-5.67,3.71-9,8.4-9C840.66,437.54,844,441.08,844,446.26Zm-13.44.17c0,3.71,2.13,6.51,5.14,6.51s5.15-2.76,5.15-6.58c0-2.87-1.44-6.51-5.08-6.51S830.51,443.21,830.51,446.43Z"/>
      <path d="M847.83,443.21c0-2,0-3.71-.14-5.28h2.7l.1,3.32h.14a5.09,5.09,0,0,1,4.69-3.71,3,3,0,0,1,.88.11v2.9a4.68,4.68,0,0,0-1.05-.1c-2.17,0-3.71,1.64-4.13,3.95a8.68,8.68,0,0,0-.14,1.44v9h-3Z"/>
      <path d="M882,446.26c0,6.26-4.34,9-8.44,9-4.58,0-8.12-3.36-8.12-8.71,0-5.67,3.71-9,8.4-9C878.74,437.54,882,441.08,882,446.26Zm-13.44.17c0,3.71,2.13,6.51,5.14,6.51s5.15-2.76,5.15-6.58c0-2.87-1.44-6.51-5.08-6.51S868.59,443.21,868.59,446.43Z"/>
      <path d="M885.91,442.51c0-1.75,0-3.19-.14-4.58h2.73l.18,2.8h.07a6.23,6.23,0,0,1,5.6-3.19c2.34,0,6,1.4,6,7.21v10.12h-3.08V445.1c0-2.73-1-5-3.92-5a4.52,4.52,0,0,0-4.34,4.58v10.19h-3.08Z"/>
      <path d="M920,430v20.48c0,1.51,0,3.22.14,4.38h-2.77l-.14-2.94h-.07a6.25,6.25,0,0,1-5.77,3.32c-4.1,0-7.25-3.46-7.25-8.61,0-5.63,3.47-9.1,7.6-9.1a5.67,5.67,0,0,1,5.11,2.59h.07V430Zm-3.08,14.81a5.66,5.66,0,0,0-.14-1.29A4.54,4.54,0,0,0,912.3,440c-3.18,0-5.07,2.8-5.07,6.54,0,3.43,1.68,6.27,5,6.27a4.64,4.64,0,0,0,4.52-3.68,5.6,5.6,0,0,0,.14-1.33Z"/>
      <path d="M926.79,447c.07,4.16,2.73,5.88,5.81,5.88a11.09,11.09,0,0,0,4.69-.88l.53,2.21a13.75,13.75,0,0,1-5.64,1.05c-5.21,0-8.33-3.43-8.33-8.54s3-9.14,7.95-9.14c5.53,0,7,4.87,7,8a10.69,10.69,0,0,1-.11,1.44Zm9-2.21c0-2-.8-5-4.27-5-3.11,0-4.48,2.88-4.72,5Z"/>
      <path d="M964.63,437.93c-.07,1.22-.14,2.59-.14,4.65v9.84c0,3.88-.77,6.26-2.42,7.73a9,9,0,0,1-6.16,2,10.9,10.9,0,0,1-5.63-1.4l.77-2.34a9.55,9.55,0,0,0,5,1.33c3.15,0,5.46-1.65,5.46-5.92V452h-.07A6.05,6.05,0,0,1,956,454.8c-4.2,0-7.21-3.57-7.21-8.26,0-5.74,3.74-9,7.63-9a5.62,5.62,0,0,1,5.28,2.94h.07l.14-2.55Zm-3.19,6.68A4.48,4.48,0,0,0,957,440c-2.94,0-5,2.48-5,6.4,0,3.33,1.68,6.09,5,6.09a4.51,4.51,0,0,0,4.27-3.15,5.47,5.47,0,0,0,.24-1.64Z"/>
      <path d="M969.39,443.21c0-2,0-3.71-.14-5.28h2.69l.11,3.32h.14a5.08,5.08,0,0,1,4.69-3.71,2.92,2.92,0,0,1,.87.11v2.9a4.62,4.62,0,0,0-1-.1c-2.17,0-3.71,1.64-4.13,3.95a8.68,8.68,0,0,0-.14,1.44v9h-3Z"/>
      <path d="M984.4,433.16a1.91,1.91,0,0,1-3.81,0,1.87,1.87,0,0,1,1.92-1.92A1.82,1.82,0,0,1,984.4,433.16ZM981,454.87V437.93h3.08v16.94Z"/>
      <path d="M989,454.87c.07-1.16.14-2.87.14-4.38V430h3.05v10.65h.07a6.3,6.3,0,0,1,5.77-3.12c4.2,0,7.18,3.5,7.14,8.65,0,6.05-3.81,9.06-7.59,9.06a6,6,0,0,1-5.67-3.18h-.11l-.14,2.8Zm3.19-6.79a5.82,5.82,0,0,0,.14,1.12,4.75,4.75,0,0,0,4.62,3.6c3.22,0,5.14-2.62,5.14-6.51,0-3.39-1.75-6.3-5-6.3a4.92,4.92,0,0,0-4.69,3.78,6.1,6.1,0,0,0-.17,1.26Z"/>
      <path d="M1008.94,454.87c.07-1.16.14-2.87.14-4.38V430h3v10.65h.07a6.33,6.33,0,0,1,5.78-3.12c4.2,0,7.17,3.5,7.14,8.65,0,6.05-3.82,9.06-7.6,9.06a6,6,0,0,1-5.67-3.18h-.1l-.14,2.8Zm3.18-6.79a5.82,5.82,0,0,0,.14,1.12,4.76,4.76,0,0,0,4.62,3.6c3.22,0,5.15-2.62,5.15-6.51,0-3.39-1.75-6.3-5-6.3a4.92,4.92,0,0,0-4.69,3.78,6,6,0,0,0-.18,1.26Z"/>
      <path d="M1030.71,447c.06,4.16,2.73,5.88,5.81,5.88a11.16,11.16,0,0,0,4.69-.88l.52,2.21a13.69,13.69,0,0,1-5.63,1.05c-5.22,0-8.34-3.43-8.34-8.54s3-9.14,8-9.14c5.53,0,7,4.87,7,8a13.18,13.18,0,0,1-.1,1.44Zm9-2.21c0-2-.81-5-4.28-5-3.11,0-4.48,2.88-4.72,5Z"/>
      <path d="M1053.52,451.72a8.12,8.12,0,0,0,4.06,1.22c2.25,0,3.3-1.12,3.3-2.52s-.88-2.27-3.16-3.11c-3-1.09-4.48-2.77-4.48-4.8,0-2.73,2.21-5,5.85-5a8.43,8.43,0,0,1,4.16,1l-.76,2.24a6.64,6.64,0,0,0-3.47-1c-1.82,0-2.84,1-2.84,2.31s1,2,3.22,2.87c2.94,1.12,4.45,2.59,4.45,5.11,0,3-2.31,5.08-6.34,5.08a9.67,9.67,0,0,1-4.76-1.16Z"/>
      <path d="M1083.14,446.26c0,6.26-4.35,9-8.44,9-4.59,0-8.12-3.36-8.12-8.71,0-5.67,3.71-9,8.4-9C1079.85,437.54,1083.14,441.08,1083.14,446.26Zm-13.45.17c0,3.71,2.14,6.51,5.15,6.51s5.15-2.76,5.15-6.58c0-2.87-1.44-6.51-5.08-6.51S1069.69,443.21,1069.69,446.43Z"/>
      <path d="M1087,442.51c0-1.75,0-3.19-.14-4.58h2.69l.14,2.73h.11a5.84,5.84,0,0,1,5.32-3.12,5,5,0,0,1,4.8,3.4h.06a7.09,7.09,0,0,1,1.9-2.21,5.76,5.76,0,0,1,3.74-1.19c2.24,0,5.57,1.47,5.57,7.35v10h-3v-9.59c0-3.26-1.19-5.22-3.68-5.22a4,4,0,0,0-3.64,2.8,5.08,5.08,0,0,0-.24,1.54v10.47h-3V444.72c0-2.7-1.19-4.66-3.53-4.66a4.21,4.21,0,0,0-3.82,3.08,4.39,4.39,0,0,0-.24,1.51v10.22h-3Z"/>
      <path d="M1124.82,437.93l3.32,9.52a43.65,43.65,0,0,1,1.37,4.34h.1c.39-1.4.88-2.8,1.44-4.34l3.29-9.52h3.22l-6.65,16.94H1128l-6.44-16.94Z"/>
      <path d="M1143.89,433.16a1.91,1.91,0,0,1-3.81,0,1.87,1.87,0,0,1,1.92-1.92A1.82,1.82,0,0,1,1143.89,433.16Zm-3.43,21.71V437.93h3.08v16.94Z"/>
      <path d="M1148.65,430h3.08v24.86h-3.08Z"/>
      <path d="M1163.91,451.72a8.12,8.12,0,0,0,4.06,1.22c2.24,0,3.29-1.12,3.29-2.52s-.87-2.27-3.15-3.11c-3-1.09-4.48-2.77-4.48-4.8,0-2.73,2.21-5,5.85-5a8.43,8.43,0,0,1,4.16,1l-.77,2.24a6.57,6.57,0,0,0-3.46-1c-1.82,0-2.84,1-2.84,2.31s1,2,3.22,2.87c2.94,1.12,4.45,2.59,4.45,5.11,0,3-2.31,5.08-6.34,5.08a9.67,9.67,0,0,1-4.76-1.16Z"/>
      <path d="M1178.19,443.46c0-2.17-.07-3.93-.14-5.53h2.77l.14,2.9h.07a6.66,6.66,0,0,1,6-3.29c4.09,0,7.17,3.47,7.17,8.61,0,6.09-3.71,9.1-7.7,9.1a5.93,5.93,0,0,1-5.21-2.66h-.07v9.21h-3Zm3,4.51a6.84,6.84,0,0,0,.14,1.26,4.75,4.75,0,0,0,4.62,3.61c3.25,0,5.14-2.66,5.14-6.55,0-3.39-1.78-6.3-5-6.3a4.91,4.91,0,0,0-4.65,3.82,4.75,4.75,0,0,0-.21,1.26Z"/>
      <path d="M1201.54,433.16a1.91,1.91,0,0,1-3.82,0,1.88,1.88,0,0,1,1.93-1.92A1.83,1.83,0,0,1,1201.54,433.16Zm-3.43,21.71V437.93h3.08v16.94Z"/>
      <path d="M1205.88,451.72a8.12,8.12,0,0,0,4.06,1.22c2.24,0,3.29-1.12,3.29-2.52s-.88-2.27-3.15-3.11c-3-1.09-4.48-2.77-4.48-4.8,0-2.73,2.2-5,5.84-5a8.48,8.48,0,0,1,4.17,1l-.77,2.24a6.61,6.61,0,0,0-3.47-1c-1.82,0-2.83,1-2.83,2.31s1,2,3.22,2.87c2.94,1.12,4.44,2.59,4.44,5.11,0,3-2.31,5.08-6.33,5.08a9.65,9.65,0,0,1-4.76-1.16Z"/>
      <path d="M1221.87,447c.07,4.16,2.73,5.88,5.81,5.88a11.09,11.09,0,0,0,4.69-.88l.53,2.21a13.75,13.75,0,0,1-5.64,1.05c-5.21,0-8.33-3.43-8.33-8.54s3-9.14,8-9.14c5.53,0,7,4.87,7,8a10.69,10.69,0,0,1-.11,1.44Zm9-2.21c0-2-.8-5-4.27-5-3.11,0-4.48,2.88-4.72,5Z"/>
      <path d="M1259.74,430v20.48c0,1.51,0,3.22.14,4.38h-2.76l-.14-2.94h-.07a6.27,6.27,0,0,1-5.78,3.32c-4.09,0-7.24-3.46-7.24-8.61,0-5.63,3.46-9.1,7.59-9.1a5.67,5.67,0,0,1,5.11,2.59h.07V430Zm-3.08,14.81a5.15,5.15,0,0,0-.14-1.29,4.52,4.52,0,0,0-4.44-3.57c-3.19,0-5.08,2.8-5.08,6.54,0,3.43,1.68,6.27,5,6.27a4.63,4.63,0,0,0,4.51-3.68,5.12,5.12,0,0,0,.14-1.33Z"/>
      <path d="M1266.57,447c.07,4.16,2.73,5.88,5.81,5.88a11.16,11.16,0,0,0,4.69-.88l.52,2.21a13.69,13.69,0,0,1-5.63,1.05c-5.22,0-8.34-3.43-8.34-8.54s3-9.14,8-9.14c5.53,0,7,4.87,7,8a13.18,13.18,0,0,1-.1,1.44Zm9-2.21c0-2-.81-5-4.27-5-3.12,0-4.48,2.88-4.73,5Z"/>
      <path d="M1282.39,442.51c0-1.75,0-3.19-.14-4.58H1285l.17,2.8h.07a6.23,6.23,0,0,1,5.6-3.19c2.35,0,6,1.4,6,7.21v10.12h-3.08V445.1c0-2.73-1-5-3.92-5a4.52,4.52,0,0,0-4.34,4.58v10.19h-3.08Z"/>
      <path d="M1301.08,453.05a2.07,2.07,0,0,1,2.1-2.21,2.21,2.21,0,1,1-2.1,2.21Z"/>
      <path d="M416.22,473.55a35.87,35.87,0,0,1,5.84-.45c3,0,5.22.7,6.62,2a6.37,6.37,0,0,1,2.07,4.93,7,7,0,0,1-1.83,5.05,9.79,9.79,0,0,1-7.21,2.59,10.76,10.76,0,0,1-2.45-.21v9.45h-3Zm3,11.38a10,10,0,0,0,2.52.25c3.68,0,5.92-1.79,5.92-5s-2.21-4.63-5.57-4.63a12.73,12.73,0,0,0-2.87.25Z"/>
      <path d="M443.2,496.87l-.24-2.14h-.11a6.3,6.3,0,0,1-5.18,2.52,4.82,4.82,0,0,1-5.18-4.86c0-4.1,3.64-6.34,10.19-6.3v-.35c0-1.4-.39-3.92-3.85-3.92a8.43,8.43,0,0,0-4.41,1.26l-.7-2a10.51,10.51,0,0,1,5.56-1.51c5.18,0,6.45,3.54,6.45,6.93v6.34a24,24,0,0,0,.27,4.06Zm-.45-8.65c-3.36-.07-7.18.53-7.18,3.82a2.73,2.73,0,0,0,2.91,2.94,4.21,4.21,0,0,0,4.09-2.84,3,3,0,0,0,.18-1Z"/>
      <path d="M450.27,493.72a8.12,8.12,0,0,0,4.06,1.22c2.24,0,3.29-1.12,3.29-2.52s-.87-2.27-3.15-3.11c-3-1.09-4.48-2.77-4.48-4.8,0-2.73,2.21-5,5.85-5a8.43,8.43,0,0,1,4.16,1l-.77,2.24a6.57,6.57,0,0,0-3.46-1c-1.82,0-2.84,1-2.84,2.31s1,2,3.22,2.87c2.94,1.12,4.45,2.59,4.45,5.11,0,3-2.31,5.08-6.34,5.08a9.67,9.67,0,0,1-4.76-1.16Z"/>
      <path d="M486.6,472v20.48c0,1.51,0,3.22.14,4.38H484l-.14-2.94h-.07a6.27,6.27,0,0,1-5.78,3.32c-4.09,0-7.24-3.46-7.24-8.61,0-5.63,3.46-9.1,7.59-9.1a5.67,5.67,0,0,1,5.11,2.59h.07V472Zm-3.08,14.81a5.15,5.15,0,0,0-.14-1.29,4.52,4.52,0,0,0-4.44-3.57c-3.19,0-5.08,2.8-5.08,6.54,0,3.43,1.68,6.27,5,6.27a4.63,4.63,0,0,0,4.51-3.68,5.12,5.12,0,0,0,.14-1.33Z"/>
      <path d="M507,488.26c0,6.26-4.34,9-8.43,9-4.59,0-8.12-3.36-8.12-8.71,0-5.67,3.71-9,8.4-9C503.75,479.54,507,483.08,507,488.26Zm-13.44.17c0,3.71,2.14,6.51,5.15,6.51s5.14-2.76,5.14-6.58c0-2.87-1.43-6.51-5.07-6.51S493.6,485.21,493.6,488.43Z"/>
      <path d="M525.52,479.93c-.07,1.22-.14,2.59-.14,4.65v9.84c0,3.88-.77,6.26-2.41,7.73a9,9,0,0,1-6.16,2,11,11,0,0,1-5.64-1.4l.77-2.34a9.55,9.55,0,0,0,5,1.33c3.15,0,5.46-1.65,5.46-5.92V494h-.07a6,6,0,0,1-5.39,2.84c-4.2,0-7.21-3.57-7.21-8.26,0-5.74,3.75-9,7.63-9a5.65,5.65,0,0,1,5.29,2.94h.07l.14-2.55Zm-3.18,6.68a4.52,4.52,0,0,0-4.48-4.65c-2.94,0-5,2.48-5,6.4,0,3.33,1.68,6.09,5,6.09a4.5,4.5,0,0,0,4.27-3.15,5.19,5.19,0,0,0,.25-1.64Z"/>
      <path d="M537.91,485.46c0-2.17-.07-3.93-.14-5.53h2.77l.14,2.9h.07a6.66,6.66,0,0,1,6-3.29c4.09,0,7.17,3.47,7.17,8.61,0,6.09-3.71,9.1-7.7,9.1a5.93,5.93,0,0,1-5.21-2.66H541v9.21h-3.05ZM541,490a6.84,6.84,0,0,0,.14,1.26,4.75,4.75,0,0,0,4.62,3.61c3.25,0,5.14-2.66,5.14-6.55,0-3.39-1.78-6.3-5-6.3a4.91,4.91,0,0,0-4.65,3.82,4.75,4.75,0,0,0-.21,1.26Z"/>
      <path d="M567.21,496.87l-.25-2.14h-.1a6.32,6.32,0,0,1-5.18,2.52,4.82,4.82,0,0,1-5.18-4.86c0-4.1,3.64-6.34,10.18-6.3v-.35c0-1.4-.38-3.92-3.85-3.92a8.45,8.45,0,0,0-4.41,1.26l-.7-2a10.52,10.52,0,0,1,5.57-1.51c5.18,0,6.44,3.54,6.44,6.93v6.34a23.89,23.89,0,0,0,.28,4.06Zm-.46-8.65c-3.36-.07-7.17.53-7.17,3.82a2.73,2.73,0,0,0,2.9,2.94,4.21,4.21,0,0,0,4.1-2.84,3.31,3.31,0,0,0,.17-1Zm-6.61-13.34a3.3,3.3,0,0,1,3.57-3.32,3.24,3.24,0,0,1,3.46,3.29,3.53,3.53,0,0,1-7,0Zm5.32-.07a1.78,1.78,0,1,0-3.54.07,1.78,1.78,0,1,0,3.54-.07Z"/>
      <path d="M591.5,496.87l-.25-2.14h-.1a6.32,6.32,0,0,1-5.18,2.52,4.82,4.82,0,0,1-5.18-4.86c0-4.1,3.64-6.34,10.18-6.3v-.35c0-1.4-.38-3.92-3.85-3.92a8.45,8.45,0,0,0-4.41,1.26l-.7-2a10.52,10.52,0,0,1,5.57-1.51c5.18,0,6.44,3.54,6.44,6.93v6.34a23.89,23.89,0,0,0,.28,4.06Zm-.46-8.65c-3.36-.07-7.17.53-7.17,3.82a2.73,2.73,0,0,0,2.9,2.94,4.21,4.21,0,0,0,4.1-2.84,3.31,3.31,0,0,0,.17-1Z"/>
      <path d="M602.56,475.06v4.87H607v2.34h-4.41v9.14c0,2.1.59,3.29,2.31,3.29a7,7,0,0,0,1.78-.21l.14,2.31a7.63,7.63,0,0,1-2.73.42,4.26,4.26,0,0,1-3.32-1.3c-.88-.91-1.19-2.41-1.19-4.41v-9.24h-2.63v-2.34h2.63v-4.06Z"/>
      <path d="M632.48,472v20.48c0,1.51,0,3.22.14,4.38h-2.76l-.14-2.94h-.07a6.27,6.27,0,0,1-5.78,3.32c-4.09,0-7.24-3.46-7.24-8.61,0-5.63,3.46-9.1,7.59-9.1a5.67,5.67,0,0,1,5.11,2.59h.07V472Zm-3.08,14.81a5.15,5.15,0,0,0-.14-1.29,4.52,4.52,0,0,0-4.44-3.57c-3.19,0-5.08,2.8-5.08,6.54,0,3.43,1.68,6.27,5,6.27a4.63,4.63,0,0,0,4.51-3.68,5.12,5.12,0,0,0,.14-1.33Z"/>
      <path d="M651.77,492.25c0,1.75,0,3.29.14,4.62h-2.73L649,494.1h-.07a6.36,6.36,0,0,1-5.6,3.15c-2.66,0-5.84-1.47-5.84-7.42v-9.9h3.08v9.38c0,3.22,1,5.39,3.78,5.39a4.47,4.47,0,0,0,4.06-2.8,4.67,4.67,0,0,0,.28-1.58V479.93h3.08Z"/>
      <path d="M667.73,475.16a1.91,1.91,0,0,1-3.82,0,1.87,1.87,0,0,1,1.92-1.92A1.83,1.83,0,0,1,667.73,475.16Zm-3.44,21.71V479.93h3.09v16.94Z"/>
      <path d="M675.53,487.7h.07c.42-.6,1-1.33,1.5-1.93l5-5.84h3.71l-6.55,7,7.46,10H683l-5.85-8.12-1.57,1.75v6.37h-3V472h3Z"/>
      <path d="M692.54,487.7h.07c.42-.6,1-1.33,1.5-1.93l5-5.84h3.71l-6.55,7,7.46,10H700l-5.85-8.12-1.57,1.75v6.37h-3V472h3Z"/>
      <path d="M707.62,489c.07,4.16,2.73,5.88,5.82,5.88a11.16,11.16,0,0,0,4.69-.88l.52,2.21a13.69,13.69,0,0,1-5.63,1.05c-5.22,0-8.34-3.43-8.34-8.54s3-9.14,8-9.14c5.53,0,7,4.87,7,8a13.18,13.18,0,0,1-.1,1.44Zm9-2.21c0-2-.81-5-4.28-5-3.11,0-4.48,2.88-4.72,5Z"/>
      <path d="M730.86,485.21c0-2,0-3.71-.14-5.28h2.7l.1,3.32h.14a5.09,5.09,0,0,1,4.69-3.71,3,3,0,0,1,.88.11v2.9a4.68,4.68,0,0,0-1.05-.1c-2.17,0-3.71,1.64-4.13,3.95a8.68,8.68,0,0,0-.14,1.44v9h-3Z"/>
      <path d="M751.51,496.87l-.24-2.14h-.1a6.33,6.33,0,0,1-5.19,2.52,4.82,4.82,0,0,1-5.18-4.86c0-4.1,3.64-6.34,10.19-6.3v-.35c0-1.4-.39-3.92-3.85-3.92a8.43,8.43,0,0,0-4.41,1.26l-.7-2a10.51,10.51,0,0,1,5.56-1.51c5.18,0,6.45,3.54,6.45,6.93v6.34a24,24,0,0,0,.27,4.06Zm-.45-8.65c-3.36-.07-7.18.53-7.18,3.82a2.73,2.73,0,0,0,2.91,2.94,4.21,4.21,0,0,0,4.09-2.84,3,3,0,0,0,.18-1Z"/>
      <path d="M759,484.51c0-1.75,0-3.19-.14-4.58h2.7l.14,2.73h.1a5.85,5.85,0,0,1,5.32-3.12,5,5,0,0,1,4.8,3.4H772a7.06,7.06,0,0,1,1.89-2.21,5.81,5.81,0,0,1,3.75-1.19c2.24,0,5.56,1.47,5.56,7.35v10h-3v-9.59c0-3.26-1.19-5.22-3.67-5.22a4,4,0,0,0-3.65,2.8,5.41,5.41,0,0,0-.24,1.54v10.47h-3V486.72c0-2.7-1.19-4.66-3.54-4.66a4.21,4.21,0,0,0-3.81,3.08,4.17,4.17,0,0,0-.25,1.51v10.22h-3Z"/>
      <path d="M788.19,484.51c0-1.75,0-3.19-.14-4.58h2.7l.14,2.73h.1a5.85,5.85,0,0,1,5.32-3.12,5,5,0,0,1,4.8,3.4h.07a7.06,7.06,0,0,1,1.89-2.21,5.79,5.79,0,0,1,3.75-1.19c2.24,0,5.56,1.47,5.56,7.35v10h-3v-9.59c0-3.26-1.19-5.22-3.67-5.22a4,4,0,0,0-3.65,2.8,5.41,5.41,0,0,0-.24,1.54v10.47h-3V486.72c0-2.7-1.19-4.66-3.54-4.66a4.21,4.21,0,0,0-3.81,3.08,4.17,4.17,0,0,0-.25,1.51v10.22h-3Z"/>
      <path d="M819.1,489c.07,4.16,2.73,5.88,5.81,5.88a11.16,11.16,0,0,0,4.69-.88l.52,2.21a13.69,13.69,0,0,1-5.63,1.05c-5.22,0-8.33-3.43-8.33-8.54s3-9.14,7.94-9.14c5.53,0,7,4.87,7,8A13.18,13.18,0,0,1,831,489Zm9-2.21c0-2-.81-5-4.27-5-3.12,0-4.48,2.88-4.73,5Z"/>
      <path d="M834.92,485.21c0-2,0-3.71-.14-5.28h2.69l.11,3.32h.14a5.08,5.08,0,0,1,4.69-3.71,2.92,2.92,0,0,1,.87.11v2.9a4.62,4.62,0,0,0-1-.1c-2.17,0-3.71,1.64-4.13,3.95a8.68,8.68,0,0,0-.14,1.44v9h-3Z"/>
      <path d="M868.41,472v20.48c0,1.51,0,3.22.14,4.38h-2.76l-.14-2.94h-.07a6.27,6.27,0,0,1-5.78,3.32c-4.09,0-7.24-3.46-7.24-8.61,0-5.63,3.46-9.1,7.59-9.1a5.67,5.67,0,0,1,5.11,2.59h.07V472Zm-3.08,14.81a5.15,5.15,0,0,0-.14-1.29,4.52,4.52,0,0,0-4.44-3.57c-3.19,0-5.08,2.8-5.08,6.54,0,3.43,1.68,6.27,5,6.27a4.63,4.63,0,0,0,4.51-3.68,5.12,5.12,0,0,0,.14-1.33Z"/>
      <path d="M875.24,489c.07,4.16,2.73,5.88,5.81,5.88a11.16,11.16,0,0,0,4.69-.88l.52,2.21a13.69,13.69,0,0,1-5.63,1.05c-5.22,0-8.33-3.43-8.33-8.54s3-9.14,7.94-9.14c5.53,0,7,4.87,7,8a13.18,13.18,0,0,1-.1,1.44Zm9-2.21c0-2-.81-5-4.27-5-3.12,0-4.48,2.88-4.73,5Z"/>
      <path d="M912.65,492.25c0,1.75,0,3.29.14,4.62h-2.73l-.17-2.77h-.07a6.37,6.37,0,0,1-5.6,3.15c-2.66,0-5.85-1.47-5.85-7.42v-9.9h3.08v9.38c0,3.22,1,5.39,3.78,5.39a4.33,4.33,0,0,0,4.34-4.38V479.93h3.08Z"/>
      <path d="M917.34,493.72a8.12,8.12,0,0,0,4.06,1.22c2.24,0,3.29-1.12,3.29-2.52s-.87-2.27-3.15-3.11c-3-1.09-4.48-2.77-4.48-4.8,0-2.73,2.21-5,5.85-5a8.43,8.43,0,0,1,4.16,1l-.77,2.24a6.57,6.57,0,0,0-3.46-1c-1.82,0-2.84,1-2.84,2.31s1,2,3.22,2.87c2.94,1.12,4.45,2.59,4.45,5.11,0,3-2.31,5.08-6.34,5.08a9.67,9.67,0,0,1-4.76-1.16Z"/>
      <path d="M934.67,487.7h.07c.42-.6,1-1.33,1.5-1.93l5-5.84h3.71l-6.54,7,7.45,10h-3.74l-5.85-8.12-1.57,1.75v6.37h-3V472h3Z"/>
      <path d="M949.61,479.93l3.71,10c.39,1.12.81,2.45,1.09,3.46h.07c.31-1,.66-2.31,1.08-3.53l3.36-9.94h3.26L957.56,492c-2.21,5.81-3.71,8.79-5.81,10.61a8.35,8.35,0,0,1-3.78,2L947.2,502a8,8,0,0,0,2.69-1.5,9.42,9.42,0,0,0,2.59-3.43,2.27,2.27,0,0,0,.25-.74,2.66,2.66,0,0,0-.21-.8l-6.27-15.61Z"/>
      <path d="M965,472h3.08v24.86H965Z"/>
      <path d="M987.87,472v20.48c0,1.51,0,3.22.14,4.38h-2.77l-.14-2.94H985a6.25,6.25,0,0,1-5.77,3.32c-4.1,0-7.25-3.46-7.25-8.61,0-5.63,3.47-9.1,7.6-9.1a5.67,5.67,0,0,1,5.11,2.59h.07V472Zm-3.08,14.81a5.66,5.66,0,0,0-.14-1.29A4.54,4.54,0,0,0,980.2,482c-3.18,0-5.07,2.8-5.07,6.54,0,3.43,1.68,6.27,5,6.27a4.64,4.64,0,0,0,4.52-3.68,5.6,5.6,0,0,0,.14-1.33Z"/>
      <path d="M996.41,475.16a1.91,1.91,0,0,1-3.82,0,1.88,1.88,0,0,1,1.93-1.92A1.83,1.83,0,0,1,996.41,475.16ZM993,496.87V479.93h3.08v16.94Z"/>
      <path d="M1015.76,479.93c-.07,1.22-.14,2.59-.14,4.65v9.84c0,3.88-.77,6.26-2.41,7.73a9,9,0,0,1-6.16,2,11,11,0,0,1-5.64-1.4l.77-2.34a9.55,9.55,0,0,0,5,1.33c3.15,0,5.46-1.65,5.46-5.92V494h-.07a6,6,0,0,1-5.39,2.84c-4.2,0-7.21-3.57-7.21-8.26,0-5.74,3.75-9,7.63-9a5.65,5.65,0,0,1,5.29,2.94h.07l.14-2.55Zm-3.18,6.68a4.52,4.52,0,0,0-4.48-4.65c-2.94,0-5,2.48-5,6.4,0,3.33,1.68,6.09,5,6.09a4.5,4.5,0,0,0,4.27-3.15,5.19,5.19,0,0,0,.25-1.64Z"/>
      <path d="M1022.45,489c.06,4.16,2.73,5.88,5.81,5.88A11.16,11.16,0,0,0,1033,494l.52,2.21a13.69,13.69,0,0,1-5.63,1.05c-5.22,0-8.34-3.43-8.34-8.54s3-9.14,8-9.14c5.53,0,7,4.87,7,8a13.18,13.18,0,0,1-.1,1.44Zm9-2.21c0-2-.81-5-4.27-5-3.12,0-4.49,2.88-4.73,5Z"/>
      <path d="M1046,496.87v-14.6h-2.38v-2.34H1046v-.81c0-2.38.52-4.55,2-5.92a5.9,5.9,0,0,1,4.13-1.57,7.11,7.11,0,0,1,2.63.49l-.43,2.38a4.57,4.57,0,0,0-2-.38c-2.62,0-3.29,2.3-3.29,4.9v.91h4.1v2.34H1049v14.6Z"/>
      <path d="M1070.08,492.25c0,1.75,0,3.29.14,4.62h-2.73l-.17-2.77h-.07a6.38,6.38,0,0,1-5.61,3.15c-2.66,0-5.84-1.47-5.84-7.42v-9.9h3.08v9.38c0,3.22,1,5.39,3.78,5.39a4.33,4.33,0,0,0,4.34-4.38V479.93h3.08Z"/>
      <path d="M1089.79,479.93c-.07,1.22-.14,2.59-.14,4.65v9.84c0,3.88-.77,6.26-2.42,7.73a9,9,0,0,1-6.16,2,11,11,0,0,1-5.64-1.4l.77-2.34a9.55,9.55,0,0,0,5,1.33c3.16,0,5.46-1.65,5.46-5.92V494h-.06a6.06,6.06,0,0,1-5.4,2.84c-4.2,0-7.21-3.57-7.21-8.26,0-5.74,3.75-9,7.63-9a5.64,5.64,0,0,1,5.29,2.94h.07l.14-2.55Zm-3.19,6.68a4.13,4.13,0,0,0-.18-1.4,4.42,4.42,0,0,0-4.3-3.25c-2.94,0-5,2.48-5,6.4,0,3.33,1.68,6.09,5,6.09a4.52,4.52,0,0,0,4.28-3.15,5.47,5.47,0,0,0,.24-1.64Z"/>
      <path d="M1094.75,472h3.08v24.86h-3.08Z"/>
      <path d="M1104.73,489c.07,4.16,2.73,5.88,5.81,5.88a11.16,11.16,0,0,0,4.69-.88l.52,2.21a13.69,13.69,0,0,1-5.63,1.05c-5.22,0-8.33-3.43-8.33-8.54s3-9.14,7.94-9.14c5.53,0,7,4.87,7,8a10.69,10.69,0,0,1-.11,1.44Zm9-2.21c0-2-.81-5-4.27-5-3.12,0-4.48,2.88-4.73,5Z"/>
      <path d="M1127.55,493.72a8.12,8.12,0,0,0,4.06,1.22c2.24,0,3.29-1.12,3.29-2.52s-.88-2.27-3.15-3.11c-3-1.09-4.48-2.77-4.48-4.8,0-2.73,2.2-5,5.84-5a8.48,8.48,0,0,1,4.17,1l-.77,2.24a6.61,6.61,0,0,0-3.47-1c-1.82,0-2.83,1-2.83,2.31s1,2,3.22,2.87c2.94,1.12,4.44,2.59,4.44,5.11,0,3-2.31,5.08-6.33,5.08a9.65,9.65,0,0,1-4.76-1.16Z"/>
      <path d="M1157.16,488.26c0,6.26-4.34,9-8.44,9-4.58,0-8.12-3.36-8.12-8.71,0-5.67,3.71-9,8.4-9C1153.87,479.54,1157.16,483.08,1157.16,488.26Zm-13.44.17c0,3.71,2.13,6.51,5.14,6.51s5.15-2.76,5.15-6.58c0-2.87-1.44-6.51-5.08-6.51S1143.72,485.21,1143.72,488.43Z"/>
      <path d="M1161,484.51c0-1.75,0-3.19-.14-4.58h2.7l.14,2.73h.1a5.85,5.85,0,0,1,5.32-3.12,5,5,0,0,1,4.8,3.4h.07a6.94,6.94,0,0,1,1.89-2.21,5.76,5.76,0,0,1,3.74-1.19c2.24,0,5.57,1.47,5.57,7.35v10h-3v-9.59c0-3.26-1.19-5.22-3.68-5.22a4,4,0,0,0-3.64,2.8,5.08,5.08,0,0,0-.24,1.54v10.47h-3V486.72c0-2.7-1.19-4.66-3.54-4.66a4.21,4.21,0,0,0-3.81,3.08,4.17,4.17,0,0,0-.25,1.51v10.22h-3Z"/>
      <path d="M1197.65,485.46c0-2.17-.07-3.93-.14-5.53h2.77l.14,2.9h.07a6.66,6.66,0,0,1,6-3.29c4.09,0,7.17,3.47,7.17,8.61,0,6.09-3.71,9.1-7.7,9.1a5.93,5.93,0,0,1-5.21-2.66h-.07v9.21h-3Zm3,4.51a6.84,6.84,0,0,0,.14,1.26,4.75,4.75,0,0,0,4.62,3.61c3.25,0,5.14-2.66,5.14-6.55,0-3.39-1.78-6.3-5-6.3a4.91,4.91,0,0,0-4.65,3.82,4.75,4.75,0,0,0-.21,1.26Z"/>
      <path d="M1227,496.87l-.25-2.14h-.1a6.32,6.32,0,0,1-5.18,2.52,4.82,4.82,0,0,1-5.18-4.86c0-4.1,3.64-6.34,10.18-6.3v-.35c0-1.4-.38-3.92-3.85-3.92a8.45,8.45,0,0,0-4.41,1.26l-.7-2a10.52,10.52,0,0,1,5.57-1.51c5.18,0,6.44,3.54,6.44,6.93v6.34a23.89,23.89,0,0,0,.28,4.06Zm-.46-8.65c-3.36-.07-7.17.53-7.17,3.82a2.73,2.73,0,0,0,2.9,2.94,4.21,4.21,0,0,0,4.1-2.84,3.31,3.31,0,0,0,.17-1Z"/>
      <path d="M1234,493.72a8.12,8.12,0,0,0,4.06,1.22c2.24,0,3.29-1.12,3.29-2.52s-.88-2.27-3.15-3.11c-3-1.09-4.48-2.77-4.48-4.8,0-2.73,2.2-5,5.84-5a8.48,8.48,0,0,1,4.17,1l-.77,2.24a6.61,6.61,0,0,0-3.47-1c-1.82,0-2.83,1-2.83,2.31s1,2,3.22,2.87c2.94,1.12,4.44,2.59,4.44,5.11,0,3-2.31,5.08-6.33,5.08a9.65,9.65,0,0,1-4.76-1.16Z"/>
      <path d="M1247.88,493.72a8.12,8.12,0,0,0,4.06,1.22c2.24,0,3.29-1.12,3.29-2.52s-.88-2.27-3.15-3.11c-3-1.09-4.48-2.77-4.48-4.8,0-2.73,2.2-5,5.84-5a8.48,8.48,0,0,1,4.17,1l-.77,2.24a6.61,6.61,0,0,0-3.47-1c-1.82,0-2.83,1-2.83,2.31s1,2,3.22,2.87c2.94,1.12,4.44,2.59,4.44,5.11,0,3-2.31,5.08-6.33,5.08a9.65,9.65,0,0,1-4.76-1.16Z"/>
      <path d="M1263.87,489c.07,4.16,2.73,5.88,5.81,5.88a11.09,11.09,0,0,0,4.69-.88l.53,2.21a13.75,13.75,0,0,1-5.64,1.05c-5.21,0-8.33-3.43-8.33-8.54s3-9.14,8-9.14c5.53,0,7,4.87,7,8a10.69,10.69,0,0,1-.11,1.44Zm9-2.21c0-2-.8-5-4.27-5-3.11,0-4.48,2.88-4.72,5Z"/>
      <path d="M1279.69,485.21c0-2,0-3.71-.14-5.28h2.7l.1,3.32h.14a5.09,5.09,0,0,1,4.69-3.71,3,3,0,0,1,.88.11v2.9a4.68,4.68,0,0,0-1-.1c-2.17,0-3.71,1.64-4.13,3.95a8.68,8.68,0,0,0-.14,1.44v9h-3Z"/>
      <path d="M1292.5,489c.07,4.16,2.73,5.88,5.81,5.88A11.09,11.09,0,0,0,1303,494l.53,2.21a13.75,13.75,0,0,1-5.64,1.05c-5.21,0-8.33-3.43-8.33-8.54s3-9.14,8-9.14c5.53,0,7,4.87,7,8a10.69,10.69,0,0,1-.11,1.44Zm9-2.21c0-2-.8-5-4.27-5-3.11,0-4.48,2.88-4.72,5Z"/>
      <path d="M1308.32,485.21c0-2,0-3.71-.14-5.28h2.7l.1,3.32h.14a5.09,5.09,0,0,1,4.69-3.71,3,3,0,0,1,.88.11v2.9a4.68,4.68,0,0,0-1-.1c-2.17,0-3.71,1.64-4.13,3.95a8.68,8.68,0,0,0-.14,1.44v9h-3Z"/>
      <path d="M1327.19,485.46c0-2.17-.07-3.93-.15-5.53h2.77l.14,2.9h.07a6.68,6.68,0,0,1,6-3.29c4.1,0,7.18,3.47,7.18,8.61,0,6.09-3.71,9.1-7.7,9.1a6,6,0,0,1-5.22-2.66h-.07v9.21h-3Zm3,4.51a6.84,6.84,0,0,0,.14,1.26,4.76,4.76,0,0,0,4.62,3.61c3.26,0,5.15-2.66,5.15-6.55,0-3.39-1.79-6.3-5-6.3a4.93,4.93,0,0,0-4.66,3.82,5.19,5.19,0,0,0-.21,1.26Z"/>
      <path d="M1347.1,485.21c0-2,0-3.71-.14-5.28h2.7l.1,3.32h.14a5.09,5.09,0,0,1,4.69-3.71,3,3,0,0,1,.88.11v2.9a4.68,4.68,0,0,0-1-.1c-2.17,0-3.71,1.64-4.13,3.95a8.68,8.68,0,0,0-.14,1.44v9h-3.05Z"/>
      <path d="M1370.17,488.71c-.11,4,2.2,6.16,5.39,6.16a9.81,9.81,0,0,0,4.62-1l.56,2.17a12,12,0,0,1-5.57,1.19c-2.87,0-5.46-1.36-6.44-3.74h-.07a6.62,6.62,0,0,1-6.3,3.74c-3.53,0-5.29-2.38-5.29-4.83,0-3.92,3.64-6.19,10.23-6.12v-.7a3.76,3.76,0,0,0-4-3.78,8.24,8.24,0,0,0-4.34,1.29l-.74-2a10.83,10.83,0,0,1,5.29-1.54c3,0,4.76,1.44,5.46,3.61h.07a6.45,6.45,0,0,1,5.92-3.61c5.18,0,6.61,5,6.61,7.81a7.2,7.2,0,0,1-.1,1.36Zm-2.84-.35c-3.25-.07-7.21.49-7.21,3.82a2.74,2.74,0,0,0,2.94,2.8,4.15,4.15,0,0,0,4.1-2.91,3.53,3.53,0,0,0,.17-1.22Zm11.31-1.85c.1-1.72-.84-4.77-4-4.77s-4.44,2.84-4.55,4.77Z"/>
      <path d="M1385.43,485.21c0-2,0-3.71-.14-5.28H1388l.11,3.32h.14a5.08,5.08,0,0,1,4.69-3.71,2.92,2.92,0,0,1,.87.11v2.9a4.62,4.62,0,0,0-1-.1c-2.17,0-3.71,1.64-4.13,3.95a8.68,8.68,0,0,0-.14,1.44v9h-3Z"/>
      <path d="M1400.44,475.16a1.91,1.91,0,0,1-3.82,0,1.88,1.88,0,0,1,1.93-1.92A1.82,1.82,0,0,1,1400.44,475.16ZM1397,496.87V479.93h3.08v16.94Z"/>
      <path d="M1406.92,489c.07,4.16,2.73,5.88,5.81,5.88a11.16,11.16,0,0,0,4.69-.88l.52,2.21a13.69,13.69,0,0,1-5.63,1.05c-5.22,0-8.34-3.43-8.34-8.54s3-9.14,8-9.14c5.53,0,7,4.87,7,8a13.18,13.18,0,0,1-.1,1.44Zm9-2.21c0-2-.81-5-4.27-5-3.12,0-4.48,2.88-4.73,5Z"/>
      <path d="M1422.73,472h3.08v10.58h.07a5.72,5.72,0,0,1,2.21-2.18,6.37,6.37,0,0,1,3.15-.87c2.27,0,5.92,1.4,5.92,7.25v10.08h-3.08v-9.73c0-2.73-1-5-3.93-5a4.43,4.43,0,0,0-4.13,3.08,3.81,3.81,0,0,0-.21,1.47v10.22h-3.08Z"/>
      <path d="M1456.33,492.25c0,1.75,0,3.29.15,4.62h-2.73l-.18-2.77h-.07a6.36,6.36,0,0,1-5.6,3.15c-2.66,0-5.85-1.47-5.85-7.42v-9.9h3.08v9.38c0,3.22,1,5.39,3.78,5.39a4.33,4.33,0,0,0,4.34-4.38V479.93h3.08Z"/>
      <path d="M1461.44,484.51c0-1.75,0-3.19-.14-4.58H1464l.18,2.8h.07a6.23,6.23,0,0,1,5.6-3.19c2.34,0,6,1.4,6,7.21v10.12h-3.08V487.1c0-2.73-1-5-3.93-5a4.52,4.52,0,0,0-4.34,4.58v10.19h-3.08Z"/>
      <path d="M1495.5,472v20.48c0,1.51,0,3.22.14,4.38h-2.76l-.14-2.94h-.07a6.28,6.28,0,0,1-5.78,3.32c-4.1,0-7.25-3.46-7.25-8.61,0-5.63,3.47-9.1,7.6-9.1a5.67,5.67,0,0,1,5.11,2.59h.07V472Zm-3.08,14.81a5.66,5.66,0,0,0-.14-1.29,4.53,4.53,0,0,0-4.45-3.57c-3.18,0-5.07,2.8-5.07,6.54,0,3.43,1.68,6.27,5,6.27a4.64,4.64,0,0,0,4.52-3.68,5.6,5.6,0,0,0,.14-1.33Z"/>
      <path d="M1502.32,489c.07,4.16,2.73,5.88,5.81,5.88a11.09,11.09,0,0,0,4.69-.88l.53,2.21a13.75,13.75,0,0,1-5.64,1.05c-5.21,0-8.33-3.43-8.33-8.54s3-9.14,7.95-9.14c5.53,0,7,4.87,7,8a10.69,10.69,0,0,1-.11,1.44Zm9-2.21c0-2-.8-5-4.27-5-3.11,0-4.48,2.88-4.72,5Z"/>
      <path d="M1518.14,484.51c0-1.75,0-3.19-.14-4.58h2.73l.18,2.8h.07a6.23,6.23,0,0,1,5.6-3.19c2.34,0,6,1.4,6,7.21v10.12h-3.08V487.1c0-2.73-1-5-3.92-5a4.52,4.52,0,0,0-4.34,4.58v10.19h-3.08Z"/>
      <path d="M1536.83,495.05a2.07,2.07,0,0,1,2.1-2.21,2.21,2.21,0,1,1-2.1,2.21Z"/>
    </g>
    <g>
      <path class="cls-8" d="M473.31,592.86l38.78-36c3.65,13.23-8.67,33.39-8.67,33.39l17.34-11.49s8.21,21.44-16.88,29.2l13.23-.91s-1.37,11.14-37.87,4.65C471.49,609.29,464.3,601.24,473.31,592.86Z"/>
      <g>
        <ellipse class="cls-10" cx="500.96" cy="606.62" rx="25.35" ry="14.35"/>
        <circle class="cls-11" cx="458.74" cy="562.62" r="1.16"/>
        <circle class="cls-11" cx="469.21" cy="571.02" r="13.95"/>
        <circle class="cls-12" cx="460.34" cy="567.15" r="3.86"/>
        <circle cx="460.3" cy="567.14" r="2.65"/>
        <ellipse class="cls-13" cx="461.85" cy="566.56" rx="0.32" ry="0.52"/>
        <circle class="cls-12" cx="469.24" cy="567.15" r="3.86"/>
        <circle cx="469.19" cy="567.14" r="2.65"/>
        <ellipse class="cls-13" cx="470.75" cy="566.56" rx="0.32" ry="0.52"/>
        <path class="cls-14" d="M457.58,562.76a3.91,3.91,0,0,1,4.82.28c.51.76,1.16,2.58,3.39,1.41,1.33-.74,2.7-3.42,7.15-2.08s-1.21-1.16-1.21-1.16-2.42-.92-5.74,2c-1.65,1.2-2.6,0-3.57-1-1.73-.76-1.13-.61-3.93-.74A12,12,0,0,0,457.58,562.76Z"/>
        <path class="cls-14" d="M464,563.81s.12-1.09.73-1.25a1.64,1.64,0,0,1,.36.16s-.67.92-.46,1.09S464,563.81,464,563.81Z"/>
        <path class="cls-11" d="M464.76,583.48s-5.19,17.38,12.54,21.57c4.87-2.67,4.73-8.38,4.73-8.38s-10.56-4.48-4.76-14.39C474.08,583.22,464.76,583.48,464.76,583.48Z"/>
        <path class="cls-11" d="M475.67,559s.85-1.7.36-2.19c.86.85,1.47,2.56,1.1,3a5,5,0,0,0,.49-2.55s1.32,2.87.42,3.32a2.78,2.78,0,0,1,3,.21c-1.83-.24-2.19.73-2.19.73Z"/>
        <path class="cls-15" d="M476.26,590.81a14,14,0,0,0,1.71-3.54,19.75,19.75,0,0,0,.7,4.74s3.67-1.24,3.52-2.37c.05,3.15,0,4.73,0,4.73s3.86-.83,5.39,0a4.82,4.82,0,0,0-2.86,2.09s2.08,0,2.86,1.11c.45,1-1.85.8-1.85.8s2.64.63,3,1.27a6,6,0,0,0-2.24,1.59s2.61-1,3.36,3.5c-3.73-1.91-4.48-2.23-4.48-2.23s4.85,3.82,4.11,4.77c-2.24-1.59-3.73-2.54-3.73-2.54s2.24,2.86,1.49,3.81a22.36,22.36,0,0,1-4.19-3.14s3.07,3.78,2.7,6.32a11.26,11.26,0,0,0-4.48-1.9,22.08,22.08,0,0,0,1.78,1.57,25.35,25.35,0,0,1-4.39-2.53s-.37,1-.74,2.23a2.27,2.27,0,0,1-.75-1.59l-.92,4.13a14.49,14.49,0,0,1-2.81-3.5c0-.31,0,1.28-.74,1.59a12.26,12.26,0,0,1-1.87-3.49l-.37,2.22a19.8,19.8,0,0,1-1.12-2.54c.37-.32-1.49-.32-1.49.32a4.9,4.9,0,0,1-.37-1.59l-.75.31s-.75-2.83,0-3.16c-.75.92-1.12-1.29,1.12-3.83,1.86.95,7.08,3.81,7.08,3.81s2,1,3.07-.62c-.17-.67,2.15-1.92,2.15-1.92l-1.34-.78,1.72-2.08H478.3a2.72,2.72,0,0,1,2.24-1.91C479.05,595.19,475.7,592.47,476.26,590.81Z"/>
        <path class="cls-16" d="M464.58,584.18s7,2.48,12.69-1.9c-.8,1.65-.66,1.25-.66,1.25s-.85,1.88-12.09,1.36C464.76,583.49,464.58,584.18,464.58,584.18Z"/>
        <path class="cls-16" d="M480.78,563.22s7.24,10.43-3.49,19.12C479.51,578.93,484.45,574.34,480.78,563.22Z"/>
        <path class="cls-17" d="M467.72,572.33s6.34,4.73-.3,9.67C469.29,582.17,473.89,576.21,467.72,572.33Z"/>
        <path class="cls-16" d="M465.54,568.27s.36,2.33,3.42,2.75a4.17,4.17,0,0,0,3.81-2.32c-.32,1.4-.92,2.91-3.82,2.91C466.4,571.1,465.2,570.08,465.54,568.27Z"/>
        <path class="cls-16" d="M456.69,568.27s.35,2.33,3.41,2.75a4.15,4.15,0,0,0,3.81-2.32c-.31,1.4-.92,2.91-3.82,2.91C457.54,571.1,456.35,570.08,456.69,568.27Z"/>
        <path class="cls-18" d="M463.4,571.72a5.79,5.79,0,0,0-2.6,1.42s0-.06,0-.1a4.41,4.41,0,0,0-5.5-2.93,5.11,5.11,0,0,0-2,1,16.06,16.06,0,0,0-9.75-.5c-6.21,1.53-10.3,6.6-9.13,11.32s0,0,10.79-2.67a18.31,18.31,0,0,1,2.17-.39c-2.2,4.66-7.81,4.67-8.36,6.22-.65,1.8,5.84,4.28,11.67,2.84,4.82-1.19,9.51-4.26,10.74-6.34a5.75,5.75,0,0,0,4.69.85,5.54,5.54,0,1,0-2.66-10.75Z"/>
        <path class="cls-19" d="M439.65,585.13s7.9-2.76,7.87-5.8c1.55.06,9.44.85,11.89-1.07C456.29,581.08,453.53,586.12,439.65,585.13Z"/>
        <ellipse cx="457.63" cy="573.08" rx="1.28" ry="0.71" transform="translate(-144.7 154.7) rotate(-16.61)"/>
        <path class="cls-20" d="M435.34,578.45s2.91-7.79,12.78-7.14C445.47,572,441.09,571.34,435.34,578.45Z"/>
        <path class="cls-21" d="M467.44,572.18a5.45,5.45,0,0,1,2.88,5.77c-.53,2.14-1.7,4-4.26,4.52a7.13,7.13,0,0,0,3.57-4.73A5.94,5.94,0,0,0,467.44,572.18Z"/>
        <path class="cls-21" d="M458.3,579.34s-3.15,5.55-14.21,5.92C448.85,585.21,454.64,585.41,458.3,579.34Z"/>
        <path class="cls-16" d="M477.47,593.58s3.07,2.86,3.07,2.88c-1.21.37-1.59.41-2.24,1.91a21.68,21.68,0,0,1,2.24,0l-1.72,2.08,1.34.78s-2.28,1.11-2.15,1.92c-.58.61-1.75,2.22-6.93-1.48-3-2.13,5.1,3,5.7.6,0,0,1.88-4.22,1.88-5.79A5.09,5.09,0,0,0,477.47,593.58Z"/>
      </g>
      <path class="cls-8" d="M488.6,598.82l38.79-36.05c3.65,13.24-8.67,33.39-8.67,33.39l17.33-11.49s8.22,21.45-16.88,29.2L532.4,613s-1.36,11.14-37.86,4.66C486.78,615.24,479.6,607.19,488.6,598.82Z"/>
    </g>
    <g>
      <g>
        <g>
          <g>
            <path class="cls-10" d="M535.19,692.9l3-9.38a11.85,11.85,0,0,1-2.54,2.25,13.05,13.05,0,0,0,.78-1.79,10.75,10.75,0,0,0,.67-3.46c0,.75-3.26,4.53-3.26,4.53s-.71-.77,0-4.43c-.3,1-4.82,6.65-4.82,6.65a17.33,17.33,0,0,0,1.94-5.61,28.36,28.36,0,0,1-3.63,4.49s2.54-7.13,3.63-11.63c-2.66,4.67-18.55,11.56-26.86,14.91-6.05.47-13.06-2.94-12.26-7.87a13.54,13.54,0,0,0,.69-4.23c0-8.59-8.32-13.79-18.31-15.56-14.79-2.61-26.42,10-28.83,19.63h0s-.05.18-.12.53a23.57,23.57,0,0,0-.58,4.47,52.55,52.55,0,0,0,7.14,29.47c3.18,10.41,17.92,18.29,35.62,18.29,16.23,0,30-6.62,34.59-15.75,1.19-.78,2.62-1.78,4.2-3,7.25-4.87,10.15-18,10.15-18a59.1,59.1,0,0,0,1.82-8.25C538.21,690.27,535.19,692.9,535.19,692.9Z"/>
            <path class="cls-10" d="M533.84,680.62a.44.44,0,0,0,0-.1S533.85,680.58,533.84,680.62Z"/>
          </g>
          <path class="cls-22" d="M468.72,684.76a10.12,10.12,0,0,0-2.93.19h0a9.16,9.16,0,0,0-2.48.9c-5.35,1.78-14.15,4.06-14.15,4.06,2.85,2.5,10.52,3.34,10.52,3.34.8,3.09,4,5.55,7.95,5.85,4.79.36,8.92-2.55,9.22-6.51S473.51,685.12,468.72,684.76Z"/>
          <circle class="cls-13" cx="475.73" cy="678.17" r="7.74"/>
          <circle cx="474.27" cy="678.55" r="6"/>
          <circle class="cls-13" cx="458.45" cy="678.17" r="7.74"/>
          <path class="cls-23" d="M456.11,703.19s1.08,12.24,3.24,13c.72-2.52,1.44-5.76,1.44-5.76s2.52,9.72,4,10.08v-5.74s1.44,7.9,4,8.63c0-1.45.36-1.45.36-1.45s4,4,5.76,4a28,28,0,0,0-1.44-4.33s4,5.41,5.4,5.77c.72-1.08,0-4.92,0-4.92s5,4.2,7.21,4.56C488.16,727,456.11,703.19,456.11,703.19Z"/>
          <path class="cls-10" d="M479.51,663.84s-2.16-3.46-5.22-4a18,18,0,0,1,7.74,3s-.72-2.52-1.08-3.6c2.88,2.88,5.41,5,5.41,5s-.72-4.68-1.44-5.4c2.88.36,6.11,12.56,6.11,12.56l-1.43,1.12Z"/>
          <circle class="cls-13" cx="471.51" cy="676.17" r="0.77"/>
          <circle cx="457.05" cy="678.55" r="6"/>
          <circle class="cls-13" cx="454.29" cy="676.17" r="0.77"/>
          <path class="cls-24" d="M473.79,667.68s7.55-4.56,12.66,6.15C483.91,671.07,481.84,666.3,473.79,667.68Z"/>
          <path class="cls-24" d="M453.56,669.12s3.39-6.06,10.94-1.65C461.72,666.85,458.5,664.81,453.56,669.12Z"/>
          <path class="cls-24" d="M459.68,693.31a16.3,16.3,0,0,0,12.65-5.09C470.63,689.91,464.13,693.31,459.68,693.31Z"/>
          <ellipse cx="466.27" cy="686.98" rx="1.08" ry="0.56" transform="translate(-114.52 93.65) rotate(-10.22)"/>
          <path class="cls-24" d="M471.76,687.35S472,689,473.1,689A12.65,12.65,0,0,1,471.76,687.35Z"/>
        </g>
        <path class="cls-25" d="M474.72,687.35s5.29,4.58-.45,10C479.88,693.67,478.4,689.81,474.72,687.35Z"/>
        <path class="cls-25" d="M516.53,684.18l-12.25,5.18s-8.55,1-12.23-5.46c1.21,2.13,2.19,7.9,12,7.62C509.67,691.36,516.53,684.18,516.53,684.18Z"/>
        <path class="cls-25" d="M486.45,673.83s-4.78-8.26-12.51-6.18C480.69,668.12,486.45,673.83,486.45,673.83Z"/>
        <path class="cls-25" d="M464.29,667.42s-4.06-1.48-6.31-.79a10.13,10.13,0,0,0-4.38,2.44A21.87,21.87,0,0,1,464.29,667.42Z"/>
      </g>
      <path class="cls-8" d="M485.31,698.58l31.63-29.41c3,10.8-7.07,27.24-7.07,27.24L524,687s6.7,17.49-13.77,23.82l10.79-.75s-1.12,9.09-30.89,3.8C483.82,712,478,705.41,485.31,698.58Z"/>
    </g>
  </g>
</svg>
