<svg xmlns="http://www.w3.org/2000/svg" xmlns:xlink="http://www.w3.org/1999/xlink" width="1920" height="1080" viewBox="0 0 1920 1080">
  <defs>
    <style>
      .cls-1 {
        fill: #ffe8cc;
      }

      .cls-2 {
        fill: #f4a04d;
      }

      .cls-3 {
        fill: #7f5029;
      }

      .cls-4 {
        fill: #42210b;
      }

      .cls-5 {
        fill: #efd9c2;
      }

      .cls-6 {
        fill: url(#linear-gradient);
      }

      .cls-7 {
        fill: #009245;
      }

      .cls-8 {
        fill: #4d4d4d;
      }

      .cls-9 {
        fill: #007f39;
      }

      .cls-10 {
        fill: #a39989;
      }

      .cls-11 {
        fill: #fffcf0;
      }

      .cls-12 {
        fill: #775131;
      }

      .cls-13 {
        fill: #603813;
      }

      .cls-14 {
        fill: #666;
      }

      .cls-15 {
        fill: #f7931e;
      }

      .cls-16 {
        fill: #fff;
      }

      .cls-17 {
        fill: #999;
      }

      .cls-18 {
        fill: gray;
      }

      .cls-19 {
        fill: #515151;
      }

      .cls-20 {
        fill: #e5bdc5;
      }

      .cls-21 {
        fill: #cea5b2;
      }

      .cls-22 {
        fill: #f9f9f9;
      }

      .cls-23 {
        fill: #ad7d8e;
      }

      .cls-24 {
        fill: #e0b1be;
      }

      .cls-25 {
        fill: #fbb03b;
      }

      .cls-26 {
        fill: #bf4b54;
      }

      .cls-27 {
        fill: #f9c98a;
      }

      .cls-28 {
        fill: #f4a54e;
      }

      .cls-29 {
        fill: #e6e6e6;
      }
    </style>
    <linearGradient id="linear-gradient" x1="989.04" y1="634.79" x2="989.04" y2="1106.79" gradientUnits="userSpaceOnUse">
      <stop offset="0" stop-color="#c7a47d"/>
      <stop offset="1" stop-color="#b38652"/>
    </linearGradient>
  </defs>
  <g id="info">
    <rect class="cls-1" x="-158.46" y="-83.21" width="2146" height="1223"/>
    <circle class="cls-2" cx="198.54" cy="257.79" r="341"/>
    <rect class="cls-3" x="-25.46" y="291" width="181.38" height="451.72"/>
    <rect class="cls-3" x="1750.81" y="170.22" width="190.18" height="473.65"/>
    <rect class="cls-3" x="99.78" y="329.01" width="198.65" height="451.72"/>
    <polygon class="cls-3" points="1948.75 659 1662.96 683.72 1683.27 214.87 1889.96 189.01 1948.75 659"/>
    <polygon class="cls-3" points="1750.42 755.9 1464.62 780.62 1484.94 311.77 1691.62 285.92 1750.42 755.9"/>
    <polygon class="cls-4" points="476.36 862.78 298.43 780.73 287.58 392.81 479.13 445.47 476.36 862.78"/>
    <polygon class="cls-4" points="1683.27 497.68 1683.27 214.87 1710.98 214.87 1683.27 497.68"/>
    <polygon class="cls-4" points="127.86 561.92 127.86 292.21 154.29 292.21 127.86 561.92"/>
    <polygon class="cls-4" points="1577.84 652.93 1683.27 652.93 1688.81 370.44 1626.89 373.52 1615.74 393.41 1600.71 384.27 1545.22 407.05 1577.84 652.93"/>
    <polygon class="cls-4" points="1508.69 439.66 1508.69 310.61 1527.75 310.61 1508.69 439.66"/>
    <polygon class="cls-4" points="1514.2 652.93 1503.07 652.93 1514.2 480.26 1514.2 652.93"/>
    <polygon class="cls-4" points="1766.48 488.61 1750.42 488.61 1750.42 206.47 1766.48 488.61"/>
    <polygon class="cls-4" points="43.75 623.45 32.37 623.45 32.37 423.69 43.75 623.45"/>
    <polygon class="cls-4" points="1904.76 662.8 1770.02 662.8 1750.42 488.61 1904.76 456.22 1904.76 662.8"/>
    <polygon class="cls-4" points="1866.18 352.82 1827.59 170.22 1904.76 170.22 1866.18 352.82"/>
    <ellipse class="cls-5" cx="1103.73" cy="501.36" rx="60.71" ry="22.74"/>
    <ellipse class="cls-5" cx="744.12" cy="352.2" rx="60.71" ry="22.74"/>
    <ellipse class="cls-5" cx="1173.39" cy="493.19" rx="58.57" ry="21.94"/>
    <polygon class="cls-3" points="1194.27 652.93 1475.2 652.93 1480.18 421.61 1194.27 456.22 1194.27 652.93"/>
    <polygon class="cls-4" points="1464.62 553.13 1464.62 424.08 1483.68 424.08 1464.62 553.13"/>
    <polygon class="cls-4" points="1414.74 652.93 1194.27 652.93 1194.27 580.6 1444.36 545.26 1414.74 652.93"/>
    <ellipse class="cls-5" cx="833.83" cy="131.11" rx="82" ry="30.71"/>
    <ellipse class="cls-5" cx="672.91" cy="358.16" rx="84.16" ry="18.03"/>
    <ellipse class="cls-5" cx="927.92" cy="120.07" rx="79.12" ry="29.63"/>
    <ellipse class="cls-5" cx="1459.16" cy="170.22" rx="66.31" ry="24.58"/>
    <ellipse class="cls-5" cx="1546.97" cy="170.22" rx="66.31" ry="24.58"/>
    <rect class="cls-6" x="-59.46" y="634.79" width="2097" height="472"/>
    <g>
      <path class="cls-7" d="M118.88,661.58c0,32.68-5.28,32.87-13.71,32.87s-16.83-.19-16.83-32.87,6.84-59.16,15.27-59.16S118.88,628.91,118.88,661.58Z"/>
      <polygon class="cls-8" points="111.74 664.24 109.96 663.62 112.63 655.92 111.74 664.24"/>
      <polygon class="cls-8" points="107.94 620.29 107.41 618.48 115.24 616.2 107.94 620.29"/>
      <polygon class="cls-8" points="98.06 673.79 96.89 675.28 90.47 670.27 98.06 673.79"/>
      <polygon class="cls-8" points="93.87 639.13 92.71 640.62 86.28 635.61 93.87 639.13"/>
    </g>
    <g>
      <path class="cls-7" d="M1496.31,580.62c0,3.61-3.32,6.53-15.65,6.53s-13.15-2.92-13.15-6.53.81-6.52,13.15-6.52S1496.31,577,1496.31,580.62Z"/>
      <path class="cls-7" d="M1491.51,585.81c-3.61,0-6.53-3.06-6.53-14.4s2.92-12.1,6.53-12.1,6.53.75,6.53,12.1S1495.12,585.81,1491.51,585.81Z"/>
      <path class="cls-7" d="M1472.5,603.16c0,41.29-7.34,45.82-16.56,45.82s-16.85-4.53-16.85-45.82,7.48-70.54,16.71-70.54S1472.5,561.87,1472.5,603.16Z"/>
      <path class="cls-9" d="M1456,649c9.22,0,16.84-4.53,16.84-45.82s-7.48-70.54-16.7-70.54C1475.9,584.85,1475.14,627.09,1456,649Z"/>
      <path class="cls-9" d="M1471.55,575.05s10.55-1.44,13.43-.81c1.35,3.7-11.69,5.83-13,5.15A24.57,24.57,0,0,0,1471.55,575.05Z"/>
      <polygon class="cls-8" points="1465.9 551.02 1465.56 549.85 1470.59 548.39 1465.9 551.02"/>
      <polygon class="cls-8" points="1464.75 607.08 1464.41 605.92 1469.44 604.46 1464.75 607.08"/>
      <polygon class="cls-8" points="1477.94 576.19 1476.8 575.79 1478.51 570.84 1477.94 576.19"/>
      <polygon class="cls-8" points="1495.85 570.22 1495.51 569.05 1500.54 567.59 1495.85 570.22"/>
      <polygon class="cls-8" points="1451.48 581.94 1450.73 582.9 1446.61 579.68 1451.48 581.94"/>
      <polygon class="cls-8" points="1441.74 620.47 1441.42 621.64 1436.37 620.26 1441.74 620.47"/>
      <polygon class="cls-8" points="1451.48 537.01 1450.73 537.97 1446.61 534.75 1451.48 537.01"/>
    </g>
    <g>
      <path class="cls-7" d="M1419.78,624.23c0,32.67-5.28,32.86-13.71,32.86s-16.83-.19-16.83-32.86,6.83-59.16,15.27-59.16S1419.78,591.55,1419.78,624.23Z"/>
      <polygon class="cls-8" points="1412.64 626.88 1410.86 626.26 1413.53 618.56 1412.64 626.88"/>
      <polygon class="cls-8" points="1408.84 582.94 1408.31 581.12 1416.14 578.85 1408.84 582.94"/>
      <polygon class="cls-8" points="1398.95 636.44 1397.79 637.92 1391.37 632.91 1398.95 636.44"/>
      <polygon class="cls-8" points="1394.77 601.78 1393.61 603.27 1387.18 598.25 1394.77 601.78"/>
    </g>
    <g>
      <path class="cls-7" d="M456.08,579.91c0,5.25-4.83,9.51-22.78,9.51s-19.14-4.26-19.14-9.51,1.18-9.5,19.14-9.5S456.08,574.66,456.08,579.91Z"/>
      <path class="cls-7" d="M449.1,587.46c-5.25,0-9.51-4.45-9.51-21s4.26-17.61,9.51-17.61,9.5,1.09,9.5,17.61S454.35,587.46,449.1,587.46Z"/>
      <path class="cls-7" d="M421.42,612.72c0,60.1-10.68,66.7-24.11,66.7s-24.52-6.6-24.52-66.7S383.68,510,397.11,510,421.42,552.61,421.42,612.72Z"/>
      <path class="cls-9" d="M397.39,679.42c13.43,0,24.51-6.6,24.51-66.7S411,510,397.59,510C426.38,586.06,425.26,647.56,397.39,679.42Z"/>
      <path class="cls-9" d="M420,571.8s15.36-2.1,19.55-1.19c2,5.39-17,8.5-19,7.5A37.13,37.13,0,0,0,420,571.8Z"/>
      <polygon class="cls-8" points="411.81 536.81 411.32 535.12 418.64 532.99 411.81 536.81"/>
      <polygon class="cls-8" points="410.13 618.43 409.64 616.74 416.96 614.61 410.13 618.43"/>
      <polygon class="cls-8" points="429.34 573.45 427.67 572.87 430.18 565.67 429.34 573.45"/>
      <polygon class="cls-8" points="455.42 564.76 454.92 563.07 462.24 560.94 455.42 564.76"/>
      <polygon class="cls-8" points="390.82 581.83 389.74 583.22 383.72 578.53 390.82 581.83"/>
      <polygon class="cls-8" points="376.65 637.92 376.18 639.62 368.83 637.61 376.65 637.92"/>
      <polygon class="cls-8" points="390.82 516.42 389.74 517.82 383.72 513.13 390.82 516.42"/>
    </g>
  </g>
  <g id="info2">
    <polygon class="cls-10" points="1241.74 89.61 654.46 89.61 652.44 121.45 614.62 89.61 580.28 89.61 580.28 593.64 595.19 613.82 580.28 613.82 580.28 971.01 940.73 971.01 940.73 950.21 956.09 971.01 1241.74 971.01 1241.74 906.83 1216.06 885.72 1241.74 854.49 1241.74 497.76 1214.83 505.78 1241.74 469.99 1241.74 89.61"/>
    <polygon class="cls-11" points="1239.11 85.56 651.84 85.56 649.81 117.4 612 85.56 577.66 85.56 577.66 589.6 592.57 609.78 577.66 609.78 577.66 966.96 938.1 966.96 938.1 946.17 953.46 966.96 1239.11 966.96 1239.11 902.78 1213.44 881.68 1239.11 850.45 1239.11 493.71 1212.2 501.74 1239.11 465.95 1239.11 85.56"/>
    <rect x="669.75" y="534.72" width="492.1" height="8.36"/>
    <rect x="669.75" y="611.94" width="492.1" height="8.36"/>
    <rect x="669.75" y="244.42" width="492.1" height="8.36"/>
    <rect x="662.59" y="115.23" width="214.98" height="8.36"/>
    <rect x="945.24" y="115.23" width="214.98" height="8.36"/>
    <rect class="cls-12" x="1468.51" y="764.56" width="59.02" height="321.4"/>
    <polygon class="cls-13" points="1485.95 1088.2 1474.52 1088.2 1474.52 928.75 1485.95 1088.2"/>
    <polygon class="cls-13" points="1505.78 769 1511.49 769 1511.49 869.29 1505.78 769"/>
    <polygon class="cls-13" points="1499.46 878.61 1496.6 878.61 1496.6 978.89 1499.46 878.61"/>
  </g>
  <g id="info3">
    <g>
      <path d="M691.8,566.56a2.29,2.29,0,0,0-1.52.61,2.44,2.44,0,0,0-.76,1.48v22.19a2.47,2.47,0,0,0,.76,1.49,2.11,2.11,0,0,0,1.52.61h.05v7.22h-9.46v-7.22h.06a2.09,2.09,0,0,0,1.51-.61,2.21,2.21,0,0,0,.73-1.46v-9.49h-6.17v9.43a2.31,2.31,0,0,0,.73,1.49,2.39,2.39,0,0,0,1.54.61h.06v7.22h-9.47v-7.22h.06a2.28,2.28,0,0,0,2.24-2.1V568.6a2.18,2.18,0,0,0-.72-1.46,2.13,2.13,0,0,0-1.52-.61h-.06v-8.24h9.47v8.24h-.06a2.13,2.13,0,0,0-1.52.61,2.35,2.35,0,0,0-.75,1.46v8h6.17v-8a2.31,2.31,0,0,0-.73-1.48,2.27,2.27,0,0,0-1.51-.61h-.06v-8.24h9.46v8.24Z"/>
      <path d="M711.6,558.41v8.24h-.06a2.24,2.24,0,0,0-1.55.64,2.28,2.28,0,0,0-.75,1.45v2.1l0-.06v24.37a4.94,4.94,0,0,1-1.34,3.5,4.27,4.27,0,0,1-3.26,1.45h-3.59q-4.86.35-6.37-1.75c-.78-1.06-1.16-3.23-1.14-6.49v-.17h0v-8.91h5v4a7.62,7.62,0,0,0,.18,2.13c.35,1.4,1,2.1,2.09,2.1h1.37q1.51,0,2-2.1a6.67,6.67,0,0,0,.23-2.13V571.45c0-.43,0-.83,0-1.22v-1.34a2.38,2.38,0,0,0-.69-1.55,2.27,2.27,0,0,0-1.58-.69h-.08v-8.24Z"/>
      <path d="M730.87,558.43h9v0H743V573.9h-5.42v-2.57q-.43-4.89-2.85-4.89h-2.86v10.4h6.7v4.48h-6.7v9.49H734a5,5,0,0,0,2.36-.43c1-.57,1.57-1.71,1.57-3.44l0-4.11h5v17.33H724.79V593h.05a2.23,2.23,0,0,0,1.52-.64,2.34,2.34,0,0,0,.76-1.46v-9l-.06-.29-4.31,0-2,9.32a1.9,1.9,0,0,0,.43,1.49,1.47,1.47,0,0,0,1,.61v7.19h-9.46V593h.44a3,3,0,0,0,1.66-.61,3.2,3.2,0,0,0,1-1.49l4.69-22.16a1.76,1.76,0,0,0-.41-1.48,1.68,1.68,0,0,0-1.31-.61v-8.21h12Zm-4.37,18.46-1.13-5.44-1.17,5.44Z"/>
      <path d="M763.13,582.66v17.5H744.82v-7.28h.06a2.3,2.3,0,0,0,2.27-2.1V576.87h0v-8a2.35,2.35,0,0,0-2.27-2.22h-.09v-8.29h9.58v8.29h-.06a2.14,2.14,0,0,0-1.54.62,2.17,2.17,0,0,0-.7,1.63l0,13.74h0v9.84h3.17c1.05,0,1.72-.7,2-2.09a7.17,7.17,0,0,0,.12-2.07v-5.68Z"/>
      <path d="M783.14,574.22a6.31,6.31,0,0,1-.61,3.64c-1.13,2.4-3.52,3.61-7.17,3.61h-3.23v9.4a2.3,2.3,0,0,0,2.24,2.1h.09v7.19H765V593H765a2.3,2.3,0,0,0,2.24-2.1v-9.4h0l0-12.76a2.32,2.32,0,0,0-.76-1.45,2.23,2.23,0,0,0-1.51-.64h-.06v-8.21h10.42a7.34,7.34,0,0,1,3.91.69c2.58,1.21,3.87,3.67,3.87,7.4Zm-11,3.49q3.52,0,4.75-2a3.13,3.13,0,0,0,.49-2v-2.33a3.14,3.14,0,0,0-2.59-3.29,7.23,7.23,0,0,0-2.65-.32Z"/>
      <path d="M808.56,574.22a6.31,6.31,0,0,1-.61,3.64c-1.13,2.4-3.52,3.61-7.17,3.61h-3.23v9.4a2.3,2.3,0,0,0,2.24,2.1h.09v7.19h-9.49V593h.06a2.3,2.3,0,0,0,2.24-2.1v-9.4h0l0-12.76a2.32,2.32,0,0,0-.76-1.45,2.23,2.23,0,0,0-1.51-.64h-.06v-8.21h10.42a7.34,7.34,0,0,1,3.91.69c2.58,1.21,3.87,3.67,3.87,7.4Zm-11,3.49q3.53,0,4.75-2a3.13,3.13,0,0,0,.49-2v-2.33a3.14,3.14,0,0,0-2.59-3.29,7.23,7.23,0,0,0-2.65-.32Z"/>
      <path d="M832.35,594.25a5.91,5.91,0,0,1,.09.93,4.9,4.9,0,0,1-1.17,3.58,4.35,4.35,0,0,1-6,.38,4.64,4.64,0,0,1-1.63-2.74,25.36,25.36,0,0,1-.93-6.34c0-.45,0-1.36,0-2.74a11.43,11.43,0,0,0-.12-2.24c-.29-1.48-1.38-2.67-3.26-3.59-.6,0-1.25-.09-2-.11v9.37a2.28,2.28,0,0,0,.73,1.46,2.31,2.31,0,0,0,1.54.61h.06v7.34h-9.43v-7.34h.05a2.29,2.29,0,0,0,1.52-.61,2.24,2.24,0,0,0,.73-1.46v-9.37h0V568.71a2.19,2.19,0,0,0-.73-1.45,2.11,2.11,0,0,0-1.52-.61h-.05v-8.19h10.36a7.39,7.39,0,0,1,3.88.7c2.58,1.21,3.87,3.65,3.87,7.34v7.69a6.81,6.81,0,0,1-.44,2.88,6,6,0,0,1-4.43,4q4.14,2.16,4.4,8.33a.66.66,0,0,0,.38.49,1.22,1.22,0,0,0,.79.15c.71-.1,1-.72.93-1.87.37,0,.81.64,1.34,1.9A11.52,11.52,0,0,1,832.35,594.25Zm-15-16.6q3.52,0,4.72-2a3,3,0,0,0,.49-1.95v-2.3a3.13,3.13,0,0,0-2.56-3.29,7.26,7.26,0,0,0-2.65-.32Z"/>
      <path d="M852.12,558.43h9v0h3.11V573.9h-5.41v-2.57c-.29-3.26-1.25-4.89-2.86-4.89h-2.85v10.4h6.7v4.48h-6.7v9.49h2.18a4.9,4.9,0,0,0,2.36-.43c1-.57,1.57-1.71,1.57-3.44l0-4.11h5v17.33H846V593h.06a2.25,2.25,0,0,0,1.52-.64,2.38,2.38,0,0,0,.75-1.46v-9l-.06-.29-4.3,0-2,9.32a1.9,1.9,0,0,0,.43,1.49,1.47,1.47,0,0,0,1,.61v7.19H834V593h.43a3,3,0,0,0,1.66-.61,3.15,3.15,0,0,0,1-1.49l4.69-22.16a1.76,1.76,0,0,0-.41-1.48,1.7,1.7,0,0,0-1.31-.61v-8.21h12Zm-4.37,18.46-1.13-5.44-1.17,5.44Z"/>
      <path d="M888.14,594.25a5.14,5.14,0,0,1,.08.93,4.85,4.85,0,0,1-1.16,3.58,4.35,4.35,0,0,1-6,.38,4.64,4.64,0,0,1-1.63-2.74,25.36,25.36,0,0,1-.93-6.34c0-.45,0-1.36,0-2.74a11.43,11.43,0,0,0-.12-2.24c-.29-1.48-1.38-2.67-3.26-3.59-.6,0-1.25-.09-1.95-.11v9.37a2.28,2.28,0,0,0,.73,1.46,2.31,2.31,0,0,0,1.54.61h.06v7.34H866.1v-7.34h0a2.29,2.29,0,0,0,1.52-.61,2.24,2.24,0,0,0,.73-1.46v-9.37h0V568.71a2.23,2.23,0,0,0-.73-1.45,2.11,2.11,0,0,0-1.52-.61h0v-8.19h10.36a7.34,7.34,0,0,1,3.87.7c2.59,1.21,3.88,3.65,3.88,7.34v7.69a6.81,6.81,0,0,1-.44,2.88,6,6,0,0,1-4.43,4q4.14,2.16,4.4,8.33a.66.66,0,0,0,.38.49,1.22,1.22,0,0,0,.79.15c.71-.1,1-.72.93-1.87.37,0,.81.64,1.34,1.9A11.52,11.52,0,0,1,888.14,594.25Zm-15-16.6q3.52,0,4.72-2a3,3,0,0,0,.49-1.95v-2.3a3.13,3.13,0,0,0-2.56-3.29,7.26,7.26,0,0,0-2.65-.32Z"/>
      <path d="M899.14,566.53a2.14,2.14,0,0,0-1.54.61,2.31,2.31,0,0,0-.73,1.49v22.21a2.3,2.3,0,0,0,2.27,2.1h.06v7.22h-9.52v-7.22h.06a2.36,2.36,0,0,0,2.27-2.1V568.63a2.25,2.25,0,0,0-.76-1.49,2.09,2.09,0,0,0-1.51-.61h-.06v-8.24h9.52v8.24Z"/>
      <path d="M919.06,558.43V573.9h-5.42v-2.57q-.43-4.89-2.85-4.89h-2.85v10.4h6.69v4.48h-6.69v9.49h2.18a4.9,4.9,0,0,0,2.36-.43c1-.57,1.57-1.71,1.57-3.44l0-4.11h5v17.33H900.89V593H901a2.21,2.21,0,0,0,1.51-.64,2.34,2.34,0,0,0,.76-1.46V568.71a2.14,2.14,0,0,0-.76-1.45,2.09,2.09,0,0,0-1.51-.61h-.06v-8.22h15.05v0h3.12Z"/>
      <path d="M941.57,566.56a2.31,2.31,0,0,0-1.52.61,2.49,2.49,0,0,0-.75,1.48v22.19a2.51,2.51,0,0,0,.75,1.49,2.13,2.13,0,0,0,1.52.61h.06v7.22h-9.47v-7.22h.06a2.13,2.13,0,0,0,1.52-.61,2.2,2.2,0,0,0,.72-1.46v-9.49h-6.17v9.43a2.31,2.31,0,0,0,.73,1.49,2.41,2.41,0,0,0,1.54.61h.06v7.22h-9.46v-7.22h.06a2.3,2.3,0,0,0,2.24-2.1V568.6a2.19,2.19,0,0,0-.73-1.46,2.11,2.11,0,0,0-1.51-.61h-.06v-8.24h9.46v8.24h-.06a2.09,2.09,0,0,0-1.51.61,2.32,2.32,0,0,0-.76,1.46v8h6.17v-8a2.28,2.28,0,0,0-2.24-2.09h-.06v-8.24h9.47v8.24Z"/>
      <path d="M963.79,558.46v8.62h-.06a2.12,2.12,0,0,0-1.52.64,2.38,2.38,0,0,0-.72,1.55v22.94a7.92,7.92,0,0,1-15.84.23h0v-23.2a2.43,2.43,0,0,0-.73-1.55,2.22,2.22,0,0,0-1.52-.67h0v-8.59h9.46V567h-.06a2.25,2.25,0,0,0-1.51.64,2.63,2.63,0,0,0-.76,1.55V584.9h0v2.74a3.07,3.07,0,0,0,.9,2.21,3.1,3.1,0,0,0,4.37,0,3.07,3.07,0,0,0,.9-2.21V569.27a2.43,2.43,0,0,0-.75-1.55,2.12,2.12,0,0,0-1.52-.64h-.06v-8.62Z"/>
      <path d="M988.94,600a9.14,9.14,0,0,1-4.54-.32q-4.57-1.43-4.57-6.93V571.54a2.37,2.37,0,0,0-.87-1.78,3,3,0,0,0-2-.73,3,3,0,0,0-2,.73,2.29,2.29,0,0,0-.85,1.78v19.21a2.12,2.12,0,0,0,.85,1.2,2.68,2.68,0,0,0,1.69.61h.09v7.57h-10.6v-7.57h0a2.79,2.79,0,0,0,1.72-.61,2.22,2.22,0,0,0,.82-1.43V568.65a2.2,2.2,0,0,0-.82-1.42,2.57,2.57,0,0,0-1.72-.61h0v-8.1h10.6v1.37q3.48-2.94,6.23-.54a8.17,8.17,0,0,1,2.76,6.39l0,23.59a3.63,3.63,0,0,0,.24,1.8,2.92,2.92,0,0,0,3,1.78Z"/>
      <path d="M1011.6,592.91a6.48,6.48,0,0,1-.76,3.61c-1.24,2.43-3.72,3.64-7.42,3.64H991.07v-7.22h.06a2.11,2.11,0,0,0,1.51-.61,2.34,2.34,0,0,0,.76-1.46V568.65a2.14,2.14,0,0,0-.76-1.45,2.23,2.23,0,0,0-1.51-.64h-.06v-8.21h12.35a8.55,8.55,0,0,1,4.1.9q4.08,1.92,4.08,7.19Zm-7.4-1.89c1,0,1.68-.8,1.95-2.39a8,8,0,0,0,.12-2.39V573c0-1.84-.34-3.07-1-3.7a1.32,1.32,0,0,0-1-.35h-5.85v22Z"/>
      <path d="M1031.66,558.43V573.9h-5.42v-2.57q-.43-4.89-2.85-4.89h-2.85v10.4h6.69v4.48h-6.69v9.49h2.18a4.93,4.93,0,0,0,2.36-.43c1.05-.57,1.57-1.71,1.57-3.44l0-4.11h5v17.33h-18.17V593h.06a2.21,2.21,0,0,0,1.51-.64,2.34,2.34,0,0,0,.76-1.46V568.71a2.14,2.14,0,0,0-.76-1.45,2.09,2.09,0,0,0-1.51-.61h-.06v-8.22h15v0h3.12Z"/>
      <path d="M1056.58,600a9.14,9.14,0,0,1-4.54-.32c-3-1-4.57-3.26-4.57-6.93V571.54a2.37,2.37,0,0,0-.87-1.78,3,3,0,0,0-2-.73,3,3,0,0,0-2,.73,2.28,2.28,0,0,0-.84,1.78v19.21a2.05,2.05,0,0,0,.84,1.2,2.68,2.68,0,0,0,1.69.61h.09v7.57h-10.6v-7.57h.06a2.76,2.76,0,0,0,1.71-.61,2.22,2.22,0,0,0,.82-1.43V568.65a2.2,2.2,0,0,0-.82-1.42,2.54,2.54,0,0,0-1.71-.61h-.06v-8.1h10.6v1.37c2.33-2,4.4-2.14,6.23-.54a8.17,8.17,0,0,1,2.76,6.39l0,23.59a3.63,3.63,0,0,0,.24,1.8,2.92,2.92,0,0,0,3,1.78Z"/>
      <path d="M1084.65,566.56a2.29,2.29,0,0,0-1.51.61,2.44,2.44,0,0,0-.76,1.48v22.19a2.47,2.47,0,0,0,.76,1.49,2.11,2.11,0,0,0,1.51.61h.06v7.22h-9.46v-7.22h.06a2.11,2.11,0,0,0,1.51-.61,2.21,2.21,0,0,0,.73-1.46v-9.49h-6.17v9.43a2.34,2.34,0,0,0,.72,1.49,2.43,2.43,0,0,0,1.55.61h.06v7.22h-9.47v-7.22h.06a2.28,2.28,0,0,0,2.24-2.1V568.6a2.18,2.18,0,0,0-.72-1.46,2.13,2.13,0,0,0-1.52-.61h-.06v-8.24h9.47v8.24h-.06a2.13,2.13,0,0,0-1.52.61,2.31,2.31,0,0,0-.75,1.46v8h6.17v-8a2.3,2.3,0,0,0-2.24-2.09h-.06v-8.24h9.46v8.24Z"/>
      <path d="M1104.45,558.41v8.24h0a2.22,2.22,0,0,0-1.55.64,2.28,2.28,0,0,0-.75,1.45v2.1l0-.06v24.37a4.93,4.93,0,0,1-1.33,3.5,4.28,4.28,0,0,1-3.27,1.45h-3.58q-4.86.35-6.37-1.75c-.78-1.06-1.16-3.23-1.14-6.49v-.17h0v-8.91h5v4a7.62,7.62,0,0,0,.18,2.13c.34,1.4,1,2.1,2.09,2.1H1095q1.51,0,2-2.1a6.67,6.67,0,0,0,.23-2.13V571.45c0-.43,0-.83,0-1.22v-1.34a2.35,2.35,0,0,0-.7-1.55,2.23,2.23,0,0,0-1.57-.69h-.09v-8.24Z"/>
      <path d="M1123.82,558.43V573.9h-5.42v-2.57q-.44-4.89-2.85-4.89h-2.85v10.4h6.69v4.48h-6.69v9.49h2.18a4.93,4.93,0,0,0,2.36-.43c1-.57,1.57-1.71,1.57-3.44l0-4.11h5v17.33h-18.17V593h.06a2.23,2.23,0,0,0,1.51-.64,2.34,2.34,0,0,0,.76-1.46V568.71a2.14,2.14,0,0,0-.76-1.45,2.11,2.11,0,0,0-1.51-.61h-.06v-8.22h15v0h3.12Z"/>
      <path d="M1157.48,593v7.16H1148V593h0a2.39,2.39,0,0,0,1.55-.64,2.47,2.47,0,0,0,.72-1.55V570.87a3.07,3.07,0,0,0-3.11-3.09,3.09,3.09,0,0,0-3.09,3.09v19.88a2.31,2.31,0,0,0,.76,1.55,2.17,2.17,0,0,0,1.51.67h.06v7.16h0v0h-9.49V593h0v0h.06a2.22,2.22,0,0,0,1.8-1,2.44,2.44,0,0,0,.44-1.2V570.87a3.07,3.07,0,0,0-3.12-3.09,3.11,3.11,0,0,0-3.05,2.8v20.23a2.35,2.35,0,0,0,.72,1.52,2.25,2.25,0,0,0,1.52.64h.06v7.16h-9.5V593h.06a2.28,2.28,0,0,0,1.55-.67,2.32,2.32,0,0,0,.72-1.52V568.6a2.22,2.22,0,0,0-.72-1.4,2.28,2.28,0,0,0-1.49-.61h-.09v-8.21h9.5l.72,0a7.74,7.74,0,0,1,5.57,2.24,7.91,7.91,0,0,1,11.06,0,7.67,7.67,0,0,1,2.39,5.47l0,.15v.14l0,24.43a2.63,2.63,0,0,0,.76,1.55,2.25,2.25,0,0,0,1.51.64Z"/>
    </g>
    <g>
      <path d="M1053.31,873.94v3.39h-9.76v-3.39Z"/>
      <path d="M1065.78,860.19V883a4.49,4.49,0,0,0,.61,2.43,1.57,1.57,0,0,0,.72.57,1.85,1.85,0,0,1,.39.06l.37.11v5.2h-8.95V886l.47-.09c.16,0,.34-.07.55-.13a1.91,1.91,0,0,0,.45-.52,4.37,4.37,0,0,0,.55-2.43V868.94c0-1.92-.67-2.84-2-2.74v-3.54a7.21,7.21,0,0,0,3.7-2.47Z"/>
      <path d="M1087.1,872a4.63,4.63,0,0,1-.46,2.72q-1.26,2.7-5.34,2.7h-2.41v7a1.68,1.68,0,0,0,.54,1.11,1.74,1.74,0,0,0,1.13.46h.06v5.37h-7.08V886h0a1.74,1.74,0,0,0,1.68-1.57v-7h0l0-9.52a1.74,1.74,0,0,0-.57-1.09,1.71,1.71,0,0,0-1.13-.48h0v-6.12h7.78a5.38,5.38,0,0,1,2.91.52c1.93.9,2.89,2.73,2.89,5.52Zm-8.24,2.61c1.76,0,2.94-.51,3.55-1.5a2.37,2.37,0,0,0,.37-1.45V869.9a2.36,2.36,0,0,0-1.94-2.46,5.55,5.55,0,0,0-2-.24Z"/>
      <path d="M1098.57,860.16a3.41,3.41,0,0,1,2.46,1,3.32,3.32,0,0,1,1,2.41v24.36a3.32,3.32,0,0,1-1,2.42,3.41,3.41,0,0,1-2.46,1h-6.73a3.35,3.35,0,0,1-2.44-1,3.26,3.26,0,0,1-1-2.42V863.57a3.26,3.26,0,0,1,1-2.41,3.35,3.35,0,0,1,2.44-1Zm-1,8.13a2.87,2.87,0,0,0-.37-1.48,1.14,1.14,0,0,0-.94-.61h-2.21a1.09,1.09,0,0,0-.92.61,2.7,2.7,0,0,0-.39,1.48v14.93a2.7,2.7,0,0,0,.39,1.48,1.07,1.07,0,0,0,.92.6h2.21a1.13,1.13,0,0,0,.94-.6,2.87,2.87,0,0,0,.37-1.48Z"/>
      <path d="M1110.74,866.25a1.62,1.62,0,0,0-1.15.45,1.73,1.73,0,0,0-.54,1.11v16.58a1.68,1.68,0,0,0,.54,1.11,1.77,1.77,0,0,0,1.15.46h0v5.39h-7.11V886h0a1.74,1.74,0,0,0,1.13-.46,1.63,1.63,0,0,0,.57-1.11V867.81a1.67,1.67,0,0,0-.57-1.11,1.59,1.59,0,0,0-1.13-.45h0V860.1h7.11v6.15Z"/>
      <path d="M1129.1,891.24a7,7,0,0,1-3.39-.24c-2.27-.71-3.41-2.44-3.41-5.17V870a1.73,1.73,0,0,0-.65-1.33,2.16,2.16,0,0,0-1.5-.54,2.26,2.26,0,0,0-1.52.54A1.68,1.68,0,0,0,1118,870v14.34a1.61,1.61,0,0,0,.63.89,2,2,0,0,0,1.26.45h.07v5.65h-7.91v-5.65h0a2.05,2.05,0,0,0,1.28-.45,1.66,1.66,0,0,0,.61-1.07V867.83a1.64,1.64,0,0,0-.61-1.06,1.9,1.9,0,0,0-1.28-.46h0v-6H1120v1q2.6-2.19,4.65-.4a6.1,6.1,0,0,1,2.06,4.77l0,17.6a2.75,2.75,0,0,0,.17,1.35,2.19,2.19,0,0,0,2.26,1.32Z"/>
      <path d="M1134.66,867.16a1.89,1.89,0,0,0-.39-.59,1.5,1.5,0,0,0-1-.6,1.56,1.56,0,0,0-1,.6,2.08,2.08,0,0,0-.54,1.46v3.65h-3.18V860.19h16.06v11.49h-3.15V868h0a2,2,0,0,0-.56-1.46,1.5,1.5,0,0,0-1-.6,1.49,1.49,0,0,0-1,.6,1.89,1.89,0,0,0-.39.59l0,17.23a1.68,1.68,0,0,0,.54,1.11,1.77,1.77,0,0,0,1.15.46h0v5.39h-7.11V886h0a1.71,1.71,0,0,0,1.13-.46,1.63,1.63,0,0,0,.57-1.11Z"/>
    </g>
    <g>
      <path d="M662,667.72v7.61h8.8v-7.61h2.37v18.19h-2.37v-8.53H662v8.53h-2.35V667.72Z"/>
      <path d="M674.18,689.69a3.83,3.83,0,0,0,2.6-1c.64-.75.89-1.78.89-4.91V672.85H680V684.7c0,2.54-.4,4.18-1.56,5.37a6.06,6.06,0,0,1-4.05,1.49Zm6.13-20.51a1.39,1.39,0,0,1-1.48,1.46,1.42,1.42,0,0,1-1.46-1.46,1.46,1.46,0,0,1,1.51-1.49A1.4,1.4,0,0,1,680.31,669.18Z"/>
      <path d="M693,679.62c-.08,3.11,1.7,4.75,4.15,4.75a7.65,7.65,0,0,0,3.57-.75l.43,1.67a9.25,9.25,0,0,1-4.29.92,5.17,5.17,0,0,1-5-2.89h0a5.11,5.11,0,0,1-4.86,2.89,3.73,3.73,0,0,1-4.08-3.72c0-3,2.81-4.78,7.88-4.73v-.54a2.88,2.88,0,0,0-3-2.91,6.34,6.34,0,0,0-3.34,1l-.57-1.57a8.27,8.27,0,0,1,4.08-1.19c2.34,0,3.67,1.11,4.21,2.78h.05a5,5,0,0,1,4.56-2.78c4,0,5.1,3.86,5.1,6a5,5,0,0,1-.08,1Zm-2.19-.27c-2.51-.05-5.56.38-5.56,2.95a2.12,2.12,0,0,0,2.27,2.16,3.21,3.21,0,0,0,3.16-2.24,3,3,0,0,0,.13-1Zm8.72-1.43c.08-1.32-.65-3.67-3-3.67s-3.43,2.19-3.51,3.67Z"/>
      <path d="M704.8,666.75h2.38v19.16H704.8Z"/>
      <path d="M711.17,677.11c0-1.67,0-3-.11-4.26h2.14l.11,2.24h.05a5.14,5.14,0,0,1,4.64-2.54c3.16,0,5.54,2.67,5.54,6.64,0,4.7-2.87,7-5.94,7a4.58,4.58,0,0,1-4-2.05h-.06v7.1h-2.35Zm2.35,3.49a5.75,5.75,0,0,0,.11,1,3.67,3.67,0,0,0,3.56,2.78c2.51,0,4-2.05,4-5.05,0-2.62-1.38-4.86-3.89-4.86a3.79,3.79,0,0,0-3.59,2.94,3.94,3.94,0,0,0-.16,1Z"/>
      <path d="M732.26,677.11c0-1.67,0-3-.11-4.26h2.13l.11,2.24h.06a5.14,5.14,0,0,1,4.64-2.54c3.16,0,5.53,2.67,5.53,6.64,0,4.7-2.86,7-5.94,7a4.6,4.6,0,0,1-4-2.05h0v7.1h-2.35Zm2.35,3.49a4.88,4.88,0,0,0,.11,1,3.67,3.67,0,0,0,3.56,2.78c2.51,0,4-2.05,4-5.05,0-2.62-1.38-4.86-3.89-4.86a3.79,3.79,0,0,0-3.59,2.94,3.94,3.94,0,0,0-.16,1Z"/>
      <path d="M747.62,676.93c0-1.54,0-2.87-.11-4.08h2.08l.08,2.56h.11a3.94,3.94,0,0,1,3.62-2.86,2.67,2.67,0,0,1,.67.08v2.24a3.76,3.76,0,0,0-.81-.08,3.33,3.33,0,0,0-3.18,3.05A6.13,6.13,0,0,0,750,679v7h-2.35Z"/>
      <path d="M765.41,679.62c-.08,3.11,1.7,4.75,4.16,4.75a7.6,7.6,0,0,0,3.56-.75l.43,1.67a9.22,9.22,0,0,1-4.29.92,5.15,5.15,0,0,1-5-2.89h-.06a5.1,5.1,0,0,1-4.86,2.89,3.73,3.73,0,0,1-4.07-3.72c0-3,2.8-4.78,7.88-4.73v-.54a2.89,2.89,0,0,0-3.05-2.91,6.38,6.38,0,0,0-3.35,1l-.56-1.57a8.27,8.27,0,0,1,4.07-1.19c2.35,0,3.67,1.11,4.21,2.78h.06a5,5,0,0,1,4.56-2.78c4,0,5.1,3.86,5.1,6a5.82,5.82,0,0,1-.08,1Zm-2.18-.27c-2.51-.05-5.56.38-5.56,2.95a2.11,2.11,0,0,0,2.26,2.16,3.21,3.21,0,0,0,3.16-2.24,2.74,2.74,0,0,0,.14-1Zm8.71-1.43c.09-1.32-.64-3.67-3-3.67s-3.43,2.19-3.51,3.67Z"/>
      <path d="M777.19,676.93c0-1.54,0-2.87-.11-4.08h2.08l.08,2.56h.11a3.91,3.91,0,0,1,3.61-2.86,2.82,2.82,0,0,1,.68.08v2.24a3.83,3.83,0,0,0-.81-.08,3.35,3.35,0,0,0-3.19,3.05,7.26,7.26,0,0,0-.1,1.11v7h-2.35Z"/>
      <path d="M788.77,669.18a1.47,1.47,0,0,1-2.94,0,1.45,1.45,0,0,1,1.48-1.49A1.41,1.41,0,0,1,788.77,669.18Zm-2.65,16.73V672.85h2.38v13.06Z"/>
      <path d="M793.76,679.81c.06,3.22,2.11,4.54,4.49,4.54a8.51,8.51,0,0,0,3.61-.68l.41,1.7a10.58,10.58,0,0,1-4.35.81c-4,0-6.42-2.64-6.42-6.58s2.32-7.05,6.12-7.05c4.27,0,5.4,3.75,5.4,6.16a8.35,8.35,0,0,1-.08,1.1Zm7-1.7c0-1.51-.62-3.86-3.29-3.86-2.41,0-3.46,2.22-3.65,3.86Z"/>
      <path d="M806,666.75h2.37v8.15h.06a4.4,4.4,0,0,1,1.7-1.67,4.84,4.84,0,0,1,2.43-.68c1.75,0,4.56,1.08,4.56,5.59v7.77h-2.38v-7.5c0-2.11-.78-3.89-3-3.89a3.4,3.4,0,0,0-3.18,2.38,2.75,2.75,0,0,0-.17,1.13v7.88H806Z"/>
      <path d="M831.89,682.35c0,1.35,0,2.54.1,3.56h-2.1l-.14-2.13h0a4.92,4.92,0,0,1-4.32,2.43c-2,0-4.51-1.13-4.51-5.72v-7.64h2.38v7.23c0,2.49.75,4.16,2.91,4.16a3.43,3.43,0,0,0,3.13-2.16,3.34,3.34,0,0,0,.22-1.21v-8h2.38Z"/>
      <path d="M835.83,676.39c0-1.35,0-2.46-.11-3.54h2.11L838,675H838a4.8,4.8,0,0,1,4.32-2.46c1.8,0,4.61,1.08,4.61,5.56v7.8h-2.37v-7.53c0-2.1-.79-3.86-3-3.86a3.48,3.48,0,0,0-3.34,3.54v7.85h-2.38Z"/>
      <path d="M862.1,666.75v15.79c0,1.16,0,2.48.11,3.37h-2.14l-.1-2.26h-.06a4.84,4.84,0,0,1-4.45,2.56c-3.16,0-5.59-2.67-5.59-6.64,0-4.35,2.67-7,5.86-7a4.37,4.37,0,0,1,3.94,2h.05v-7.8Zm-2.38,11.42a3.74,3.74,0,0,0-.11-1,3.49,3.49,0,0,0-3.42-2.76c-2.46,0-3.92,2.16-3.92,5.05,0,2.65,1.3,4.83,3.86,4.83a3.56,3.56,0,0,0,3.48-2.83,3.74,3.74,0,0,0,.11-1Z"/>
      <path d="M867.37,679.81c0,3.22,2.1,4.54,4.48,4.54a8.51,8.51,0,0,0,3.61-.68l.41,1.7a10.58,10.58,0,0,1-4.35.81c-4,0-6.42-2.64-6.42-6.58s2.32-7.05,6.13-7.05c4.26,0,5.39,3.75,5.39,6.16a8.35,8.35,0,0,1-.08,1.1Zm7-1.7c0-1.51-.62-3.86-3.29-3.86-2.41,0-3.46,2.22-3.65,3.86Z"/>
      <path d="M879.57,676.39c0-1.35,0-2.46-.11-3.54h2.11l.13,2.16h.06a4.8,4.8,0,0,1,4.31-2.46c1.81,0,4.62,1.08,4.62,5.56v7.8h-2.37v-7.53c0-2.1-.79-3.86-3-3.86a3.51,3.51,0,0,0-3.35,3.54v7.85h-2.37Z"/>
      <path d="M900,683.48a6.27,6.27,0,0,0,3.14.95c1.72,0,2.53-.86,2.53-1.94s-.67-1.76-2.43-2.41c-2.34-.83-3.45-2.13-3.45-3.69,0-2.11,1.7-3.84,4.51-3.84a6.54,6.54,0,0,1,3.21.81l-.6,1.73a5.08,5.08,0,0,0-2.67-.76c-1.4,0-2.18.81-2.18,1.79s.78,1.56,2.48,2.21c2.27.86,3.43,2,3.43,3.94,0,2.29-1.78,3.91-4.89,3.91a7.45,7.45,0,0,1-3.67-.89Z"/>
      <path d="M913.62,669.18a1.48,1.48,0,0,1-3,0,1.45,1.45,0,0,1,1.49-1.49A1.41,1.41,0,0,1,913.62,669.18ZM911,685.91V672.85h2.38v13.06Z"/>
      <path d="M919.64,678.84h.05c.32-.46.78-1,1.16-1.48l3.83-4.51h2.87l-5,5.37,5.75,7.69h-2.89l-4.51-6.26L919.64,681v4.91h-2.35V666.75h2.35Z"/>
      <path d="M932.76,678.84h0c.33-.46.79-1,1.16-1.48l3.84-4.51h2.86l-5,5.37,5.75,7.69h-2.89L934,679.65,932.76,681v4.91h-2.35V666.75h2.35Z"/>
      <path d="M944.4,679.81c.05,3.22,2.1,4.54,4.48,4.54a8.51,8.51,0,0,0,3.61-.68l.41,1.7a10.58,10.58,0,0,1-4.35.81c-4,0-6.42-2.64-6.42-6.58s2.32-7.05,6.13-7.05c4.26,0,5.39,3.75,5.39,6.16a8.35,8.35,0,0,1-.08,1.1Zm7-1.7c0-1.51-.62-3.86-3.29-3.86-2.41,0-3.46,2.22-3.65,3.86Z"/>
      <path d="M956.6,676.93c0-1.54,0-2.87-.11-4.08h2.08l.08,2.56h.11a3.92,3.92,0,0,1,3.62-2.86,2.73,2.73,0,0,1,.67.08v2.24a3.76,3.76,0,0,0-.81-.08,3.33,3.33,0,0,0-3.18,3.05A6.13,6.13,0,0,0,959,679v7H956.6Z"/>
      <path d="M968.94,669.1v3.75h3.4v1.81h-3.4v7c0,1.62.46,2.54,1.78,2.54a5.4,5.4,0,0,0,1.38-.16l.1,1.78a5.73,5.73,0,0,1-2.1.32,3.33,3.33,0,0,1-2.57-1,4.9,4.9,0,0,1-.91-3.41v-7.12h-2v-1.81h2v-3.13Z"/>
      <path d="M980.74,666.75h2.37v8.15h.06a4.34,4.34,0,0,1,1.7-1.67,4.84,4.84,0,0,1,2.43-.68c1.75,0,4.56,1.08,4.56,5.59v7.77h-2.38v-7.5c0-2.11-.78-3.89-3-3.89a3.42,3.42,0,0,0-3.19,2.38,2.94,2.94,0,0,0-.16,1.13v7.88h-2.37Z"/>
      <path d="M992.54,689.69a3.8,3.8,0,0,0,2.59-1c.65-.75.89-1.78.89-4.91V672.85h2.37V684.7c0,2.54-.4,4.18-1.56,5.37a6,6,0,0,1-4.05,1.49Zm6.12-20.51a1.39,1.39,0,0,1-1.48,1.46,1.42,1.42,0,0,1-1.46-1.46,1.46,1.46,0,0,1,1.51-1.49A1.4,1.4,0,0,1,998.66,669.18Z"/>
      <path d="M1003.61,679.81c0,3.22,2.1,4.54,4.48,4.54a8.51,8.51,0,0,0,3.61-.68l.41,1.7a10.58,10.58,0,0,1-4.35.81c-4,0-6.42-2.64-6.42-6.58s2.32-7.05,6.13-7.05c4.26,0,5.39,3.75,5.39,6.16a8.35,8.35,0,0,1-.08,1.1Zm7-1.7c0-1.51-.62-3.86-3.29-3.86-2.41,0-3.46,2.22-3.65,3.86Z"/>
      <path d="M1015.81,676.39c0-1.35,0-2.46-.11-3.54h2.08l.11,2.1h.08a4.5,4.5,0,0,1,4.1-2.4,3.87,3.87,0,0,1,3.7,2.62h0a5.38,5.38,0,0,1,1.46-1.7,4.48,4.48,0,0,1,2.89-.92c1.73,0,4.29,1.14,4.29,5.67v7.69h-2.32v-7.39c0-2.51-.92-4-2.83-4a3.06,3.06,0,0,0-2.81,2.16,3.79,3.79,0,0,0-.19,1.18v8.07H1024v-7.82c0-2.08-.92-3.59-2.73-3.59a3.24,3.24,0,0,0-2.94,2.37,3.18,3.18,0,0,0-.19,1.16v7.88h-2.32Z"/>
      <path d="M1046.91,669.1v3.75h3.4v1.81h-3.4v7c0,1.62.46,2.54,1.78,2.54a5.34,5.34,0,0,0,1.38-.16l.11,1.78a5.83,5.83,0,0,1-2.11.32,3.32,3.32,0,0,1-2.56-1,4.85,4.85,0,0,1-.92-3.41v-7.12h-2v-1.81h2v-3.13Z"/>
      <path d="M1055.63,669.18a1.4,1.4,0,0,1-1.51,1.46,1.42,1.42,0,0,1-1.43-1.46,1.45,1.45,0,0,1,1.49-1.49A1.41,1.41,0,0,1,1055.63,669.18ZM1053,685.91V672.85h2.37v13.06Z"/>
      <path d="M1059.31,666.75h2.37v19.16h-2.37Z"/>
      <path d="M1071.08,683.48a6.2,6.2,0,0,0,3.13.95c1.73,0,2.54-.86,2.54-1.94s-.68-1.76-2.43-2.41c-2.35-.83-3.46-2.13-3.46-3.69,0-2.11,1.7-3.84,4.51-3.84a6.54,6.54,0,0,1,3.21.81l-.59,1.73a5.14,5.14,0,0,0-2.67-.76c-1.41,0-2.19.81-2.19,1.79s.78,1.56,2.48,2.21c2.27.86,3.43,2,3.43,3.94,0,2.29-1.78,3.91-4.89,3.91a7.45,7.45,0,0,1-3.67-.89Z"/>
      <path d="M1084.74,669.18a1.47,1.47,0,0,1-2.94,0,1.45,1.45,0,0,1,1.48-1.49A1.41,1.41,0,0,1,1084.74,669.18Zm-2.65,16.73V672.85h2.38v13.06Z"/>
      <path d="M1088.41,676.39c0-1.35,0-2.46-.11-3.54h2.11l.13,2.16h.06a4.81,4.81,0,0,1,4.32-2.46c1.8,0,4.61,1.08,4.61,5.56v7.8h-2.37v-7.53c0-2.1-.79-3.86-3-3.86a3.48,3.48,0,0,0-3.34,3.54v7.85h-2.38Z"/>
      <path d="M1109.12,666.75h2.38v8.15h0a4.4,4.4,0,0,1,1.7-1.67,4.84,4.84,0,0,1,2.43-.68c1.75,0,4.56,1.08,4.56,5.59v7.77h-2.37v-7.5c0-2.11-.79-3.89-3-3.89a3.4,3.4,0,0,0-3.18,2.38,2.76,2.76,0,0,0-.16,1.13v7.88h-2.38Z"/>
      <path d="M1135,682.35c0,1.35,0,2.54.1,3.56H1133l-.14-2.13h-.05a4.92,4.92,0,0,1-4.32,2.43c-2,0-4.51-1.13-4.51-5.72v-7.64h2.38v7.23c0,2.49.75,4.16,2.91,4.16a3.45,3.45,0,0,0,3.14-2.16,3.57,3.57,0,0,0,.21-1.21v-8H1135Z"/>
      <path d="M1139,666.75h2.38v19.16H1139Z"/>
      <path d="M1146.68,679.81c0,3.22,2.1,4.54,4.48,4.54a8.51,8.51,0,0,0,3.61-.68l.41,1.7a10.58,10.58,0,0,1-4.35.81c-4,0-6.42-2.64-6.42-6.58s2.32-7.05,6.13-7.05c4.26,0,5.39,3.75,5.39,6.16a8.35,8.35,0,0,1-.08,1.1Zm7-1.7c0-1.51-.62-3.86-3.29-3.86-2.41,0-3.46,2.22-3.65,3.86Z"/>
      <path d="M1158,684.51a1.59,1.59,0,0,1,1.62-1.7,1.7,1.7,0,0,1,0,3.4A1.59,1.59,0,0,1,1158,684.51Z"/>
      <path d="M601.88,700.36a23.25,23.25,0,0,1,4.29-.37c2.35,0,3.86.4,5,1.32a3.8,3.8,0,0,1,1.52,3.21,4.33,4.33,0,0,1-3.08,4v.05a4.68,4.68,0,0,1,3.75,4.56,4.92,4.92,0,0,1-1.54,3.65c-1.27,1.16-3.32,1.7-6.29,1.7a26.85,26.85,0,0,1-3.64-.22Zm2.35,7.45h2.13c2.48,0,3.94-1.29,3.94-3,0-2.13-1.62-3-4-3a10,10,0,0,0-2.08.17Zm0,8.72a12.6,12.6,0,0,0,2,.11c2.43,0,4.67-.89,4.67-3.54,0-2.48-2.13-3.5-4.7-3.5h-1.94Z"/>
      <path d="M617.86,712.21c.06,3.22,2.11,4.54,4.48,4.54a8.56,8.56,0,0,0,3.62-.68l.41,1.7a10.58,10.58,0,0,1-4.35.81c-4,0-6.42-2.64-6.42-6.58s2.32-7,6.12-7c4.27,0,5.4,3.75,5.4,6.16a8.35,8.35,0,0,1-.08,1.1Zm7-1.7c0-1.51-.62-3.86-3.3-3.86-2.4,0-3.45,2.22-3.64,3.86Z"/>
      <path d="M629.74,715.88a6.23,6.23,0,0,0,3.13,1c1.73,0,2.54-.86,2.54-1.94s-.67-1.76-2.43-2.41c-2.35-.83-3.45-2.13-3.45-3.69,0-2.11,1.7-3.84,4.5-3.84a6.56,6.56,0,0,1,3.22.81l-.6,1.73a5.08,5.08,0,0,0-2.67-.76c-1.4,0-2.19.81-2.19,1.79s.79,1.56,2.49,2.21c2.26.86,3.43,2,3.43,3.94,0,2.29-1.79,3.91-4.89,3.91a7.45,7.45,0,0,1-3.67-.89Z"/>
      <path d="M643.11,711.24h0c.32-.46.78-1,1.16-1.48l3.83-4.51H651l-5,5.37,5.75,7.69h-2.89l-4.51-6.26-1.21,1.35v4.91h-2.35V699.15h2.35Z"/>
      <path d="M654.64,705.25,657.5,713c.29.86.62,1.89.83,2.67h.06c.24-.78.51-1.78.83-2.72l2.6-7.67h2.51l-3.57,9.31c-1.7,4.48-2.86,6.78-4.48,8.18a6.42,6.42,0,0,1-2.91,1.54l-.6-2a6.12,6.12,0,0,0,2.08-1.16,7.17,7.17,0,0,0,2-2.64,1.76,1.76,0,0,0,.19-.57,2.31,2.31,0,0,0-.16-.62l-4.84-12Z"/>
      <path d="M669.35,701.5v3.75h3.4v1.81h-3.4v7c0,1.62.46,2.54,1.78,2.54a5.4,5.4,0,0,0,1.38-.16l.11,1.78a5.83,5.83,0,0,1-2.11.32,3.29,3.29,0,0,1-2.56-1,4.85,4.85,0,0,1-.92-3.41v-7.12h-2v-1.81h2v-3.13Z"/>
      <path d="M692.43,699.15v15.79c0,1.16,0,2.48.11,3.37h-2.13l-.11-2.26h0a4.86,4.86,0,0,1-4.46,2.56c-3.16,0-5.59-2.67-5.59-6.64,0-4.35,2.68-7,5.86-7a4.37,4.37,0,0,1,3.94,2h.06v-7.8Zm-2.37,11.42a4.26,4.26,0,0,0-.11-1,3.49,3.49,0,0,0-3.43-2.75c-2.46,0-3.91,2.15-3.91,5,0,2.65,1.29,4.84,3.86,4.84a3.58,3.58,0,0,0,3.48-2.84,4.17,4.17,0,0,0,.11-1Z"/>
      <path d="M697.7,712.21c0,3.22,2.11,4.54,4.48,4.54a8.56,8.56,0,0,0,3.62-.68l.4,1.7a10.48,10.48,0,0,1-4.34.81c-4,0-6.43-2.64-6.43-6.58s2.32-7,6.13-7c4.26,0,5.4,3.75,5.4,6.16a10.58,10.58,0,0,1-.08,1.1Zm7-1.7c0-1.51-.62-3.86-3.29-3.86-2.4,0-3.45,2.22-3.64,3.86Z"/>
      <path d="M709.9,708.79c0-1.35,0-2.46-.1-3.54h2.1l.14,2.16h.05a4.81,4.81,0,0,1,4.32-2.46c1.81,0,4.61,1.08,4.61,5.56v7.8h-2.37v-7.53c0-2.1-.78-3.86-3-3.86a3.48,3.48,0,0,0-3.35,3.54v7.85H709.9Z"/>
      <path d="M730.86,718.31V707.06H729v-1.81h1.84v-.62a6.13,6.13,0,0,1,1.51-4.56,4.52,4.52,0,0,1,3.18-1.22,5.51,5.51,0,0,1,2,.38l-.33,1.84a3.4,3.4,0,0,0-1.51-.3c-2,0-2.54,1.78-2.54,3.78v.7h3.16v1.81H733.2v11.25Z"/>
      <path d="M750,711.67c0,4.84-3.35,6.94-6.51,6.94-3.53,0-6.26-2.59-6.26-6.72,0-4.37,2.86-6.94,6.48-6.94S750,707.68,750,711.67Zm-10.37.14c0,2.86,1.65,5,4,5s4-2.13,4-5.08c0-2.21-1.11-5-3.91-5S739.6,709.33,739.6,711.81Z"/>
      <path d="M753,709.33c0-1.54,0-2.87-.11-4.08h2.08l.08,2.56h.11a3.92,3.92,0,0,1,3.62-2.86,2.73,2.73,0,0,1,.67.08v2.24a3.83,3.83,0,0,0-.81-.08,3.35,3.35,0,0,0-3.19,3,7.38,7.38,0,0,0-.1,1.11v7H753Z"/>
      <path d="M767.52,708.79c0-1.35,0-2.46-.11-3.54h2.08l.11,2.11h.08a4.49,4.49,0,0,1,4.1-2.41,3.87,3.87,0,0,1,3.7,2.62h.06a5.34,5.34,0,0,1,1.45-1.7,4.5,4.5,0,0,1,2.89-.92c1.73,0,4.29,1.14,4.29,5.67v7.69h-2.32v-7.39c0-2.51-.92-4-2.83-4a3.09,3.09,0,0,0-2.81,2.16,3.79,3.79,0,0,0-.19,1.18v8.07H775.7v-7.82c0-2.08-.92-3.59-2.73-3.59a3.24,3.24,0,0,0-2.94,2.37,3.4,3.4,0,0,0-.19,1.16v7.88h-2.32Z"/>
      <path d="M792.68,701.58a1.4,1.4,0,0,1-1.51,1.46,1.42,1.42,0,0,1-1.43-1.46,1.45,1.45,0,0,1,1.49-1.49A1.41,1.41,0,0,1,792.68,701.58ZM790,718.31V705.25h2.37v13.06Z"/>
      <path d="M796.36,708.79c0-1.35,0-2.46-.11-3.54h2.1l.14,2.16h0a4.81,4.81,0,0,1,4.32-2.46c1.81,0,4.62,1.08,4.62,5.56v7.8H805.1v-7.53c0-2.1-.78-3.86-3-3.86a3.39,3.39,0,0,0-3.19,2.43,3.66,3.66,0,0,0-.16,1.11v7.85h-2.37Z"/>
      <path d="M822.62,699.15v15.79c0,1.16,0,2.48.11,3.37H820.6l-.11-2.26h0a4.85,4.85,0,0,1-4.46,2.56c-3.15,0-5.58-2.67-5.58-6.64,0-4.35,2.67-7,5.85-7a4.4,4.4,0,0,1,4,2h0v-7.8Zm-2.37,11.42a4.26,4.26,0,0,0-.11-1,3.49,3.49,0,0,0-3.43-2.75c-2.45,0-3.91,2.15-3.91,5,0,2.65,1.3,4.84,3.86,4.84a3.58,3.58,0,0,0,3.48-2.84,4.17,4.17,0,0,0,.11-1Z"/>
      <path d="M826.25,715.88a6.2,6.2,0,0,0,3.13,1c1.72,0,2.53-.86,2.53-1.94s-.67-1.76-2.43-2.41c-2.34-.83-3.45-2.13-3.45-3.69,0-2.11,1.7-3.84,4.51-3.84a6.54,6.54,0,0,1,3.21.81l-.59,1.73a5.15,5.15,0,0,0-2.68-.76c-1.4,0-2.18.81-2.18,1.79s.78,1.56,2.48,2.21c2.27.86,3.43,2,3.43,3.94,0,2.29-1.78,3.91-4.89,3.91a7.45,7.45,0,0,1-3.67-.89Z"/>
      <path d="M840.12,701.5v3.75h3.4v1.81h-3.4v7c0,1.62.46,2.54,1.78,2.54a5.4,5.4,0,0,0,1.38-.16l.11,1.78a5.83,5.83,0,0,1-2.11.32,3.32,3.32,0,0,1-2.56-1,4.85,4.85,0,0,1-.92-3.41v-7.12h-2v-1.81h2v-3.13Z"/>
      <path d="M854.78,704.09h0l-3,1.54-.59-2.78,4-2.08h3.1v17.54h-3.51Z"/>
      <path d="M871.31,703.85h-4.65l-.4,3.13h.54a5.57,5.57,0,0,1,3.29,1.32,5.35,5.35,0,0,1,1.51,4,5.87,5.87,0,0,1-6.1,6.21,7.81,7.81,0,0,1-3.29-.7l.54-2.81a5.73,5.73,0,0,0,2.51.62,2.71,2.71,0,0,0,2.86-3c0-2.35-1.78-3.14-3.81-3.14a7.73,7.73,0,0,0-1.24.06l1-8.8h7.27Z"/>
      <path d="M892.47,711.67c0,4.84-3.34,6.94-6.5,6.94-3.54,0-6.26-2.59-6.26-6.72,0-4.37,2.86-6.94,6.47-6.94C889.94,705,892.47,707.68,892.47,711.67Zm-10.36.14c0,2.86,1.64,5,4,5s4-2.13,4-5.08c0-2.21-1.1-5-3.91-5S882.11,709.33,882.11,711.81Z"/>
      <path d="M895.47,708.79c0-1.35,0-2.46-.11-3.54h2.11l.13,2.16h.06A4.81,4.81,0,0,1,902,705c1.81,0,4.61,1.08,4.61,5.56v7.8h-2.37v-7.53c0-2.1-.78-3.86-3-3.86a3.48,3.48,0,0,0-3.34,3.54v7.85h-2.38Z"/>
      <path d="M921.74,699.15v15.79c0,1.16,0,2.48.11,3.37h-2.13l-.11-2.26h-.06a4.83,4.83,0,0,1-4.45,2.56c-3.16,0-5.59-2.67-5.59-6.64,0-4.35,2.68-7,5.86-7a4.37,4.37,0,0,1,3.94,2h.05v-7.8Zm-2.38,11.42a4.24,4.24,0,0,0-.1-1,3.49,3.49,0,0,0-3.43-2.75c-2.46,0-3.91,2.15-3.91,5,0,2.65,1.29,4.84,3.85,4.84a3.58,3.58,0,0,0,3.49-2.84,4.19,4.19,0,0,0,.1-1Z"/>
      <path d="M927,712.21c0,3.22,2.1,4.54,4.48,4.54a8.59,8.59,0,0,0,3.62-.68l.4,1.7a10.56,10.56,0,0,1-4.34.81c-4,0-6.43-2.64-6.43-6.58s2.32-7,6.13-7c4.26,0,5.4,3.75,5.4,6.16a10.58,10.58,0,0,1-.08,1.1Zm7-1.7c0-1.51-.62-3.86-3.29-3.86-2.4,0-3.46,2.22-3.64,3.86Z"/>
      <path d="M956.19,705.25c-.05.94-.11,2-.11,3.59v7.58c0,3-.59,4.84-1.86,6a6.91,6.91,0,0,1-4.75,1.57,8.47,8.47,0,0,1-4.35-1.08l.6-1.81a7.34,7.34,0,0,0,3.83,1c2.43,0,4.21-1.27,4.21-4.56v-1.46h0a4.66,4.66,0,0,1-4.16,2.19c-3.24,0-5.56-2.75-5.56-6.37,0-4.43,2.89-6.94,5.89-6.94a4.35,4.35,0,0,1,4.07,2.27H954l.1-2Zm-2.45,5.16a3.29,3.29,0,0,0-.14-1.08,3.41,3.41,0,0,0-3.32-2.51c-2.27,0-3.89,1.91-3.89,4.93,0,2.57,1.3,4.7,3.86,4.7a3.49,3.49,0,0,0,3.3-2.43,4.25,4.25,0,0,0,.19-1.27Z"/>
      <path d="M959.87,709.33c0-1.54,0-2.87-.11-4.08h2.08l.08,2.56H962a3.91,3.91,0,0,1,3.61-2.86,2.82,2.82,0,0,1,.68.08v2.24a3.83,3.83,0,0,0-.81-.08,3.34,3.34,0,0,0-3.19,3,7.32,7.32,0,0,0-.11,1.11v7h-2.34Z"/>
      <path d="M971.45,701.58a1.47,1.47,0,0,1-2.94,0,1.45,1.45,0,0,1,1.48-1.49A1.41,1.41,0,0,1,971.45,701.58Zm-2.65,16.73V705.25h2.38v13.06Z"/>
      <path d="M975,718.31c.06-.89.11-2.21.11-3.37V699.15h2.35v8.21h0A4.88,4.88,0,0,1,982,705c3.24,0,5.53,2.7,5.5,6.67,0,4.67-2.94,7-5.85,7a4.68,4.68,0,0,1-4.38-2.45h-.08l-.1,2.15Zm2.46-5.23a4,4,0,0,0,.11.86,3.66,3.66,0,0,0,3.56,2.78c2.48,0,4-2,4-5,0-2.62-1.35-4.86-3.89-4.86a3.8,3.8,0,0,0-3.62,2.92,5,5,0,0,0-.13,1Z"/>
      <path d="M990.38,718.31c0-.89.1-2.21.1-3.37V699.15h2.35v8.21h.06a4.86,4.86,0,0,1,4.45-2.41c3.24,0,5.53,2.7,5.51,6.67,0,4.67-3,7-5.86,7a4.66,4.66,0,0,1-4.37-2.45h-.08l-.11,2.15Zm2.45-5.23a4.82,4.82,0,0,0,.11.86,3.67,3.67,0,0,0,3.56,2.78c2.49,0,4-2,4-5,0-2.62-1.35-4.86-3.89-4.86a3.78,3.78,0,0,0-3.61,2.92,4.25,4.25,0,0,0-.14,1Z"/>
      <path d="M1007.17,712.21c.05,3.22,2.1,4.54,4.48,4.54a8.56,8.56,0,0,0,3.62-.68l.4,1.7a10.56,10.56,0,0,1-4.34.81c-4,0-6.43-2.64-6.43-6.58s2.32-7,6.13-7c4.26,0,5.4,3.75,5.4,6.16a10.58,10.58,0,0,1-.08,1.1Zm7-1.7c0-1.51-.62-3.86-3.29-3.86-2.4,0-3.46,2.22-3.64,3.86Z"/>
      <path d="M1024.77,715.88a6.26,6.26,0,0,0,3.13,1c1.73,0,2.54-.86,2.54-1.94s-.67-1.76-2.43-2.41c-2.35-.83-3.45-2.13-3.45-3.69,0-2.11,1.7-3.84,4.51-3.84a6.54,6.54,0,0,1,3.21.81l-.6,1.73a5.08,5.08,0,0,0-2.67-.76c-1.4,0-2.18.81-2.18,1.79s.78,1.56,2.48,2.21c2.27.86,3.43,2,3.43,3.94,0,2.29-1.78,3.91-4.89,3.91a7.45,7.45,0,0,1-3.67-.89Z"/>
      <path d="M1047.61,711.67c0,4.84-3.34,6.94-6.5,6.94-3.54,0-6.27-2.59-6.27-6.72,0-4.37,2.87-6.94,6.48-6.94C1045.08,705,1047.61,707.68,1047.61,711.67Zm-10.36.14c0,2.86,1.64,5,4,5s4-2.13,4-5.08c0-2.21-1.1-5-3.91-5S1037.25,709.33,1037.25,711.81Z"/>
      <path d="M1050.61,708.79c0-1.35,0-2.46-.11-3.54h2.08l.11,2.11h.08a4.49,4.49,0,0,1,4.1-2.41,3.85,3.85,0,0,1,3.7,2.62h.06a5.34,5.34,0,0,1,1.45-1.7A4.5,4.5,0,0,1,1065,705c1.73,0,4.29,1.14,4.29,5.67v7.69h-2.32v-7.39c0-2.51-.91-4-2.83-4a3.09,3.09,0,0,0-2.81,2.16,3.79,3.79,0,0,0-.19,1.18v8.07h-2.32v-7.82c0-2.08-.92-3.59-2.73-3.59a3.24,3.24,0,0,0-2.94,2.37,3.4,3.4,0,0,0-.19,1.16v7.88h-2.32Z"/>
      <path d="M1079.77,705.25l2.57,7.34a34.29,34.29,0,0,1,1.05,3.35h.08c.3-1.08.67-2.16,1.11-3.35l2.53-7.34h2.49l-5.13,13.06h-2.27l-5-13.06Z"/>
      <path d="M1094.49,701.58a1.48,1.48,0,0,1-3,0,1.45,1.45,0,0,1,1.49-1.49A1.41,1.41,0,0,1,1094.49,701.58Zm-2.65,16.73V705.25h2.38v13.06Z"/>
      <path d="M1098.16,699.15h2.37v19.16h-2.37Z"/>
      <path d="M1109.93,715.88a6.2,6.2,0,0,0,3.13,1c1.73,0,2.54-.86,2.54-1.94s-.68-1.76-2.43-2.41c-2.35-.83-3.46-2.13-3.46-3.69,0-2.11,1.7-3.84,4.51-3.84a6.51,6.51,0,0,1,3.21.81l-.59,1.73a5.11,5.11,0,0,0-2.67-.76c-1.41,0-2.19.81-2.19,1.79s.78,1.56,2.48,2.21c2.27.86,3.43,2,3.43,3.94,0,2.29-1.78,3.91-4.88,3.91a7.42,7.42,0,0,1-3.67-.89Z"/>
      <path d="M1121,709.51c0-1.67-.06-3-.11-4.26H1123l.11,2.24h.05a5.14,5.14,0,0,1,4.65-2.54c3.15,0,5.53,2.67,5.53,6.64,0,4.7-2.86,7-5.94,7a4.56,4.56,0,0,1-4-2.05h-.06v7.1H1121Zm2.34,3.49a5.75,5.75,0,0,0,.11,1,3.66,3.66,0,0,0,3.57,2.78c2.51,0,4-2,4-5,0-2.62-1.37-4.86-3.88-4.86a3.79,3.79,0,0,0-3.59,2.94,3.94,3.94,0,0,0-.17,1Z"/>
      <path d="M1139,701.58a1.4,1.4,0,0,1-1.51,1.46,1.42,1.42,0,0,1-1.43-1.46,1.45,1.45,0,0,1,1.49-1.49A1.41,1.41,0,0,1,1139,701.58Zm-2.64,16.73V705.25h2.37v13.06Z"/>
      <path d="M1142.3,715.88a6.23,6.23,0,0,0,3.13,1c1.73,0,2.54-.86,2.54-1.94s-.67-1.76-2.43-2.41c-2.35-.83-3.45-2.13-3.45-3.69,0-2.11,1.7-3.84,4.5-3.84a6.56,6.56,0,0,1,3.22.81l-.6,1.73a5.11,5.11,0,0,0-2.67-.76c-1.4,0-2.19.81-2.19,1.79s.79,1.56,2.49,2.21c2.27.86,3.43,2,3.43,3.94,0,2.29-1.79,3.91-4.89,3.91a7.45,7.45,0,0,1-3.67-.89Z"/>
      <path d="M1154.64,712.21c0,3.22,2.11,4.54,4.48,4.54a8.56,8.56,0,0,0,3.62-.68l.4,1.7a10.48,10.48,0,0,1-4.34.81c-4,0-6.43-2.64-6.43-6.58s2.32-7,6.13-7c4.27,0,5.4,3.75,5.4,6.16a8.35,8.35,0,0,1-.08,1.1Zm7-1.7c0-1.51-.62-3.86-3.29-3.86-2.4,0-3.45,2.22-3.64,3.86Z"/>
      <path d="M1183.85,699.15v15.79c0,1.16,0,2.48.11,3.37h-2.13l-.11-2.26h0a4.86,4.86,0,0,1-4.46,2.56c-3.16,0-5.59-2.67-5.59-6.64,0-4.35,2.68-7,5.86-7a4.37,4.37,0,0,1,3.94,2h.06v-7.8Zm-2.37,11.42a4.26,4.26,0,0,0-.11-1,3.49,3.49,0,0,0-3.43-2.75c-2.46,0-3.91,2.15-3.91,5,0,2.65,1.29,4.84,3.86,4.84a3.58,3.58,0,0,0,3.48-2.84,4.17,4.17,0,0,0,.11-1Z"/>
      <path d="M1189.12,712.21c.05,3.22,2.1,4.54,4.48,4.54a8.56,8.56,0,0,0,3.62-.68l.4,1.7a10.52,10.52,0,0,1-4.34.81c-4,0-6.43-2.64-6.43-6.58s2.32-7,6.13-7c4.26,0,5.4,3.75,5.4,6.16a10.58,10.58,0,0,1-.08,1.1Zm7-1.7c0-1.51-.62-3.86-3.29-3.86-2.4,0-3.46,2.22-3.64,3.86Z"/>
      <path d="M1201.32,708.79c0-1.35,0-2.46-.11-3.54h2.11l.14,2.16h0a4.81,4.81,0,0,1,4.32-2.46c1.81,0,4.61,1.08,4.61,5.56v7.8h-2.37v-7.53c0-2.1-.78-3.86-3-3.86a3.48,3.48,0,0,0-3.35,3.54v7.85h-2.38Z"/>
      <path d="M1215.74,716.91a1.6,1.6,0,0,1,1.62-1.7,1.7,1.7,0,0,1,0,3.4A1.59,1.59,0,0,1,1215.74,716.91Z"/>
      <path d="M640.22,732.74a27.11,27.11,0,0,1,4.51-.35,7.48,7.48,0,0,1,5.1,1.51,4.87,4.87,0,0,1,1.59,3.8,5.38,5.38,0,0,1-1.4,3.89,7.57,7.57,0,0,1-5.56,2,8.33,8.33,0,0,1-1.89-.16v7.28h-2.35Zm2.35,8.77a8.09,8.09,0,0,0,1.94.19c2.83,0,4.56-1.38,4.56-3.89s-1.7-3.56-4.29-3.56a9.62,9.62,0,0,0-2.21.19Z"/>
      <path d="M661,750.71l-.19-1.64h-.08a4.87,4.87,0,0,1-4,1.94,3.72,3.72,0,0,1-4-3.75c0-3.16,2.81-4.89,7.86-4.86v-.27a2.69,2.69,0,0,0-3-3,6.44,6.44,0,0,0-3.4,1l-.54-1.57a8.11,8.11,0,0,1,4.29-1.16c4,0,5,2.73,5,5.35v4.88a18.57,18.57,0,0,0,.21,3.13Zm-.35-6.66c-2.59-.06-5.53.4-5.53,2.94a2.1,2.1,0,0,0,2.24,2.27,3.25,3.25,0,0,0,3.16-2.19,2.48,2.48,0,0,0,.13-.76Z"/>
      <path d="M666.49,748.28a6.2,6.2,0,0,0,3.13,1c1.73,0,2.54-.86,2.54-1.94s-.68-1.76-2.43-2.41c-2.35-.83-3.46-2.13-3.46-3.69,0-2.11,1.7-3.84,4.51-3.84a6.54,6.54,0,0,1,3.21.81l-.59,1.73a5.11,5.11,0,0,0-2.67-.76c-1.41,0-2.19.81-2.19,1.78s.78,1.57,2.48,2.22c2.27.86,3.43,2,3.43,3.94,0,2.29-1.78,3.91-4.88,3.91a7.42,7.42,0,0,1-3.67-.89Z"/>
      <path d="M694.51,731.55v15.79c0,1.16,0,2.48.11,3.37h-2.13l-.11-2.26h0a4.86,4.86,0,0,1-4.46,2.56c-3.16,0-5.59-2.67-5.59-6.64,0-4.35,2.68-7,5.86-7a4.37,4.37,0,0,1,3.94,2h.06v-7.8ZM692.14,743a4.2,4.2,0,0,0-.11-1,3.5,3.5,0,0,0-3.43-2.76c-2.46,0-3.91,2.16-3.91,5,0,2.65,1.29,4.83,3.86,4.83a3.57,3.57,0,0,0,3.48-2.83,4.17,4.17,0,0,0,.11-1Z"/>
      <path d="M710.28,744.07c0,4.84-3.35,6.94-6.51,6.94-3.53,0-6.26-2.59-6.26-6.72,0-4.37,2.86-6.94,6.48-6.94S710.28,740.08,710.28,744.07Zm-10.37.14c0,2.86,1.65,5,4,5s4-2.13,4-5.08c0-2.21-1.11-5-3.91-5S699.91,741.73,699.91,744.21Z"/>
      <path d="M724.54,737.65c-.06.94-.11,2-.11,3.59v7.58c0,3-.6,4.84-1.87,6a6.9,6.9,0,0,1-4.75,1.57,8.44,8.44,0,0,1-4.34-1.08l.59-1.81a7.41,7.41,0,0,0,3.84,1c2.42,0,4.21-1.27,4.21-4.56v-1.46h-.06a4.65,4.65,0,0,1-4.15,2.19c-3.24,0-5.57-2.75-5.57-6.37,0-4.43,2.89-6.94,5.89-6.94a4.33,4.33,0,0,1,4.07,2.27h.06l.11-2Zm-2.46,5.15a3.27,3.27,0,0,0-.14-1.07,3.42,3.42,0,0,0-3.32-2.52c-2.26,0-3.88,1.92-3.88,4.94,0,2.57,1.29,4.7,3.86,4.7a3.48,3.48,0,0,0,3.29-2.43,4,4,0,0,0,.19-1.27Z"/>
      <path d="M734.1,741.91c0-1.67-.06-3-.11-4.26h2.13l.11,2.24h0a5.14,5.14,0,0,1,4.65-2.54c3.15,0,5.53,2.67,5.53,6.64,0,4.7-2.86,7-5.94,7a4.58,4.58,0,0,1-4-2h-.06v7.1H734.1Zm2.34,3.49a5.75,5.75,0,0,0,.11,1,3.68,3.68,0,0,0,3.57,2.78c2.51,0,4-2,4-5,0-2.62-1.37-4.86-3.88-4.86a3.78,3.78,0,0,0-3.59,2.94,3.94,3.94,0,0,0-.17,1Z"/>
      <path d="M756.69,750.71l-.19-1.64h-.08a4.87,4.87,0,0,1-4,1.94,3.72,3.72,0,0,1-4-3.75c0-3.16,2.81-4.89,7.86-4.86v-.27a2.69,2.69,0,0,0-3-3,6.44,6.44,0,0,0-3.4,1l-.54-1.57a8.11,8.11,0,0,1,4.29-1.16c4,0,5,2.73,5,5.35v4.88a18.57,18.57,0,0,0,.21,3.13Zm-.35-6.66c-2.59-.06-5.53.4-5.53,2.94a2.1,2.1,0,0,0,2.24,2.27,3.25,3.25,0,0,0,3.16-2.19,2.48,2.48,0,0,0,.13-.76Zm-5.1-10.29A2.54,2.54,0,0,1,754,731.2a2.52,2.52,0,1,1-2.75,2.56Zm4.1,0a1.4,1.4,0,0,0-1.4-1.49,1.38,1.38,0,0,0-1.32,1.54,1.37,1.37,0,1,0,2.72,0Z"/>
      <path d="M775.43,750.71l-.19-1.64h-.08a4.87,4.87,0,0,1-4,1.94,3.72,3.72,0,0,1-4-3.75c0-3.16,2.81-4.89,7.86-4.86v-.27a2.69,2.69,0,0,0-3-3,6.48,6.48,0,0,0-3.41,1l-.53-1.57a8.08,8.08,0,0,1,4.29-1.16c4,0,5,2.73,5,5.35v4.88a18.5,18.5,0,0,0,.22,3.13Zm-.35-6.66c-2.59-.06-5.53.4-5.53,2.94a2.1,2.1,0,0,0,2.24,2.27,3.23,3.23,0,0,0,3.15-2.19,2.22,2.22,0,0,0,.14-.76Z"/>
      <path d="M784,733.9v3.75h3.4v1.81H784v7c0,1.62.46,2.54,1.79,2.54a5.31,5.31,0,0,0,1.37-.16l.11,1.78a5.83,5.83,0,0,1-2.11.32,3.32,3.32,0,0,1-2.56-1,4.9,4.9,0,0,1-.92-3.41v-7.12h-2v-1.81h2v-3.13Z"/>
      <path d="M807.05,731.55v15.79c0,1.16,0,2.48.1,3.37H805l-.11-2.26h0a4.84,4.84,0,0,1-4.45,2.56c-3.16,0-5.59-2.67-5.59-6.64,0-4.35,2.67-7,5.86-7a4.39,4.39,0,0,1,3.94,2h0v-7.8ZM804.67,743a4.2,4.2,0,0,0-.11-1,3.5,3.5,0,0,0-3.43-2.76c-2.45,0-3.91,2.16-3.91,5,0,2.65,1.3,4.83,3.86,4.83a3.57,3.57,0,0,0,3.48-2.83,4.17,4.17,0,0,0,.11-1Z"/>
      <path d="M821.92,747.15c0,1.35,0,2.54.11,3.56h-2.1l-.14-2.13h0a4.92,4.92,0,0,1-4.32,2.43c-2,0-4.51-1.13-4.51-5.72v-7.64h2.37v7.23c0,2.49.76,4.16,2.92,4.16a3.44,3.44,0,0,0,3.13-2.16,3.34,3.34,0,0,0,.22-1.21v-8h2.37Z"/>
      <path d="M834.24,734a1.48,1.48,0,0,1-3,0,1.46,1.46,0,0,1,1.49-1.49A1.41,1.41,0,0,1,834.24,734Zm-2.65,16.73V737.65H834v13.06Z"/>
      <path d="M840.26,743.64h0c.33-.46.78-1,1.16-1.48l3.84-4.51h2.86l-5,5.37,5.75,7.69H846l-4.51-6.26-1.21,1.35v4.91h-2.35V731.55h2.35Z"/>
      <path d="M853.38,743.64h0c.33-.46.79-1,1.16-1.48l3.84-4.51h2.86l-5,5.37,5.75,7.69H859.1l-4.51-6.26-1.21,1.35v4.91H851V731.55h2.35Z"/>
      <path d="M865,744.61c.05,3.21,2.1,4.54,4.48,4.54a8.51,8.51,0,0,0,3.61-.68l.41,1.7a10.58,10.58,0,0,1-4.35.81c-4,0-6.42-2.64-6.42-6.58s2.32-7,6.13-7c4.26,0,5.39,3.75,5.39,6.16a8.35,8.35,0,0,1-.08,1.1Zm7-1.7c0-1.51-.62-3.86-3.29-3.86-2.4,0-3.46,2.22-3.65,3.86Z"/>
      <path d="M882.94,741.73c0-1.54,0-2.87-.1-4.08h2.07l.09,2.56h.1a3.94,3.94,0,0,1,3.62-2.86,2.82,2.82,0,0,1,.68.08v2.24a3.9,3.9,0,0,0-.81-.08,3.33,3.33,0,0,0-3.19,3,7.19,7.19,0,0,0-.11,1.11v7h-2.35Z"/>
      <path d="M898.87,750.71l-.19-1.64h-.08a4.87,4.87,0,0,1-4,1.94,3.72,3.72,0,0,1-4-3.75c0-3.16,2.81-4.89,7.86-4.86v-.27a2.69,2.69,0,0,0-3-3,6.44,6.44,0,0,0-3.4,1l-.54-1.57a8.11,8.11,0,0,1,4.29-1.16c4,0,5,2.73,5,5.35v4.88a18.57,18.57,0,0,0,.21,3.13Zm-.35-6.66c-2.59-.06-5.53.4-5.53,2.94a2.1,2.1,0,0,0,2.24,2.27,3.25,3.25,0,0,0,3.16-2.19,2.48,2.48,0,0,0,.13-.76Z"/>
      <path d="M904.65,741.19c0-1.35,0-2.46-.11-3.54h2.08l.11,2.1h.08a4.5,4.5,0,0,1,4.1-2.4,3.85,3.85,0,0,1,3.7,2.62h.06a5.24,5.24,0,0,1,1.45-1.7,4.5,4.5,0,0,1,2.89-.92c1.73,0,4.29,1.14,4.29,5.67v7.69H921v-7.39c0-2.51-.92-4-2.83-4a3.08,3.08,0,0,0-2.81,2.15,3.9,3.9,0,0,0-.19,1.19v8.07h-2.32v-7.82c0-2.08-.92-3.59-2.73-3.59a3.24,3.24,0,0,0-2.94,2.37,3.4,3.4,0,0,0-.19,1.16v7.88h-2.32Z"/>
      <path d="M927.17,741.19c0-1.35,0-2.46-.11-3.54h2.08l.11,2.1h.08a4.5,4.5,0,0,1,4.1-2.4,3.87,3.87,0,0,1,3.7,2.62h0a5.38,5.38,0,0,1,1.46-1.7,4.48,4.48,0,0,1,2.89-.92c1.73,0,4.29,1.14,4.29,5.67v7.69H943.5v-7.39c0-2.51-.92-4-2.83-4a3.07,3.07,0,0,0-2.81,2.15,3.9,3.9,0,0,0-.19,1.19v8.07h-2.32v-7.82c0-2.08-.92-3.59-2.73-3.59a3.24,3.24,0,0,0-2.94,2.37,3.4,3.4,0,0,0-.19,1.16v7.88h-2.32Z"/>
      <path d="M951,744.61c0,3.21,2.11,4.54,4.48,4.54a8.56,8.56,0,0,0,3.62-.68l.4,1.7a10.48,10.48,0,0,1-4.34.81c-4,0-6.43-2.64-6.43-6.58s2.32-7,6.13-7c4.27,0,5.4,3.75,5.4,6.16a8.35,8.35,0,0,1-.08,1.1Zm7-1.7c0-1.51-.63-3.86-3.3-3.86-2.4,0-3.45,2.22-3.64,3.86Z"/>
      <path d="M963.22,741.73c0-1.54,0-2.87-.11-4.08h2.08l.08,2.56h.11a3.91,3.91,0,0,1,3.61-2.86,2.82,2.82,0,0,1,.68.08v2.24a3.9,3.9,0,0,0-.81-.08,3.34,3.34,0,0,0-3.19,3,7.19,7.19,0,0,0-.11,1.11v7h-2.34Z"/>
      <path d="M989.05,731.55v15.79c0,1.16,0,2.48.11,3.37H987l-.11-2.26h-.06a4.83,4.83,0,0,1-4.45,2.56c-3.16,0-5.59-2.67-5.59-6.64,0-4.35,2.68-7,5.86-7a4.37,4.37,0,0,1,3.94,2h.06v-7.8ZM986.68,743a4.2,4.2,0,0,0-.11-1,3.5,3.5,0,0,0-3.43-2.76c-2.46,0-3.91,2.16-3.91,5,0,2.65,1.29,4.83,3.86,4.83a3.57,3.57,0,0,0,3.48-2.83,4.17,4.17,0,0,0,.11-1Z"/>
      <path d="M994.32,744.61c0,3.21,2.1,4.54,4.48,4.54a8.56,8.56,0,0,0,3.62-.68l.4,1.7a10.56,10.56,0,0,1-4.34.81c-4,0-6.43-2.64-6.43-6.58s2.32-7,6.13-7c4.26,0,5.4,3.75,5.4,6.16a10.58,10.58,0,0,1-.08,1.1Zm7-1.7c0-1.51-.62-3.86-3.29-3.86-2.4,0-3.46,2.22-3.64,3.86Z"/>
      <path d="M1023.18,747.15c0,1.35,0,2.54.11,3.56h-2.11l-.13-2.13H1021a4.91,4.91,0,0,1-4.32,2.43c-2,0-4.5-1.13-4.5-5.72v-7.64h2.37v7.23c0,2.49.76,4.16,2.92,4.16a3.44,3.44,0,0,0,3.13-2.16,3.57,3.57,0,0,0,.21-1.21v-8h2.38Z"/>
      <path d="M1026.8,748.28a6.2,6.2,0,0,0,3.13,1c1.73,0,2.54-.86,2.54-1.94s-.68-1.76-2.43-2.41c-2.35-.83-3.46-2.13-3.46-3.69,0-2.11,1.7-3.84,4.51-3.84a6.51,6.51,0,0,1,3.21.81l-.59,1.73a5.11,5.11,0,0,0-2.67-.76c-1.41,0-2.19.81-2.19,1.78s.78,1.57,2.48,2.22c2.27.86,3.43,2,3.43,3.94,0,2.29-1.78,3.91-4.88,3.91a7.42,7.42,0,0,1-3.67-.89Z"/>
      <path d="M1040.16,743.64h.06c.32-.46.78-1,1.16-1.48l3.83-4.51h2.86l-5,5.37,5.75,7.69h-2.88l-4.51-6.26-1.22,1.35v4.91h-2.34V731.55h2.34Z"/>
      <path d="M1051.69,737.65l2.86,7.72c.3.86.62,1.89.84,2.67h0c.25-.78.52-1.78.84-2.72l2.59-7.67h2.51l-3.56,9.31c-1.7,4.48-2.86,6.78-4.48,8.18a6.4,6.4,0,0,1-2.92,1.54l-.59-2a6.21,6.21,0,0,0,2.08-1.16,7.17,7.17,0,0,0,2-2.64,1.12,1.12,0,0,0,0-1.19l-4.83-12Z"/>
      <path d="M1063.55,731.55h2.37v19.16h-2.37Z"/>
      <path d="M1081.2,731.55v15.79c0,1.16,0,2.48.11,3.37h-2.13l-.11-2.26H1079a4.83,4.83,0,0,1-4.45,2.56c-3.16,0-5.59-2.67-5.59-6.64,0-4.35,2.68-7,5.86-7a4.37,4.37,0,0,1,3.94,2h.06v-7.8ZM1078.83,743a4.2,4.2,0,0,0-.11-1,3.5,3.5,0,0,0-3.43-2.76c-2.46,0-3.91,2.16-3.91,5,0,2.65,1.29,4.83,3.86,4.83a3.57,3.57,0,0,0,3.48-2.83,4.17,4.17,0,0,0,.11-1Z"/>
      <path d="M1087.79,734a1.47,1.47,0,0,1-2.94,0,1.45,1.45,0,0,1,1.48-1.49A1.41,1.41,0,0,1,1087.79,734Zm-2.64,16.73V737.65h2.37v13.06Z"/>
      <path d="M1102.72,737.65c0,.94-.11,2-.11,3.59v7.58c0,3-.59,4.84-1.86,6a6.93,6.93,0,0,1-4.75,1.57,8.45,8.45,0,0,1-4.35-1.08l.6-1.81a7.34,7.34,0,0,0,3.83,1c2.43,0,4.21-1.27,4.21-4.56v-1.46h0a4.67,4.67,0,0,1-4.16,2.19c-3.24,0-5.56-2.75-5.56-6.37,0-4.43,2.89-6.94,5.88-6.94a4.35,4.35,0,0,1,4.08,2.27h0l.11-2Zm-2.46,5.15a3.27,3.27,0,0,0-.13-1.07,3.42,3.42,0,0,0-3.32-2.52c-2.27,0-3.89,1.92-3.89,4.94,0,2.57,1.3,4.7,3.86,4.7a3.47,3.47,0,0,0,3.29-2.43,4,4,0,0,0,.19-1.27Z"/>
      <path d="M1107.88,744.61c0,3.21,2.1,4.54,4.48,4.54a8.59,8.59,0,0,0,3.62-.68l.4,1.7a10.56,10.56,0,0,1-4.34.81c-4,0-6.43-2.64-6.43-6.58s2.32-7,6.13-7c4.26,0,5.4,3.75,5.4,6.16a10.58,10.58,0,0,1-.08,1.1Zm7-1.7c0-1.51-.62-3.86-3.29-3.86-2.4,0-3.46,2.22-3.64,3.86Z"/>
      <path d="M1126.05,750.71V739.46h-1.84v-1.81h1.84V737a6.13,6.13,0,0,1,1.51-4.56,4.53,4.53,0,0,1,3.19-1.22,5.49,5.49,0,0,1,2,.38l-.32,1.84a3.44,3.44,0,0,0-1.52-.3c-2,0-2.53,1.78-2.53,3.78v.7h3.16v1.81h-3.16v11.25Z"/>
      <path d="M1144.62,747.15c0,1.35,0,2.54.11,3.56h-2.11l-.13-2.13h0a4.92,4.92,0,0,1-4.32,2.43c-2,0-4.51-1.13-4.51-5.72v-7.64H1136v7.23c0,2.49.76,4.16,2.92,4.16a3.44,3.44,0,0,0,3.13-2.16,3.34,3.34,0,0,0,.22-1.21v-8h2.37Z"/>
      <path d="M1159.82,737.65c0,.94-.11,2-.11,3.59v7.58c0,3-.59,4.84-1.86,6a6.91,6.91,0,0,1-4.75,1.57,8.44,8.44,0,0,1-4.34-1.08l.59-1.81a7.34,7.34,0,0,0,3.83,1c2.43,0,4.21-1.27,4.21-4.56v-1.46h-.05a4.66,4.66,0,0,1-4.16,2.19c-3.24,0-5.56-2.75-5.56-6.37,0-4.43,2.89-6.94,5.89-6.94a4.34,4.34,0,0,1,4.07,2.27h.06l.11-2Zm-2.45,5.15a3.27,3.27,0,0,0-.14-1.07,3.42,3.42,0,0,0-3.32-2.52c-2.27,0-3.89,1.92-3.89,4.94,0,2.57,1.3,4.7,3.86,4.7a3.48,3.48,0,0,0,3.3-2.43,4.25,4.25,0,0,0,.19-1.27Z"/>
      <path d="M1163.66,731.55H1166v19.16h-2.38Z"/>
      <path d="M1171.35,744.61c.06,3.21,2.11,4.54,4.48,4.54a8.53,8.53,0,0,0,3.62-.68l.41,1.7a10.58,10.58,0,0,1-4.35.81c-4,0-6.42-2.64-6.42-6.58s2.32-7,6.12-7c4.27,0,5.4,3.75,5.4,6.16a8.35,8.35,0,0,1-.08,1.1Zm7-1.7c0-1.51-.62-3.86-3.3-3.86-2.4,0-3.45,2.22-3.64,3.86Z"/>
      <path d="M695.72,780.68a6.2,6.2,0,0,0,3.13,1c1.72,0,2.53-.86,2.53-1.94s-.67-1.76-2.42-2.41c-2.35-.83-3.46-2.13-3.46-3.69,0-2.11,1.7-3.84,4.51-3.84a6.54,6.54,0,0,1,3.21.81l-.59,1.73a5.15,5.15,0,0,0-2.68-.76c-1.4,0-2.18.81-2.18,1.79s.78,1.56,2.48,2.21c2.27.86,3.43,2,3.43,3.94,0,2.29-1.78,3.91-4.89,3.91a7.45,7.45,0,0,1-3.67-.89Z"/>
      <path d="M718.55,776.47c0,4.84-3.34,6.94-6.5,6.94-3.54,0-6.26-2.59-6.26-6.72,0-4.37,2.86-6.94,6.48-6.94S718.55,772.48,718.55,776.47Zm-10.36.14c0,2.86,1.65,5,4,5s4-2.13,4-5.08c0-2.21-1.1-5-3.91-5S708.19,774.13,708.19,776.61Z"/>
      <path d="M721.55,773.59c0-1.35,0-2.46-.1-3.54h2.07l.11,2.11h.08a4.51,4.51,0,0,1,4.11-2.41,3.85,3.85,0,0,1,3.69,2.62h.06a5.26,5.26,0,0,1,1.46-1.7,4.46,4.46,0,0,1,2.88-.92c1.73,0,4.3,1.14,4.3,5.67v7.69h-2.32v-7.39c0-2.51-.92-4-2.84-4a3.09,3.09,0,0,0-2.81,2.16,4.11,4.11,0,0,0-.19,1.18v8.07h-2.32v-7.82c0-2.08-.91-3.59-2.72-3.59a3.24,3.24,0,0,0-3,2.37,3.4,3.4,0,0,0-.18,1.16v7.88h-2.33Z"/>
      <path d="M749.8,774.31c0-1.67-.06-3-.11-4.26h2.13l.11,2.24H752a5.14,5.14,0,0,1,4.65-2.54c3.15,0,5.53,2.67,5.53,6.64,0,4.7-2.86,7-5.94,7a4.56,4.56,0,0,1-4-2h-.06v7.1H749.8Zm2.34,3.49a5.75,5.75,0,0,0,.11,1,3.68,3.68,0,0,0,3.57,2.78c2.51,0,4-2,4-5,0-2.62-1.37-4.86-3.88-4.86a3.79,3.79,0,0,0-3.59,2.94,3.94,3.94,0,0,0-.17,1Z"/>
      <path d="M772.39,783.11l-.19-1.64h-.08a4.87,4.87,0,0,1-4,1.94,3.72,3.72,0,0,1-4-3.75c0-3.16,2.81-4.89,7.86-4.86v-.27a2.69,2.69,0,0,0-3-3,6.44,6.44,0,0,0-3.4,1l-.54-1.57a8.11,8.11,0,0,1,4.29-1.16c4,0,5,2.73,5,5.35V780a18.57,18.57,0,0,0,.21,3.13Zm-.35-6.66c-2.59-.06-5.53.4-5.53,2.94a2.1,2.1,0,0,0,2.24,2.27,3.25,3.25,0,0,0,3.16-2.19,2.48,2.48,0,0,0,.13-.76Z"/>
      <path d="M777.85,780.68a6.2,6.2,0,0,0,3.13,1c1.73,0,2.54-.86,2.54-1.94s-.68-1.76-2.43-2.41c-2.35-.83-3.46-2.13-3.46-3.69,0-2.11,1.7-3.84,4.51-3.84a6.54,6.54,0,0,1,3.21.81l-.59,1.73a5.11,5.11,0,0,0-2.67-.76c-1.41,0-2.19.81-2.19,1.79s.78,1.56,2.48,2.21c2.27.86,3.43,2,3.43,3.94,0,2.29-1.78,3.91-4.88,3.91a7.49,7.49,0,0,1-3.68-.89Z"/>
      <path d="M788.54,780.68a6.2,6.2,0,0,0,3.13,1c1.73,0,2.54-.86,2.54-1.94s-.68-1.76-2.43-2.41c-2.35-.83-3.46-2.13-3.46-3.69,0-2.11,1.71-3.84,4.51-3.84a6.48,6.48,0,0,1,3.21.81l-.59,1.73a5.11,5.11,0,0,0-2.67-.76c-1.4,0-2.19.81-2.19,1.79s.79,1.56,2.49,2.21c2.26.86,3.42,2,3.42,3.94,0,2.29-1.78,3.91-4.88,3.91a7.42,7.42,0,0,1-3.67-.89Z"/>
      <path d="M800.88,777c0,3.22,2.1,4.54,4.48,4.54a8.56,8.56,0,0,0,3.62-.68l.4,1.7a10.56,10.56,0,0,1-4.34.81c-4,0-6.43-2.64-6.43-6.58s2.32-7,6.13-7c4.26,0,5.4,3.75,5.4,6.16a10.58,10.58,0,0,1-.08,1.1Zm7-1.7c0-1.51-.62-3.86-3.29-3.86-2.4,0-3.45,2.22-3.64,3.86Z"/>
      <path d="M813.08,774.13c0-1.54,0-2.87-.1-4.08h2.07l.08,2.56h.11a3.94,3.94,0,0,1,3.62-2.86,2.67,2.67,0,0,1,.67.08v2.24a3.76,3.76,0,0,0-.81-.08,3.33,3.33,0,0,0-3.18,3,7.19,7.19,0,0,0-.11,1.11v7h-2.35Z"/>
      <path d="M823,777c.06,3.22,2.11,4.54,4.49,4.54a8.51,8.51,0,0,0,3.61-.68l.41,1.7a10.58,10.58,0,0,1-4.35.81c-4,0-6.42-2.64-6.42-6.58s2.32-7,6.13-7c4.26,0,5.39,3.75,5.39,6.16a8.35,8.35,0,0,1-.08,1.1Zm7-1.7c0-1.51-.62-3.86-3.29-3.86-2.41,0-3.46,2.22-3.65,3.86Z"/>
      <path d="M835.17,774.13c0-1.54,0-2.87-.11-4.08h2.08l.08,2.56h.11a3.92,3.92,0,0,1,3.62-2.86,2.73,2.73,0,0,1,.67.08v2.24a3.83,3.83,0,0,0-.81-.08,3.33,3.33,0,0,0-3.18,3,6.13,6.13,0,0,0-.11,1.11v7h-2.35Z"/>
      <path d="M849.72,774.31c0-1.67-.05-3-.11-4.26h2.14l.1,2.24h.06a5.14,5.14,0,0,1,4.64-2.54c3.16,0,5.53,2.67,5.53,6.64,0,4.7-2.86,7-5.93,7a4.59,4.59,0,0,1-4-2h0v7.1h-2.35Zm2.35,3.49a4.88,4.88,0,0,0,.11,1,3.67,3.67,0,0,0,3.56,2.78c2.51,0,4-2,4-5,0-2.62-1.38-4.86-3.89-4.86a3.79,3.79,0,0,0-3.59,2.94,3.94,3.94,0,0,0-.16,1Z"/>
      <path d="M865.08,774.13c0-1.54,0-2.87-.1-4.08h2.07l.09,2.56h.1a3.94,3.94,0,0,1,3.62-2.86,2.82,2.82,0,0,1,.68.08v2.24a3.9,3.9,0,0,0-.81-.08,3.33,3.33,0,0,0-3.19,3,7.19,7.19,0,0,0-.11,1.11v7h-2.35Z"/>
      <path d="M882.88,776.82c-.09,3.11,1.7,4.75,4.15,4.75a7.65,7.65,0,0,0,3.57-.75l.43,1.67a9.28,9.28,0,0,1-4.29.92,5.16,5.16,0,0,1-5-2.89h-.06a5.09,5.09,0,0,1-4.85,2.89,3.73,3.73,0,0,1-4.08-3.72c0-3,2.81-4.78,7.88-4.73v-.54a2.88,2.88,0,0,0-3-2.91,6.41,6.41,0,0,0-3.35,1l-.56-1.57a8.27,8.27,0,0,1,4.07-1.19c2.35,0,3.67,1.11,4.21,2.78H882a5,5,0,0,1,4.56-2.78c4,0,5.1,3.86,5.1,6a5.82,5.82,0,0,1-.08,1.05Zm-2.19-.27c-2.51,0-5.56.38-5.56,3a2.11,2.11,0,0,0,2.27,2.16,3.19,3.19,0,0,0,3.15-2.24,2.77,2.77,0,0,0,.14-.95Zm8.72-1.43c.08-1.32-.65-3.67-3-3.67s-3.43,2.19-3.51,3.67Z"/>
      <path d="M894.65,774.13c0-1.54,0-2.87-.11-4.08h2.08l.08,2.56h.11a3.92,3.92,0,0,1,3.62-2.86,2.73,2.73,0,0,1,.67.08v2.24a3.83,3.83,0,0,0-.81-.08,3.33,3.33,0,0,0-3.18,3,6.13,6.13,0,0,0-.11,1.11v7h-2.35Z"/>
      <path d="M906.23,766.38a1.47,1.47,0,0,1-2.94,0,1.45,1.45,0,0,1,1.48-1.49A1.41,1.41,0,0,1,906.23,766.38Zm-2.64,16.73V770.05H906v13.06Z"/>
      <path d="M911.23,777c0,3.22,2.1,4.54,4.48,4.54a8.51,8.51,0,0,0,3.61-.68l.41,1.7a10.58,10.58,0,0,1-4.35.81c-4,0-6.42-2.64-6.42-6.58s2.32-7,6.13-7c4.26,0,5.4,3.75,5.4,6.16a8,8,0,0,1-.09,1.1Zm7-1.7c0-1.51-.62-3.86-3.29-3.86-2.4,0-3.46,2.22-3.65,3.86Z"/>
      <path d="M923.43,764h2.38v8.15h.05a4.4,4.4,0,0,1,1.7-1.67,4.84,4.84,0,0,1,2.43-.68c1.75,0,4.56,1.08,4.56,5.59v7.77h-2.37v-7.5c0-2.11-.79-3.89-3-3.89A3.4,3.4,0,0,0,926,774.1a2.76,2.76,0,0,0-.16,1.13v7.88h-2.38Z"/>
      <path d="M949.35,779.55c0,1.35,0,2.54.11,3.56h-2.11l-.13-2.13h-.06a4.92,4.92,0,0,1-4.32,2.43c-2.05,0-4.51-1.13-4.51-5.72v-7.64h2.38v7.23c0,2.49.76,4.16,2.92,4.16a3.45,3.45,0,0,0,3.13-2.16,3.57,3.57,0,0,0,.21-1.21v-8h2.38Z"/>
      <path d="M953.29,773.59c0-1.35,0-2.46-.11-3.54h2.11l.13,2.16h.06a4.81,4.81,0,0,1,4.32-2.46c1.81,0,4.61,1.08,4.61,5.56v7.8H962v-7.53c0-2.1-.78-3.86-3-3.86a3.48,3.48,0,0,0-3.34,3.54v7.85h-2.38Z"/>
      <path d="M979.56,764v15.79c0,1.16,0,2.48.11,3.37h-2.13l-.11-2.26h-.06a4.83,4.83,0,0,1-4.45,2.56c-3.16,0-5.59-2.67-5.59-6.64,0-4.35,2.67-7,5.86-7a4.37,4.37,0,0,1,3.94,2h0V764Zm-2.38,11.42a4.19,4.19,0,0,0-.1-1,3.49,3.49,0,0,0-3.43-2.75c-2.46,0-3.91,2.15-3.91,5,0,2.65,1.29,4.83,3.85,4.83a3.57,3.57,0,0,0,3.49-2.83,4.19,4.19,0,0,0,.1-1Z"/>
      <path d="M984.83,777c0,3.22,2.1,4.54,4.48,4.54a8.56,8.56,0,0,0,3.62-.68l.4,1.7a10.56,10.56,0,0,1-4.34.81c-4,0-6.43-2.64-6.43-6.58s2.32-7,6.13-7c4.26,0,5.4,3.75,5.4,6.16A10.58,10.58,0,0,1,994,777Zm7-1.7c0-1.51-.62-3.86-3.29-3.86-2.4,0-3.46,2.22-3.64,3.86Z"/>
      <path d="M997,773.59c0-1.35,0-2.46-.11-3.54H999l.13,2.16h.06a4.81,4.81,0,0,1,4.32-2.46c1.81,0,4.61,1.08,4.61,5.56v7.8h-2.37v-7.53c0-2.1-.78-3.86-3-3.86a3.48,3.48,0,0,0-3.34,3.54v7.85H997Z"/>
      <path d="M1017.74,774.31c0-1.67,0-3-.11-4.26h2.14l.1,2.24h.06a5.14,5.14,0,0,1,4.64-2.54c3.16,0,5.53,2.67,5.53,6.64,0,4.7-2.86,7-5.93,7a4.59,4.59,0,0,1-4-2h0v7.1h-2.35Zm2.35,3.49a4.88,4.88,0,0,0,.11,1,3.67,3.67,0,0,0,3.56,2.78c2.51,0,4-2,4-5,0-2.62-1.38-4.86-3.89-4.86a3.79,3.79,0,0,0-3.59,2.94,3.94,3.94,0,0,0-.16,1Z"/>
      <path d="M1040.34,783.11l-.19-1.64h-.08a4.9,4.9,0,0,1-4,1.94,3.72,3.72,0,0,1-4-3.75c0-3.16,2.8-4.89,7.85-4.86v-.27a2.69,2.69,0,0,0-3-3,6.47,6.47,0,0,0-3.4,1l-.54-1.57a8.14,8.14,0,0,1,4.29-1.16c4,0,5,2.73,5,5.35V780a17.52,17.52,0,0,0,.22,3.13Zm-.35-6.66c-2.59-.06-5.54.4-5.54,2.94a2.11,2.11,0,0,0,2.24,2.27,3.25,3.25,0,0,0,3.16-2.19,2.49,2.49,0,0,0,.14-.76Zm-5.11-10.29a2.55,2.55,0,0,1,2.76-2.56,2.5,2.5,0,0,1,2.67,2.54,2.73,2.73,0,0,1-5.43,0Zm4.11,0a1.37,1.37,0,1,0-2.73,0,1.37,1.37,0,1,0,2.73,0Z"/>
      <path d="M1051.52,780.68a6.2,6.2,0,0,0,3.13,1c1.73,0,2.54-.86,2.54-1.94s-.68-1.76-2.43-2.41c-2.35-.83-3.46-2.13-3.46-3.69,0-2.11,1.7-3.84,4.51-3.84a6.54,6.54,0,0,1,3.21.81l-.59,1.73a5.11,5.11,0,0,0-2.67-.76c-1.41,0-2.19.81-2.19,1.79s.78,1.56,2.48,2.21c2.27.86,3.43,2,3.43,3.94,0,2.29-1.78,3.91-4.89,3.91a7.45,7.45,0,0,1-3.67-.89Z"/>
      <path d="M1065.18,766.38a1.47,1.47,0,0,1-2.94,0,1.45,1.45,0,0,1,1.48-1.49A1.41,1.41,0,0,1,1065.18,766.38Zm-2.65,16.73V770.05h2.38v13.06Z"/>
      <path d="M1068.85,773.59c0-1.35,0-2.46-.11-3.54h2.11l.13,2.16h.06a4.81,4.81,0,0,1,4.32-2.46c1.81,0,4.61,1.08,4.61,5.56v7.8h-2.37v-7.53c0-2.1-.79-3.86-3-3.86a3.48,3.48,0,0,0-3.34,3.54v7.85h-2.38Z"/>
      <path d="M1090.48,770.05l2.56,7.34a34.29,34.29,0,0,1,1,3.35h.08c.3-1.08.68-2.16,1.11-3.35l2.54-7.34h2.48l-5.13,13.06h-2.26l-5-13.06Z"/>
      <path d="M1103.6,777c.05,3.22,2.1,4.54,4.48,4.54a8.56,8.56,0,0,0,3.62-.68l.4,1.7a10.56,10.56,0,0,1-4.34.81c-4,0-6.43-2.64-6.43-6.58s2.32-7,6.13-7c4.26,0,5.4,3.75,5.4,6.16a10.58,10.58,0,0,1-.08,1.1Zm7-1.7c0-1.51-.62-3.86-3.29-3.86-2.4,0-3.46,2.22-3.64,3.86Z"/>
      <path d="M1112.62,786.89a3.8,3.8,0,0,0,2.59-1c.65-.75.89-1.78.89-4.91V770.05h2.38V781.9c0,2.54-.41,4.18-1.57,5.37a6,6,0,0,1-4.05,1.49Zm6.13-20.51a1.4,1.4,0,0,1-1.49,1.46,1.42,1.42,0,0,1-1.46-1.46,1.46,1.46,0,0,1,1.52-1.49A1.41,1.41,0,0,1,1118.75,766.38Z"/>
      <path d="M1121.5,781.71a1.59,1.59,0,0,1,1.62-1.7,1.7,1.7,0,0,1,0,3.4A1.59,1.59,0,0,1,1121.5,781.71Z"/>
    </g>
    <g>
      <g>
        <g>
          <g>
            <path class="cls-14" d="M1026,873.17s1.39-4.34,2.68-8.34a10.51,10.51,0,0,1-2.25,2,12.86,12.86,0,0,0,.69-1.6,9.37,9.37,0,0,0,.6-3.08c0,.67-2.91,4-2.91,4s-.63-.68,0-3.94c-.27.93-4.29,5.92-4.29,5.92a15.51,15.51,0,0,0,1.72-5,24.64,24.64,0,0,1-3.23,4s2.26-6.34,3.23-10.35c-2.36,4.16-16.51,10.29-23.9,13.27-5.39.42-11.63-2.62-10.92-7a11.85,11.85,0,0,0,.61-3.76c0-7.65-7.39-12.28-16.29-13.86-13.16-2.32-23.51,8.92-25.66,17.48h0s0,.16-.1.47a20.74,20.74,0,0,0-.52,4,46.75,46.75,0,0,0,6.36,26.23c2.82,9.27,15.94,16.28,31.7,16.28,14.44,0,26.67-5.89,30.78-14,1.06-.7,2.34-1.59,3.75-2.68,6.45-4.34,9-16,9-16a51.89,51.89,0,0,0,1.61-7.35C1028.64,870.83,1026,873.17,1026,873.17Z"/>
            <path class="cls-14" d="M1024.76,862.24a.28.28,0,0,0,0-.09S1024.76,862.21,1024.76,862.24Z"/>
          </g>
          <path class="cls-15" d="M966.8,865.92a9.73,9.73,0,0,0-2.61.17h0a8.3,8.3,0,0,0-2.21.8c-4.76,1.59-12.59,3.62-12.59,3.62,2.53,2.22,9.36,3,9.36,3,.71,2.75,3.54,4.94,7.07,5.21,4.27.32,7.95-2.27,8.21-5.8S971.06,866.25,966.8,865.92Z"/>
          <circle class="cls-16" cx="973.04" cy="860.06" r="6.89"/>
          <circle cx="971.74" cy="860.4" r="5.34"/>
          <circle class="cls-16" cx="957.66" cy="860.06" r="6.89"/>
          <path class="cls-17" d="M955.57,882.33s1,10.9,2.89,11.54c.64-2.25,1.28-5.13,1.28-5.13s2.24,8.65,3.52,9V892.6s1.29,7,3.53,7.68c0-1.28.32-1.28.32-1.28s3.53,3.52,5.13,3.52a24.6,24.6,0,0,0-1.28-3.84s3.52,4.8,4.8,5.12c.64-1,0-4.38,0-4.38s4.49,3.74,6.41,4.06C984.1,903.48,955.57,882.33,955.57,882.33Z"/>
          <path class="cls-14" d="M976.4,847.31s-1.92-3.08-4.64-3.58a15.94,15.94,0,0,1,6.89,2.71s-.64-2.25-1-3.21c2.56,2.56,4.8,4.49,4.8,4.49s-.64-4.17-1.28-4.81c2.57.32,5.45,11.17,5.45,11.17l-1.28,1Z"/>
          <circle class="cls-16" cx="969.28" cy="858.28" r="0.69"/>
          <circle cx="956.41" cy="860.4" r="5.34"/>
          <circle class="cls-16" cx="953.95" cy="858.28" r="0.69"/>
          <path class="cls-18" d="M971.31,850.72s6.72-4.05,11.27,5.48C980.32,853.74,978.47,849.49,971.31,850.72Z"/>
          <path class="cls-18" d="M953.3,852s3-5.39,9.74-1.47C960.57,850,957.7,848.17,953.3,852Z"/>
          <path class="cls-18" d="M958.75,873.53A14.49,14.49,0,0,0,970,869C968.5,870.51,962.71,873.53,958.75,873.53Z"/>
          <ellipse cx="964.62" cy="867.91" rx="0.96" ry="0.5" transform="translate(-138.71 184.97) rotate(-10.22)"/>
          <path class="cls-18" d="M969.5,868.23s.24,1.44,1.2,1.44A10.64,10.64,0,0,1,969.5,868.23Z"/>
        </g>
        <path class="cls-19" d="M972.14,868.23s4.7,4.08-.4,8.94C976.73,873.86,975.42,870.42,972.14,868.23Z"/>
        <path class="cls-19" d="M1009.35,865.41,998.44,870s-7.6.91-10.88-4.86c1.08,1.9,2,7,10.71,6.78C1003.25,871.8,1009.35,865.41,1009.35,865.41Z"/>
        <path class="cls-19" d="M982.58,856.2s-4.26-7.35-11.14-5.5C977.45,851.11,982.58,856.2,982.58,856.2Z"/>
        <path class="cls-19" d="M962.85,850.49s-3.61-1.32-5.61-.7a8.94,8.94,0,0,0-3.9,2.17A19.49,19.49,0,0,1,962.85,850.49Z"/>
      </g>
      <path class="cls-8" d="M981.56,878.22l28.16-26.17c2.65,9.61-6.29,24.24-6.29,24.24L1016,868s6,15.57-12.25,21.2l9.6-.66s-1,8.09-27.49,3.38C980.24,890.15,975,884.3,981.56,878.22Z"/>
    </g>
    <g>
      <path class="cls-20" d="M1007.55,516.1c-17-9.79-57.42-40.18-25.6-94.54-21.74,6.39-85.3,8.14-85.3,8.14s-13.46,45.12,4.62,86.4Z"/>
      <g>
        <path class="cls-21" d="M977,425c-52.14,35.87-81.48,10.18-81.48,10.18S946,443.19,977,425Z"/>
        <g>
          <circle class="cls-20" cx="863.42" cy="306.04" r="6.99"/>
          <circle class="cls-20" cx="926.71" cy="356.82" r="84.27"/>
          <circle class="cls-22" cx="873.12" cy="333.41" r="23.32"/>
          <circle cx="872.87" cy="333.37" r="16.03"/>
          <ellipse class="cls-16" cx="882.25" cy="329.86" rx="1.95" ry="3.13"/>
          <circle class="cls-22" cx="926.84" cy="333.41" r="23.32"/>
          <circle cx="926.59" cy="333.37" r="16.03"/>
          <ellipse class="cls-16" cx="935.97" cy="329.86" rx="1.95" ry="3.13"/>
          <path class="cls-23" d="M856.4,306.93s13.18-10.45,29.12,1.68c3.09,4.56,7,15.58,20.49,8.49,8.07-4.45,16.33-20.66,43.24-12.54s-7.35-7-7.35-7-14.6-5.52-34.66,11.9c-10,7.26-15.74.22-21.58-5.85-10.46-4.61-6.82-3.7-23.73-4.49A75.32,75.32,0,0,0,856.4,306.93Z"/>
          <path class="cls-23" d="M895.43,313.24s.74-6.56,4.42-7.57a10.36,10.36,0,0,1,2.21,1s-4.07,5.55-2.77,6.56S895.43,313.24,895.43,313.24Z"/>
          <path class="cls-20" d="M965.71,284s5.16-10.3,2.21-13.24c5.15,5.15,8.83,15.45,6.63,18.4,3.68-5.89,2.94-15.46,2.94-15.46s8,17.38,2.53,20.1c4.51-3.4,13.66-2.44,18.08,1.24-11-1.47-13.25,4.42-13.25,4.42Z"/>
          <path class="cls-21" d="M996.57,309.68s43.79,63.05-21,115.53C988.91,404.63,1018.75,376.85,996.57,309.68Z"/>
          <path class="cls-24" d="M917.68,364.75s38.31,28.56-1.82,58.4C927.18,424.18,955,388.16,917.68,364.75Z"/>
          <path class="cls-21" d="M904.53,340.19s2.15,14.1,20.63,16.63c7.16.48,18.34-3.88,23-14.05-1.92,8.47-5.59,17.61-23.08,17.61C909.68,357.3,902.48,351.12,904.53,340.19Z"/>
          <path class="cls-21" d="M851,340.19s2.16,14.1,20.63,16.63c7.16.48,18.34-3.88,23-14.05-1.91,8.47-5.59,17.61-23.08,17.61C856.18,357.3,849,351.12,851,340.19Z"/>
          <path class="cls-25" d="M891.59,361.06a35,35,0,0,0-15.72,8.57c0-.2-.06-.4-.11-.59-3.34-13.51-18.21-21.45-33.21-17.74a30.46,30.46,0,0,0-12.33,6.25c-16.5-6.92-38.24-8.16-59-3-37.51,9.27-62.2,39.9-55.15,68.41s0,0,65.2-16.12a113,113,0,0,1,13.11-2.39c-13.3,28.16-47.15,28.2-50.53,37.58-3.93,10.91,35.28,25.87,70.54,17.15,29.11-7.2,57.44-25.71,64.89-38.28A34.85,34.85,0,0,0,907.65,426c18.49-4.57,29.89-22.82,25.45-40.76S910.08,356.48,891.59,361.06Z"/>
          <path class="cls-26" d="M748.11,442.05s47.73-16.66,47.54-35c9.37.36,57.05,5.1,71.81-6.48C848.63,417.58,832,448.06,748.11,442.05Z"/>
          <ellipse cx="856.73" cy="369.25" rx="7.75" ry="4.31" transform="translate(-69.8 260.26) rotate(-16.61)"/>
          <path class="cls-27" d="M722.06,401.7s17.6-47,77.23-43.11C783.24,362.91,756.79,358.75,722.06,401.7Z"/>
          <path class="cls-28" d="M916,363.83s21.6,10.37,17.42,34.85c-3.22,12.93-10.31,24-25.77,27.33,7.15-4.69,16.44-10.06,21.58-28.58C933.35,376.85,916,363.83,916,363.83Z"/>
          <path class="cls-28" d="M860.75,407.09s-19,33.55-85.83,35.73C803.66,442.58,838.68,443.73,860.75,407.09Z"/>
        </g>
      </g>
    </g>
    <g>
      <path d="M787,863.79v22.79a4.52,4.52,0,0,0,.61,2.44,1.55,1.55,0,0,0,.72.56,1.46,1.46,0,0,1,.39.07,2.53,2.53,0,0,1,.37.11V895h-9v-5.37l.48-.09a3.76,3.76,0,0,0,.54-.13,1.92,1.92,0,0,0,.46-.52,4.46,4.46,0,0,0,.54-2.43V872.55c0-1.93-.67-2.84-2-2.74v-3.54a7.24,7.24,0,0,0,3.69-2.48Z"/>
      <path d="M812.43,875.59a4.6,4.6,0,0,1-.46,2.71q-1.26,2.7-5.34,2.7h-2.42v7a1.79,1.79,0,0,0,.55,1.11,1.68,1.68,0,0,0,1.13.45H806V895h-7.08v-5.37h0a1.68,1.68,0,0,0,1.13-.45,1.73,1.73,0,0,0,.54-1.11v-7h0l0-9.52a1.7,1.7,0,0,0-.56-1.09,1.67,1.67,0,0,0-1.13-.47h0v-6.13h7.78a5.48,5.48,0,0,1,2.91.52c1.92.9,2.89,2.74,2.89,5.52Zm-8.24,2.61c1.75,0,2.94-.52,3.54-1.5a2.34,2.34,0,0,0,.37-1.46V873.5a2.34,2.34,0,0,0-1.93-2.45,5.14,5.14,0,0,0-2-.24Z"/>
      <path d="M823.9,863.77a3.37,3.37,0,0,1,2.46,1,3.3,3.3,0,0,1,1,2.41v24.36a3.32,3.32,0,0,1-1,2.41,3.37,3.37,0,0,1-2.46,1h-6.73a3.31,3.31,0,0,1-2.44-1,3.26,3.26,0,0,1-1-2.41V867.18a3.24,3.24,0,0,1,1-2.41,3.31,3.31,0,0,1,2.44-1Zm-.95,8.12a2.81,2.81,0,0,0-.37-1.47,1.13,1.13,0,0,0-.94-.61h-2.22a1.06,1.06,0,0,0-.91.61,2.64,2.64,0,0,0-.39,1.47v14.93a2.7,2.7,0,0,0,.39,1.48,1.06,1.06,0,0,0,.91.61h2.22a1.13,1.13,0,0,0,.94-.61,2.87,2.87,0,0,0,.37-1.48Z"/>
      <path d="M836.07,869.85a1.58,1.58,0,0,0-1.15.46,1.68,1.68,0,0,0-.54,1.11V888a1.68,1.68,0,0,0,.54,1.1,1.72,1.72,0,0,0,1.15.46h0V895H829v-5.39h0a1.69,1.69,0,0,0,1.13-.46,1.72,1.72,0,0,0,.57-1.1V871.42a1.72,1.72,0,0,0-.57-1.11,1.56,1.56,0,0,0-1.13-.46h0V863.7h7.1v6.15Z"/>
      <path d="M854.43,894.84a7,7,0,0,1-3.39-.24q-3.4-1.07-3.41-5.17V873.59a1.76,1.76,0,0,0-.65-1.33,2.19,2.19,0,0,0-1.5-.54,2.24,2.24,0,0,0-1.52.54,1.71,1.71,0,0,0-.63,1.33v14.34a1.61,1.61,0,0,0,.63.89,2,2,0,0,0,1.26.46h.06v5.65h-7.91v-5.65h0a2.12,2.12,0,0,0,1.28-.46,1.64,1.64,0,0,0,.61-1.06V871.44a1.66,1.66,0,0,0-.61-1.07,1.94,1.94,0,0,0-1.28-.45h0v-6h7.91v1c1.74-1.47,3.29-1.6,4.65-.41a6.14,6.14,0,0,1,2.07,4.77l0,17.61a2.71,2.71,0,0,0,.17,1.34,2.18,2.18,0,0,0,2.26,1.33Z"/>
      <path d="M860,870.76a1.73,1.73,0,0,0-.4-.58,1.45,1.45,0,0,0-1-.61,1.52,1.52,0,0,0-1,.61,2.06,2.06,0,0,0-.55,1.45v3.65h-3.17V863.79h16.06v11.49H866.7v-3.65h0a2,2,0,0,0-.57-1.45,1.45,1.45,0,0,0-1-.61,1.47,1.47,0,0,0-1,.61,1.7,1.7,0,0,0-.39.58l0,17.24a1.68,1.68,0,0,0,.54,1.1,1.72,1.72,0,0,0,1.15.46h0V895h-7.1v-5.39h0A1.78,1.78,0,0,0,860,888Z"/>
    </g>
    <g>
      <path class="cls-8" d="M695.82,879l41.74-38.79c3.93,14.24-9.33,35.93-9.33,35.93l18.66-12.36s8.84,23.08-18.17,31.43l14.24-1s-1.47,12-40.76,5C693.86,896.71,686.12,888,695.82,879Z"/>
      <g>
        <ellipse class="cls-14" cx="725.57" cy="893.84" rx="27.28" ry="15.44"/>
        <circle class="cls-20" cx="680.13" cy="846.48" r="1.25"/>
        <circle class="cls-20" cx="691.41" cy="855.52" r="15.01"/>
        <circle class="cls-22" cx="681.86" cy="851.35" r="4.15"/>
        <circle cx="681.82" cy="851.34" r="2.86"/>
        <ellipse class="cls-16" cx="683.49" cy="850.72" rx="0.35" ry="0.56"/>
        <circle class="cls-22" cx="691.43" cy="851.35" r="4.15"/>
        <circle cx="691.39" cy="851.34" r="2.86"/>
        <ellipse class="cls-16" cx="693.06" cy="850.72" rx="0.35" ry="0.56"/>
        <path class="cls-23" d="M678.88,846.63a4.22,4.22,0,0,1,5.19.3c.55.81,1.25,2.78,3.65,1.51,1.44-.79,2.91-3.67,7.7-2.23s-1.31-1.25-1.31-1.25-2.6-1-6.17,2.12c-1.77,1.29-2.81,0-3.84-1-1.87-.82-1.22-.66-4.23-.8A14.08,14.08,0,0,0,678.88,846.63Z"/>
        <path class="cls-23" d="M685.84,847.76s.13-1.17.78-1.35a2,2,0,0,1,.4.18s-.73,1-.5,1.17S685.84,847.76,685.84,847.76Z"/>
        <path class="cls-20" d="M686.61,868.93s-5.58,18.71,13.51,23.22c5.23-2.87,5.08-9,5.08-9s-11.36-4.82-5.12-15.49C696.65,868.65,686.61,868.93,686.61,868.93Z"/>
        <path class="cls-20" d="M698.36,842.54s.91-1.83.39-2.36c.92.92,1.57,2.76,1.18,3.28a5.31,5.31,0,0,0,.52-2.75s1.43,3.09.45,3.58a3,3,0,0,1,3.22.22c-2-.26-2.35.79-2.35.79Z"/>
        <path class="cls-29" d="M699,876.82c.14-.44,1.48-2.06,1.84-3.81a21.49,21.49,0,0,0,.76,5.1s3.95-1.33,3.78-2.55c.06,3.39,0,5.09,0,5.09s4.15-.89,5.8,0a5.26,5.26,0,0,0-3.09,2.25s2.25,0,3.09,1.2c.49,1-2,.86-2,.86s2.84.68,3.25,1.36A6.45,6.45,0,0,0,710,888s2.81-1,3.61,3.76c-4-2-4.82-2.4-4.82-2.4s5.22,4.11,4.42,5.14c-2.41-1.71-4-2.74-4-2.74s2.4,3.08,1.6,4.11a24.75,24.75,0,0,1-4.51-3.38s3.31,4.06,2.91,6.8a12.19,12.19,0,0,0-4.82-2.05s1,1,1.91,1.7a27.65,27.65,0,0,1-4.72-2.73s-.4,1-.8,2.4a2.45,2.45,0,0,1-.81-1.72l-1,4.45a15.78,15.78,0,0,1-3-3.76c0-.34,0,1.37-.8,1.71a13.07,13.07,0,0,1-2-3.76l-.4,2.39a21,21,0,0,1-1.21-2.74c.41-.34-1.6-.34-1.6.35a5.26,5.26,0,0,1-.4-1.72l-.8.35s-.81-3.05,0-3.41c-.81,1-1.21-1.39,1.2-4.12,2,1,7.63,4.1,7.63,4.1s2.18,1.07,3.3-.66c-.18-.72,2.31-2.07,2.31-2.07l-1.44-.84L703.6,885h-2.41a2.92,2.92,0,0,1,2.41-2.06C702,881.53,698.39,878.61,699,876.82Z"/>
        <path class="cls-21" d="M686.42,869.69s7.58,2.66,13.66-2.05c-.86,1.77-.71,1.35-.71,1.35s-.91,2-13,1.46C686.61,868.94,686.42,869.69,686.42,869.69Z"/>
        <path class="cls-21" d="M703.85,847.12s7.8,11.24-3.74,20.58C702.49,864,707.81,859.09,703.85,847.12Z"/>
        <path class="cls-24" d="M689.8,856.93s6.82,5.09-.33,10.41C691.49,867.52,696.44,861.11,689.8,856.93Z"/>
        <path class="cls-21" d="M687.46,852.56s.38,2.51,3.67,3a4.48,4.48,0,0,0,4.11-2.5c-.35,1.51-1,3.14-4.12,3.14C688.37,855.61,687.09,854.51,687.46,852.56Z"/>
        <path class="cls-21" d="M677.92,852.56s.39,2.51,3.68,3a4.46,4.46,0,0,0,4.1-2.5c-.34,1.51-1,3.14-4.11,3.14C678.84,855.61,677.56,854.51,677.92,852.56Z"/>
        <path class="cls-25" d="M685.15,856.28a6.32,6.32,0,0,0-2.8,1.52s0-.07,0-.1a4.75,4.75,0,0,0-5.92-3.16,5.48,5.48,0,0,0-2.19,1.11,17.31,17.31,0,0,0-10.5-.54c-6.69,1.65-11.08,7.11-9.83,12.19s0,0,11.62-2.87a19.4,19.4,0,0,1,2.33-.43c-2.37,5-8.4,5-9,6.7-.7,1.94,6.29,4.6,12.57,3,5.18-1.28,10.23-4.58,11.56-6.82a6.18,6.18,0,0,0,5,.92,6,6,0,1,0-2.86-11.57Z"/>
        <path class="cls-26" d="M659.59,870.7s8.5-3,8.47-6.23c1.67.06,10.16.91,12.79-1.15C677.5,866.35,674.53,871.78,659.59,870.7Z"/>
        <ellipse cx="678.94" cy="857.74" rx="1.38" ry="0.77" transform="translate(-216.82 229.82) rotate(-16.61)"/>
        <path class="cls-27" d="M655,863.52s3.14-8.38,13.76-7.68C665.85,856.61,661.14,855.87,655,863.52Z"/>
        <path class="cls-28" d="M689.5,856.77a5.87,5.87,0,0,1,3.1,6.21c-.57,2.3-1.83,4.28-4.59,4.87a7.73,7.73,0,0,0,3.85-5.09A6.4,6.4,0,0,0,689.5,856.77Z"/>
        <path class="cls-28" d="M679.66,864.48s-3.38,6-15.29,6.36C669.49,870.8,675.73,871,679.66,864.48Z"/>
        <path class="cls-21" d="M700.29,879.8s3.31,3.08,3.31,3.1c-1.3.4-1.72.45-2.41,2.06,1.52-.06,2.41,0,2.41,0l-1.85,2.24,1.44.84s-2.46,1.19-2.31,2.07c-.63.65-1.89,2.38-7.46-1.6-3.21-2.29,5.49,3.22,6.14.64,0,0,2-4.54,2-6.23A5.5,5.5,0,0,0,700.29,879.8Z"/>
      </g>
      <path class="cls-8" d="M712.28,885.44,754,846.65c3.93,14.24-9.33,35.93-9.33,35.93l18.66-12.36s8.84,23.08-18.17,31.43l14.24-1s-1.47,12-40.76,5C710.32,903.12,702.58,894.45,712.28,885.44Z"/>
    </g>
    <g>
      <path d="M828,148.25v15.93H826.8q-3,.69-3.84,6.84l-4.41,41.36c-.08.22,0,.52.28.9a8,8,0,0,0,3.45,2v13.9H803.92v-13.9h.73q3.45-.23,2.77-3.84l-5.93-31.24-5.88,31.24q-.68,3.61,2.77,3.84h.73v13.9H780.7v-13.9a7.47,7.47,0,0,0,3.44-2c.3-.38.42-.68.34-.9L780.08,171q-.86-6.15-3.85-6.84H775V148.25h18.36v15.93a6.24,6.24,0,0,0-3.67.85,1.29,1.29,0,0,0-.68.85l2.32,24.18L799,148.25h5.14l7.57,41.81L814,165.88q-.35-1.69-4.41-1.7V148.25Z"/>
      <path d="M873.69,215.26v14H855.27v-14a3.13,3.13,0,0,0,2.32-1.19,3.5,3.5,0,0,0,.79-2.88l-2.6-12.43H845.05l-2.66,12.43a3.68,3.68,0,0,0,.85,2.88,2.8,2.8,0,0,0,2,1.19v14H826.91v-14h.85a5.71,5.71,0,0,0,3.22-1.19,6.09,6.09,0,0,0,2-2.88l9.1-43a3.46,3.46,0,0,0-.79-2.89,3.33,3.33,0,0,0-2.54-1.18V148.2H862v15.93a3.16,3.16,0,0,0-2.49,1.18,3.62,3.62,0,0,0-.85,2.89l9.16,43a5.7,5.7,0,0,0,5.19,4.07ZM854,190.46l-3.56-17-3.61,17Z"/>
      <path d="M921.43,228.93a18,18,0,0,1-8.81-.62q-8.88-2.77-8.87-13.45V173.68a4.55,4.55,0,0,0-1.7-3.45,5.63,5.63,0,0,0-3.9-1.41,5.85,5.85,0,0,0-3.95,1.41,4.39,4.39,0,0,0-1.64,3.45V211a4.1,4.1,0,0,0,1.64,2.32,5.24,5.24,0,0,0,3.28,1.19h.17v14.69H877.08V214.47h.11a5.5,5.5,0,0,0,3.34-1.19,4.26,4.26,0,0,0,1.58-2.77V168.08a4.31,4.31,0,0,0-1.58-2.77,5,5,0,0,0-3.34-1.18h-.11V148.42h20.57v2.66q6.78-5.72,12.09-1.05a15.82,15.82,0,0,1,5.36,12.4l-.05,45.77a7.1,7.1,0,0,0,.45,3.5q1.41,3.45,5.88,3.45Z"/>
      <path d="M941.66,166.33a4.62,4.62,0,0,0-1-1.52,3.84,3.84,0,0,0-2.68-1.59,4,4,0,0,0-2.74,1.59,5.3,5.3,0,0,0-1.42,3.78v9.49h-8.24V148.2h41.75v29.88h-8.19v-9.49h-.06a5.21,5.21,0,0,0-1.47-3.78,3.06,3.06,0,0,0-5.37,0,4.44,4.44,0,0,0-1,1.52l-.06,44.8a4.45,4.45,0,0,0,1.41,2.88,4.52,4.52,0,0,0,3,1.19h.11v14H937.19v-14h.12a4.45,4.45,0,0,0,2.94-1.19,4.38,4.38,0,0,0,1.46-2.88Z"/>
      <path d="M1006.06,148.25v30h-10.5v-5q-.85-9.5-5.54-9.49h-5.54V184h13v8.7h-13v18.42h4.24a9.56,9.56,0,0,0,4.58-.85q3-1.64,3.05-6.67l-.06-8h9.77v33.61H970.81v-14h.11a4.32,4.32,0,0,0,2.94-1.25,4.48,4.48,0,0,0,1.47-2.82v-43a4.59,4.59,0,0,0-4.41-4h-.11V148.25H1000v-.05h6Z"/>
      <path d="M1049.91,215.15a12.52,12.52,0,0,1-1.47,7q-3.62,7.07-14.41,7.06h-23.95v-14h.11a4.09,4.09,0,0,0,2.94-1.19,4.48,4.48,0,0,0,1.47-2.82V168.08a4.21,4.21,0,0,0-1.47-2.82,4.36,4.36,0,0,0-2.94-1.25h-.11V148.08H1034a16.69,16.69,0,0,1,8,1.75q7.9,3.73,7.91,14Zm-14.35-3.68q3,0,3.78-4.63a16,16,0,0,0,.23-4.63V176.56q0-5.37-2-7.18a2.52,2.52,0,0,0-2-.68H1024.2v42.77Z"/>
    </g>
    <polygon points="913.68 96.09 920.39 109.69 935.39 111.86 924.53 122.44 927.1 137.38 913.68 130.33 900.26 137.38 902.83 122.44 891.97 111.86 906.97 109.69 913.68 96.09"/>
    <polygon class="cls-13" points="1524.34 761 1468.52 761 1468.52 764.56 1527.54 764.56 1524.34 761"/>
  </g>
</svg>
