<svg xmlns="http://www.w3.org/2000/svg" xmlns:xlink="http://www.w3.org/1999/xlink" width="1920" height="1080" viewBox="0 0 1920 1080">
  <defs>
    <style>
      .cls-1 {
        fill: #ffe8cc;
      }

      .cls-2 {
        fill: #f4a04d;
      }

      .cls-3 {
        fill: #7f5029;
      }

      .cls-4 {
        fill: #42210b;
      }

      .cls-5 {
        fill: url(#linear-gradient);
      }

      .cls-6 {
        fill: #efd9c2;
      }

      .cls-7 {
        fill: #009245;
      }

      .cls-8 {
        fill: #007f39;
      }

      .cls-9 {
        fill: #4d4d4d;
      }

      .cls-10 {
        fill: #99714d;
      }

      .cls-11 {
        fill: #775131;
      }

      .cls-12 {
        fill: #333;
      }

      .cls-13 {
        fill: #603813;
      }

      .cls-14 {
        fill: #890a00;
      }

      .cls-15 {
        fill: #a67c52;
      }

      .cls-16 {
        fill: #754c24;
      }

      .cls-17 {
        fill: #967354;
      }

      .cls-18 {
        fill: #c69c6d;
      }

      .cls-19 {
        fill: #87644c;
      }

      .cls-20 {
        fill: #a5805b;
      }

      .cls-21 {
        fill: #fff;
      }

      .cls-22 {
        fill: #8c6239;
      }

      .cls-23 {
        fill: #99683f;
      }

      .cls-24 {
        fill: #d3dee2;
      }

      .cls-25 {
        fill: #666;
      }

      .cls-26 {
        fill: #e5bdc5;
      }

      .cls-27 {
        fill: #f9f9f9;
      }

      .cls-28 {
        fill: #ad7d8e;
      }

      .cls-29 {
        fill: #e6e6e6;
      }

      .cls-30 {
        fill: #cea5b2;
      }

      .cls-31 {
        fill: #e0b1be;
      }

      .cls-32 {
        fill: #fbb03b;
      }

      .cls-33 {
        fill: #f9c98a;
      }

      .cls-34 {
        fill: #f4a54e;
      }

      .cls-35 {
        fill: #bf4b54;
      }

      .cls-36 {
        fill: #e5e5e5;
      }
    </style>
    <linearGradient id="linear-gradient" x1="989.34" y1="632.85" x2="989.34" y2="1104.85" gradientUnits="userSpaceOnUse">
      <stop offset="0" stop-color="#c7a47d"/>
      <stop offset="1" stop-color="#b38652"/>
    </linearGradient>
  </defs>
  <g id="ØV">
    <rect class="cls-1" x="-158.16" y="-85.15" width="2146" height="1223"/>
    <circle class="cls-2" cx="198.84" cy="255.85" r="341"/>
    <rect class="cls-3" x="-25.16" y="206.85" width="210" height="523"/>
    <rect class="cls-3" x="1754.84" y="99.85" width="210" height="523"/>
    <rect class="cls-3" x="119.84" y="250.85" width="230" height="523"/>
    <polygon class="cls-3" points="1973.42 639.55 1657.84 666.85 1680.27 149.15 1908.49 120.59 1973.42 639.55"/>
    <polygon class="cls-3" points="1754.42 746.55 1438.84 773.85 1461.27 256.15 1689.49 227.59 1754.42 746.55"/>
    <polygon class="cls-4" points="555.84 868.85 349.84 773.85 337.28 324.72 559.05 385.69 555.84 868.85"/>
    <rect class="cls-5" x="-59.16" y="632.85" width="2097" height="472"/>
    <polygon class="cls-4" points="1680.27 461.42 1680.27 149.15 1710.87 149.15 1680.27 461.42"/>
    <polygon class="cls-4" points="152.36 520.51 152.36 208.24 182.96 208.24 152.36 520.51"/>
    <polygon class="cls-4" points="1563.86 632.85 1680.27 632.85 1686.39 320.92 1618.02 324.32 1605.71 346.29 1589.11 336.19 1527.84 361.35 1563.86 632.85"/>
    <polygon class="cls-4" points="1487.5 397.36 1487.5 254.86 1508.55 254.86 1487.5 397.36"/>
    <polygon class="cls-4" points="1493.59 632.85 1481.29 632.85 1493.59 442.19 1493.59 632.85"/>
    <polygon class="cls-4" points="1772.15 451.4 1754.42 451.4 1754.42 139.87 1772.15 451.4"/>
    <polygon class="cls-4" points="57.26 632.45 39.52 632.45 39.52 320.92 57.26 632.45"/>
    <polygon class="cls-4" points="1924.84 643.75 1776.06 643.75 1754.42 451.4 1924.84 415.64 1924.84 643.75"/>
    <polygon class="cls-4" points="1882.24 301.47 1839.63 99.85 1924.84 99.85 1882.24 301.47"/>
    <polygon class="cls-3" points="1140.32 632.85 1450.52 632.85 1456.02 377.42 1140.32 415.64 1140.32 632.85"/>
    <polygon class="cls-4" points="1438.84 522.65 1438.84 380.16 1459.89 380.16 1438.84 522.65"/>
    <polygon class="cls-4" points="1383.77 632.85 1140.32 632.85 1140.32 552.98 1416.46 513.97 1383.77 632.85"/>
    <ellipse class="cls-6" cx="834.14" cy="129.17" rx="82" ry="30.71"/>
    <ellipse class="cls-6" cx="928.23" cy="118.13" rx="79.12" ry="29.63"/>
    <ellipse class="cls-6" cx="1440.93" cy="81.74" rx="66.31" ry="24.58"/>
    <ellipse class="cls-6" cx="1528.74" cy="81.74" rx="66.31" ry="24.58"/>
    <g>
      <path class="cls-7" d="M135.65,594.73c0,5.25-4.83,9.5-22.79,9.5s-19.14-4.25-19.14-9.5,1.19-9.51,19.14-9.51S135.65,589.48,135.65,594.73Z"/>
      <path class="cls-7" d="M128.66,602.27c-5.25,0-9.5-4.44-9.5-21s4.25-17.61,9.5-17.61,9.5,1.09,9.5,17.61S133.91,602.27,128.66,602.27Z"/>
      <path class="cls-7" d="M101,627.53c0,60.11-10.69,66.71-24.12,66.71s-24.52-6.6-24.52-66.71S63.24,524.85,76.67,524.85,101,567.42,101,627.53Z"/>
      <path class="cls-8" d="M77,694.24c13.43,0,24.52-6.6,24.52-66.71S90.58,524.85,77.15,524.85C105.94,600.88,104.82,662.37,77,694.24Z"/>
      <path class="cls-8" d="M99.6,586.62s15.36-2.1,19.56-1.19c2,5.38-17,8.49-19,7.5A35.78,35.78,0,0,0,99.6,586.62Z"/>
      <polygon class="cls-9" points="91.37 551.63 90.88 549.93 98.2 547.8 91.37 551.63"/>
      <polygon class="cls-9" points="89.7 633.25 89.2 631.55 96.53 629.42 89.7 633.25"/>
      <polygon class="cls-9" points="108.91 588.27 107.24 587.69 109.74 580.48 108.91 588.27"/>
      <polygon class="cls-9" points="134.98 579.58 134.49 577.88 141.81 575.75 134.98 579.58"/>
      <polygon class="cls-9" points="70.39 596.64 69.3 598.04 63.29 593.35 70.39 596.64"/>
      <polygon class="cls-9" points="56.21 652.73 55.74 654.43 48.39 652.42 56.21 652.73"/>
      <polygon class="cls-9" points="70.39 531.24 69.3 532.63 63.29 527.94 70.39 531.24"/>
    </g>
    <g>
      <path class="cls-7" d="M169.05,680.22c0,42.53-6.87,42.78-17.84,42.78s-21.91-.25-21.91-42.78,8.9-77,19.88-77S169.05,637.7,169.05,680.22Z"/>
      <polygon class="cls-9" points="159.76 683.68 157.44 682.87 160.92 672.85 159.76 683.68"/>
      <polygon class="cls-9" points="154.82 626.48 154.13 624.12 164.32 621.16 154.82 626.48"/>
      <polygon class="cls-9" points="141.95 696.12 140.44 698.05 132.07 691.53 141.95 696.12"/>
      <polygon class="cls-9" points="136.5 651 134.99 652.94 126.63 646.42 136.5 651"/>
    </g>
    <g>
      <g>
        <rect class="cls-10" x="766.41" y="185.42" width="871.29" height="581.34" rx="57.74"/>
        <rect class="cls-10" x="1152.04" y="766.76" width="101.48" height="343.59"/>
        <polygon class="cls-11" points="1122.83 291.46 787.03 291.46 787.03 285.57 1122.83 291.46"/>
        <polygon class="cls-11" points="1538.17 291.46 1202.37 291.46 1202.37 285.57 1538.17 291.46"/>
        <polygon class="cls-11" points="1355.54 424.02 1019.74 424.02 1355.54 418.13 1355.54 424.02"/>
        <polygon class="cls-11" points="1638.32 556.57 1302.52 556.57 1638.32 550.68 1638.32 556.57"/>
        <polygon class="cls-11" points="1108.11 656.72 772.3 656.72 772.3 650.83 1108.11 656.72"/>
        <polygon class="cls-11" points="1164.07 921.83 1164.07 777.49 1167.02 777.49 1164.07 921.83"/>
        <polygon class="cls-11" points="1222.99 1092.67 1222.99 948.34 1225.93 948.34 1222.99 1092.67"/>
        <polygon class="cls-11" points="1211.2 927.72 1208.26 927.72 1208.26 845.24 1211.2 927.72"/>
        <polygon class="cls-11" points="1172.91 1104.46 1169.96 1104.46 1169.96 1021.98 1172.91 1104.46"/>
        <g>
          <circle class="cls-12" cx="810.6" cy="244.33" r="11.78"/>
          <circle class="cls-9" cx="809.13" cy="242.86" r="10.31"/>
        </g>
        <g>
          <circle class="cls-12" cx="810.6" cy="706.8" r="11.78"/>
          <circle class="cls-9" cx="809.13" cy="705.32" r="10.31"/>
        </g>
        <g>
          <circle class="cls-12" cx="810.6" cy="356.27" r="11.78"/>
          <circle class="cls-9" cx="809.13" cy="354.79" r="10.31"/>
        </g>
        <g>
          <circle class="cls-12" cx="1594.13" cy="500.6" r="11.78"/>
          <circle class="cls-9" cx="1592.66" cy="499.13" r="10.31"/>
        </g>
        <g>
          <circle class="cls-12" cx="1594.13" cy="606.65" r="11.78"/>
          <circle class="cls-9" cx="1592.66" cy="605.17" r="10.31"/>
        </g>
        <polygon class="cls-9" points="1152.04 766.76 1253.52 766.76 1152.04 772.82 1152.04 766.76"/>
      </g>
      <g>
        <path class="cls-13" d="M1409.67,142.06S1491,305.5,1725.49,298.8c33.5,0,117.26-44.78,80.41-101.13-16.75-22.22-120.62-2.73-120.62-9.43s-33.5-87.11-33.5-87.11h-41.42c-2.14,0-42.34-30.16-55.75-23.46s-20.1,13.4-20.1,13.4-27.7-56.95-99.28-36.85C1410.54,64.27,1400.49,104.48,1409.67,142.06Z"/>
        <path class="cls-14" d="M1484.25,164.79s-13.4,13.4-10,26.8c13.4,10,83.76,30.15,83.76,30.15l57-10.05S1517.76,205,1484.25,164.79Z"/>
        <path class="cls-15" d="M1494.31,158.08l46.9-60.3,10,10-44.85,66.63S1494.31,171.49,1494.31,158.08Z"/>
        <path class="cls-16" d="M1480.9,215s80.41,30.16,204.38-26.8c23.46,0,33.51,3.35,33.51,3.35s-147.42,67-237.89,30.15Z"/>
      </g>
    </g>
    <path class="cls-17" d="M224.71,516s-49.88,40.54-34.8,120.53c2.29,13.38,21.82,54.33,36.57,64C209.22,668.58,162.93,620,224.71,516Z"/>
    <path class="cls-18" d="M240.51,718.87s-14.24,4-23.34,14.43a62.73,62.73,0,0,1,16.7-3.14Z"/>
    <path class="cls-19" d="M440,951.67s53.49-145.46,59.87-175.46c24.64,89.59-63,237.22-63,237.22Z"/>
    <ellipse class="cls-20" cx="279.91" cy="890.02" rx="190.8" ry="246.33"/>
    <ellipse class="cls-20" cx="280.5" cy="606.22" rx="120.51" ry="126.07"/>
    <path class="cls-12" d="M338.39,652c0,10.44-41.35-2.36-54.35,0-5.93,1.08-56.71,15.16-56.71,4.72s23.84-36.62,59.07-36.62S338.39,641.52,338.39,652Z"/>
    <polygon points="303.13 596.43 284.22 615.33 264.65 595.76 303.13 596.43"/>
    <rect class="cls-21" x="273.41" y="620.06" width="9.45" height="16.54"/>
    <rect class="cls-21" x="273.41" y="642.51" width="9.45" height="10.63"/>
    <rect class="cls-21" x="285.04" y="642.51" width="9.45" height="9.45"/>
    <rect class="cls-21" x="285.04" y="620.06" width="9.45" height="16.54"/>
    <ellipse class="cls-20" cx="391.29" cy="558.35" rx="21.82" ry="15.75" transform="translate(-190.77 913.41) rotate(-86.36)"/>
    <ellipse class="cls-20" cx="173.91" cy="552.44" rx="15.75" ry="21.82" transform="translate(-34.72 12.15) rotate(-3.64)"/>
    <path class="cls-22" d="M318.26,507.39S340.12,536,368,544.88C354.34,535.73,318.26,507.39,318.26,507.39Z"/>
    <path class="cls-22" d="M246.24,506.64s-23.63,27.18-52,34.26C208.43,532.63,246.24,506.64,246.24,506.64Z"/>
    <path class="cls-20" d="M250,489.83c-2.64-1.54-13.69-11.93-25.55-10.55,17.74-1.18,38.14,2.87,38.14,2.87h3.36s-3-15.54-14.37-18.81c16.52,3.81,30,18.81,30,18.81s8.88-18.54,3.56-20.52c8.79,5.7,11.81,22,11.81,22s5.78-22.59,18.15-16.77c-10.77,0-11.09,20.61-11.09,20.61S329.55,470.7,342,474c-12.57,0-21,17.52-21,17.52S267.6,500.11,250,489.83Z"/>
    <ellipse class="cls-18" cx="278.13" cy="892.97" rx="139.41" ry="197.3"/>
    <path class="cls-3" d="M394.65,566.3s1-11.58,8.1-10A112.52,112.52,0,0,1,394.65,566.3Z"/>
    <path class="cls-3" d="M170.16,556.78s-1-11.58-8.11-10A111.85,111.85,0,0,0,170.16,556.78Z"/>
    <path class="cls-23" d="M284.22,615.33l18.91-18.9S301.68,612.14,284.22,615.33Z"/>
    <path class="cls-23" d="M264.89,596.09,283.79,615S268.09,613.55,264.89,596.09Z"/>
    <path class="cls-18" d="M415.59,868.2c1.39.35,5.34,1,7.36,6.46-5.52-.95-7.36,1.3-7.36,1.3s9.75,11,9.57,15.19c-3.13-.65-8.28,0-8.28,0s7.73,15.19,7.36,20.69c-2.76-3.24-7.36-2.59-7.36-2.59"/>
    <path class="cls-18" d="M143.05,921.39s-14.47,28.69-11.61,37.2a62.33,62.33,0,0,1,17-8.51l-8.71,19.86c8-6.91,19.07-12.06,19.07-12.06Z"/>
    <path class="cls-17" d="M417.84,722.39s-77-130.13-74.87-154c-.08-15.33-38.84-45.24-48.47-8.56S347.38,738.32,360.35,746C373.21,753.21,417.84,722.39,417.84,722.39Z"/>
    <g>
      <path class="cls-20" d="M416.92,724.94s-77-130.13-74.87-154.05c-.08-15.33-38.84-45.24-48.47-8.56s58.27,187.42,68,194.66c4.81,4.53,35.64,45.55,42.63,43.06C421.93,793.74,416.92,724.94,416.92,724.94Z"/>
      <path class="cls-17" d="M330.85,697s-40.45-100.21-38.06-119.9C301.78,601.4,334.88,694.38,330.85,697Z"/>
      <path class="cls-17" d="M322,548.37s9.66,21.69,7.88,25.7C327,567.91,320.88,552.36,322,548.37Z"/>
      <path class="cls-17" d="M301.64,548.55s9.66,21.69,7.88,25.69C306.56,568.08,300.48,552.54,301.64,548.55Z"/>
    </g>
    <path class="cls-24" d="M356.14,567.66s8.1-16.09,16.17-12.31S369.86,565.68,356.14,567.66Z"/>
    <path class="cls-24" d="M233.31,548.27s-6.35-16.1-12.79-13.75C218.77,541.08,233.31,548.27,233.31,548.27Z"/>
    <path class="cls-24" d="M337.67,549s2.65-14.23,9.27-13.45S337.67,549,337.67,549Z"/>
    <path class="cls-24" d="M223.58,574.85s-19.36-8.76-21-3.06S214.06,581.42,223.58,574.85Z"/>
    <path class="cls-17" d="M143.81,730.09s87.21-133.74,86-158.68c.77-16,43.08-46.23,51.64-7.84S217.61,748.24,203.56,756C189.64,763.16,143.81,730.09,143.81,730.09Z"/>
    <g>
      <path class="cls-20" d="M143.82,732.56s87.21-133.74,86-158.68c.77-16,43.09-46.23,51.65-7.84s-62.27,190.4-74.74,200.5c-4.2,3.4-46.9,38.84-55.11,35.47C133.6,794.58,143.82,732.56,143.82,732.56Z"/>
      <path class="cls-17" d="M282.15,575.88s-4.51,50.13-45.26,128C260,624.78,282.15,575.88,282.15,575.88Z"/>
      <path class="cls-17" d="M252.6,573.11s4.24-23.37,8-25.68C259.53,554.19,255.81,570.46,252.6,573.11Z"/>
      <path class="cls-17" d="M270.46,579.69s6.78-14.72,10-16.19C278.61,567.75,273.29,578,270.46,579.69Z"/>
      <path class="cls-17" d="M237.07,582.18s-3.68-15.79-2.07-18.9C236.18,567.75,238.28,579.11,237.07,582.18Z"/>
    </g>
    <g>
      <g>
        <ellipse class="cls-9" cx="851.23" cy="901.17" rx="113.37" ry="199.69"/>
        <ellipse class="cls-25" cx="872.7" cy="851.71" rx="115.24" ry="97.98"/>
        <circle class="cls-26" cx="628.22" cy="526.52" r="8.86"/>
        <circle class="cls-26" cx="708.47" cy="590.91" r="106.84"/>
        <circle class="cls-27" cx="640.52" cy="561.22" r="29.56"/>
        <circle cx="636.2" cy="561.18" r="20.32"/>
        <ellipse class="cls-21" cx="625.55" cy="554.58" rx="2.48" ry="3.97"/>
        <circle class="cls-27" cx="708.64" cy="561.22" r="29.56"/>
        <circle cx="705.32" cy="561.18" r="20.32"/>
        <ellipse class="cls-21" cx="695.5" cy="556.72" rx="2.48" ry="3.97"/>
        <path class="cls-28" d="M619.32,527.65s16.71-13.25,36.92,2.13c3.93,5.78,8.93,19.75,26,10.76,10.24-5.64,20.71-26.19,54.82-15.9s-9.32-8.91-9.32-8.91-18.51-7-43.93,15.08c-12.63,9.21-20,.29-27.37-7.41-13.27-5.84-8.65-4.69-30.09-5.7A94.9,94.9,0,0,0,619.32,527.65Z"/>
        <path class="cls-28" d="M668.81,535.65s.93-8.31,5.6-9.59a12.52,12.52,0,0,1,2.8,1.28s-5.16,7-3.51,8.31S668.81,535.65,668.81,535.65Z"/>
        <path class="cls-26" d="M674.33,686.33s-39.72,133.19,96.12,165.28c37.27-20.46,36.2-64.23,36.2-64.23s-80.89-34.32-36.47-110.19C745.76,684.36,674.33,686.33,674.33,686.33Z"/>
        <path class="cls-26" d="M757.92,498.53s6.53-13.06,2.8-16.8c6.53,6.54,11.2,19.6,8.4,23.33,4.67-7.46,3.73-19.59,3.73-19.59s10.15,22,3.21,25.48c5.72-4.31,17.32-3.09,22.92,1.58-14-1.87-16.8,5.6-16.8,5.6Z"/>
        <path class="cls-29" d="M762.42,742.48c1-3.09,10.58-14.65,13.12-27.09-.64,14.1,5.39,36.28,5.39,36.28s28.11-9.48,26.91-18.14c.46,24.1,0,36.21,0,36.21s29.59-6.3,41.31,0c-16.54,5.28-22,16-22,16s16,0,22,8.52c3.46,7.31-14.21,6.09-14.21,6.09s20.22,4.88,23.08,9.75c-8.57,2.43-17.14,12.18-17.14,12.18s20-7.31,25.71,26.79c-28.57-14.61-34.28-17.05-34.28-17.05s37.14,29.23,31.42,36.54c-17.14-12.18-28.56-19.49-28.56-19.49s17.14,21.93,11.42,29.24c-11.42-4.88-32.11-24.07-32.11-24.07s23.54,28.94,20.69,48.43a86.86,86.86,0,0,0-34.28-14.62,179,179,0,0,0,13.59,12.09c-12.9-4.69-33.59-19.4-33.59-19.4s-2.86,7.31-5.71,17.05a17.37,17.37,0,0,1-5.72-12.18l-7.08,31.67c-10.06-9.74-21.48-24.36-21.48-26.79s0,9.74-5.72,12.18c-8.57-9.75-14.28-26.8-14.28-26.8L718.08,893s-8.57-17.05-8.57-19.49c2.86-2.43-11.42-2.43-11.42,2.44-2.86-7.31-2.86-12.18-2.86-12.18l-5.71,2.44s-5.72-21.71,0-24.25c-5.72,7.08-8.57-9.86,8.57-29.35,14.28,7.31,54.27,29.24,54.27,29.24s15.58,7.56,23.5-4.75c-1.29-5.13,16.5-14.74,16.5-14.74l-10.32-6,13.17-16H778.07s2.86-12.18,17.14-14.61C783.79,776,758.18,755.22,762.42,742.48Z"/>
        <ellipse class="cls-9" cx="965.54" cy="918.43" rx="123.17" ry="200.15"/>
        <path class="cls-30" d="M673,691.71s53.95,19,97.2-14.52c-6.13,12.59-5,9.56-5,9.56s-6.52,14.35-92.63,10.43C674.35,686.41,673,691.71,673,691.71Z"/>
        <path class="cls-30" d="M797,531.14s55.53,79.94-26.66,146.47C787.34,651.52,825.17,616.3,797,531.14Z"/>
        <path class="cls-31" d="M697,601s48.57,36.21-2.31,74C709.06,676.31,744.29,630.65,697,601Z"/>
        <path class="cls-30" d="M680.35,569.82s2.73,17.88,26.16,21.09c9.07.6,23.25-4.93,29.21-17.82-2.44,10.74-7.09,22.33-29.27,22.33C686.88,591.51,677.75,583.68,680.35,569.82Z"/>
        <path class="cls-30" d="M612.51,569.82s2.73,17.88,26.15,21.09c9.08.6,23.25-4.93,29.21-17.82-2.43,10.74-7.08,22.33-29.26,22.33C619,591.51,609.91,583.68,612.51,569.82Z"/>
        <path class="cls-32" d="M663.93,596.27A44.59,44.59,0,0,0,644,607.15c-.06-.25-.08-.51-.14-.76-4.24-17.12-23.09-27.18-42.11-22.48a38.52,38.52,0,0,0-15.63,7.92c-20.93-8.77-48.48-10.34-74.75-3.85-47.55,11.77-78.86,50.6-69.92,86.75s0,0,82.66-20.45a144.76,144.76,0,0,1,16.63-3c-13.9-3.45-54.35,5.76-58.63,17.66-5,13.82,64.3,21.83,82.12,21.2,25.07-.89,65.31-5.85,84.15-18a44.13,44.13,0,0,0,35.91,6.52c23.45-5.79,37.89-28.93,32.27-51.67S687.38,590.48,663.93,596.27Z"/>
        <ellipse cx="619.74" cy="606.67" rx="9.82" ry="5.46" transform="translate(-147.54 202.43) rotate(-16.61)"/>
        <path class="cls-33" d="M449,647.81s22.31-59.65,97.92-54.66C526.56,598.62,493,593.35,449,647.81Z"/>
        <path class="cls-34" d="M694.89,599.8S722.27,613,717,644c-4.08,16.39-13.07,30.45-32.67,34.65,9.07-6,20.85-12.76,27.37-36.24C716.89,616.3,694.89,599.8,694.89,599.8Z"/>
        <path class="cls-30" d="M771.68,763.72s23.58,21.93,23.53,22.06c-9.22,2.85-12.18,3.16-17.14,14.61,10.84-.42,17.14,0,17.14,0l-13.17,16,10.32,6s-17.54,8.5-16.5,14.74c-4.44,4.66-13.44,17-53.08-11.36-22.85-16.32,39.09,22.94,43.68,4.56,0,0,14.36-32.33,14.36-44.36C780.82,774.16,771.68,763.72,771.68,763.72Z"/>
      </g>
      <path class="cls-30" d="M700.44,543.77c17.32-1.5,32.69,8.75,36.66,23.58A29.57,29.57,0,1,0,680,552,37.11,37.11,0,0,1,700.44,543.77Z"/>
      <path class="cls-30" d="M631.71,544.44c17.15-2.87,33.28,6.13,38.41,20.6A29.56,29.56,0,1,0,612,554.26,37.07,37.07,0,0,1,631.71,544.44Z"/>
      <path class="cls-34" d="M482.85,667.74s105.46-23.89,166.3-37.1C608.87,649.09,530.76,666,482.85,667.74Z"/>
      <path class="cls-35" d="M593.07,644.12c5.93-2.33,10.5-3.52,15.87-3.36,0-.4-.42-3.74-.49-4.14-1.91-11.85-11.48-20.16-21.37-18.56s-16.34,12.5-14.43,24.34a25.09,25.09,0,0,0,3.23,8.91C579.55,647.21,586.63,646.66,593.07,644.12Z"/>
    </g>
  </g>
  <g id="ØV-2" data-name="ØV">
    <g>
      <path d="M1179.19,264.22l-50,145.07h-7.94l50-145.07ZM1163.31,275a13.41,13.41,0,0,1,9.75,4,13,13,0,0,1,4,9.58V385.3a13,13,0,0,1-4,9.58,13.41,13.41,0,0,1-9.75,4h-26.75a13.15,13.15,0,0,1-9.67-4,12.93,12.93,0,0,1-4.06-9.58V288.56a12.93,12.93,0,0,1,4.06-9.58,13.15,13.15,0,0,1,9.67-4Zm-3.8,32.27a11.15,11.15,0,0,0-1.46-5.86,4.45,4.45,0,0,0-3.72-2.42h-8.8a4.23,4.23,0,0,0-3.62,2.42,10.56,10.56,0,0,0-1.56,5.86v59.29a10.57,10.57,0,0,0,1.56,5.87,4.23,4.23,0,0,0,3.62,2.42h8.8a4.45,4.45,0,0,0,3.72-2.42,11.16,11.16,0,0,0,1.46-5.87Z"/>
      <path d="M1255.31,299.6h-1a8.35,8.35,0,0,0-4.92,1.82,8.59,8.59,0,0,0-3.11,4.4l-14.07,62.65a11.59,11.59,0,0,0,1.3,6.13q1.73,3.54,4.23,3.54h-.43v20.71H1201.8V378.14h-.43c1.67,0,3.1-1.18,4.31-3.54a11.59,11.59,0,0,0,1.3-6.13l-14.07-62.65a8.59,8.59,0,0,0-3.11-4.4,8.35,8.35,0,0,0-4.91-1.82h-1.3V275h28.22V299.6a6.64,6.64,0,0,0-2.93.87q-2.69,1.63-1.56,5.35l12.26,54.54,12.34-54.54c.69-2.76.4-4.58-.86-5.44-.75-.52-2.33-.78-4.75-.78h.78V275h28.22Z"/>
      <path d="M1274.12,370.8a12.47,12.47,0,0,1,9.23,4.23,13.44,13.44,0,0,1,0,19.25,12.18,12.18,0,0,1-18.42,0,13.65,13.65,0,0,1,0-19.33A12.41,12.41,0,0,1,1274.12,370.8Zm3.37-7.85h-6.65l-7.51-59.81a71.39,71.39,0,0,1-.69-9.58q0-11,5.18-16a8.33,8.33,0,0,1,6.21-2.68,9.65,9.65,0,0,1,7.6,3.8q3.88,4.66,3.88,13.81a82,82,0,0,1-.77,9.92Z"/>
    </g>
    <g>
      <g>
        <rect class="cls-13" x="967.25" y="500.69" width="467.37" height="183.57" transform="translate(40.03 -75.04) rotate(3.64)"/>
        <rect class="cls-11" x="972.94" y="511.29" width="453.47" height="169.83" transform="translate(40.26 -74.95) rotate(3.64)"/>
        <polygon class="cls-13" points="972.84 543.93 973.54 532.94 1107.71 541.47 972.84 543.93"/>
        <polygon class="cls-13" points="1425.06 644.13 1425.56 636.19 1235.86 624.12 1425.06 644.13"/>
        <polygon class="cls-13" points="1182.69 639.33 1182.96 635.08 993.26 623.01 1182.69 639.33"/>
        <polygon class="cls-13" points="1377.24 571.79 1377.38 569.66 1319.43 565.98 1377.24 571.79"/>
      </g>
      <g>
        <circle class="cls-12" cx="1404.46" cy="547.7" r="9.63"/>
        <circle class="cls-9" cx="1402.45" cy="545.61" r="9.63"/>
      </g>
      <g>
        <circle class="cls-12" cx="1005.56" cy="518.15" r="9.63"/>
        <circle class="cls-9" cx="1003.54" cy="516.05" r="9.63"/>
      </g>
    </g>
    <g>
      <path class="cls-36" d="M1162.45,646A45.65,45.65,0,0,1,1227,581.46a4.47,4.47,0,1,1-6.32,6.31,36.72,36.72,0,1,0,0,51.93A4.47,4.47,0,1,1,1227,646,45.71,45.71,0,0,1,1162.45,646Z"/>
      <path class="cls-36" d="M1211.29,593.07l21-21a2.83,2.83,0,0,1,4.83,2v21a2.83,2.83,0,0,1-2.83,2.83h-21A2.83,2.83,0,0,1,1211.29,593.07Z"/>
    </g>
    <g>
      <path class="cls-36" d="M1164.18,533.47a3.93,3.93,0,0,1-.52,2.2q-1.17,2.13-4.5,1.92l-2-.12-.37,5.73a1.35,1.35,0,0,0,.39.93,1.33,1.33,0,0,0,.9.43h.05l-.28,4.38-5.79-.37.28-4.38h0a1.43,1.43,0,0,0,.95-.31,1.46,1.46,0,0,0,.5-.88l.36-5.73h0l.52-7.78a1.42,1.42,0,0,0-.41-.91,1.31,1.31,0,0,0-.9-.45h0l.32-5,6.35.4a4.58,4.58,0,0,1,2.35.58q2.3,1.26,2.07,4.66Zm-6.87,1.71c1.44.07,2.43-.27,3-1a1.85,1.85,0,0,0,.38-1.16l.09-1.42a1.92,1.92,0,0,0-1.45-2.11,4.45,4.45,0,0,0-1.6-.3Z"/>
      <path class="cls-36" d="M1177.9,546.61a4.42,4.42,0,0,1,0,.57,3,3,0,0,1-.84,2.13,2.65,2.65,0,0,1-3.68,0,2.84,2.84,0,0,1-.88-1.73,14.81,14.81,0,0,1-.32-3.9c0-.28,0-.83.12-1.67a8.06,8.06,0,0,0,0-1.37,3.23,3.23,0,0,0-1.85-2.31c-.37-.06-.76-.11-1.19-.15l-.36,5.72a1.41,1.41,0,0,0,1.3,1.34h0l-.29,4.47-5.75-.37.29-4.47h0a1.36,1.36,0,0,0,1-.31,1.34,1.34,0,0,0,.5-.86l.36-5.71h0l.49-7.72a1.4,1.4,0,0,0-.39-.91,1.25,1.25,0,0,0-.9-.43h0l.32-5,6.32.4a4.43,4.43,0,0,1,2.33.58q2.3,1.25,2.08,4.62l-.3,4.68a4.11,4.11,0,0,1-.38,1.75,3.7,3.7,0,0,1-2.85,2.24c1.63,1,2.41,2.73,2.36,5.24a.39.39,0,0,0,.21.32.81.81,0,0,0,.47.12c.44,0,.66-.4.64-1.1q.35,0,.75,1.2A7.18,7.18,0,0,1,1177.9,546.61Zm-8.48-10.7a3.15,3.15,0,0,0,2.95-1,1.88,1.88,0,0,0,.38-1.17l.09-1.41a1.91,1.91,0,0,0-1.44-2.1,4.41,4.41,0,0,0-1.6-.3Z"/>
      <path class="cls-36" d="M1192.05,523.33l-12.17,29.17-1.64-.1,12.18-29.18Zm-3.41,2a2.76,2.76,0,0,1,1.95.94,2.69,2.69,0,0,1,.7,2L1190,548.2a2.65,2.65,0,0,1-.94,1.91,2.77,2.77,0,0,1-2.06.69l-5.5-.35a2.72,2.72,0,0,1-1.94-.94,2.65,2.65,0,0,1-.7-2l1.26-19.9a2.65,2.65,0,0,1,1-1.91,2.71,2.71,0,0,1,2-.69Zm-1.2,6.58a2.27,2.27,0,0,0-.23-1.22.9.9,0,0,0-.73-.55l-1.81-.11a.89.89,0,0,0-.78.45,2.18,2.18,0,0,0-.39,1.18l-.78,12.2a2.1,2.1,0,0,0,.25,1.22.86.86,0,0,0,.71.55l1.81.11a.89.89,0,0,0,.79-.45,2.18,2.18,0,0,0,.38-1.18Z"/>
      <path class="cls-36" d="M1207.24,531.6h-.2a1.7,1.7,0,0,0-1,.3,1.78,1.78,0,0,0-.7.87l-3.71,12.7a2.46,2.46,0,0,0,.18,1.28c.21.5.48.76.83.78h-.09l-.27,4.26-7.31-.46.27-4.26h-.09c.34,0,.65-.2.93-.67a2.39,2.39,0,0,0,.35-1.24l-2.07-13.07a1.82,1.82,0,0,0-.59-.95,1.71,1.71,0,0,0-1-.43l-.27,0,.32-5.06,5.8.37-.32,5.06a1.3,1.3,0,0,0-.61.14.86.86,0,0,0-.39,1.08l1.8,11.37,3.26-11c.17-.56.14-.94-.11-1.13a1.91,1.91,0,0,0-1-.22h.16l.33-5.06,5.8.37Z"/>
      <path class="cls-36" d="M1217.52,532.16a1.32,1.32,0,0,0-1,.32,1.43,1.43,0,0,0-.5.87l-.86,13.54a1.4,1.4,0,0,0,.39.94,1.45,1.45,0,0,0,.91.43h0l-.28,4.4-5.8-.37.28-4.4h0a1.42,1.42,0,0,0,1-.32,1.37,1.37,0,0,0,.52-.88l.86-13.54a1.38,1.38,0,0,0-.4-.93,1.28,1.28,0,0,0-.9-.43h0l.32-5,5.8.37-.32,5Z"/>
      <path class="cls-36" d="M1229.38,539.21l-.17,2.75-.92-.06,0,.39-.38,6.07h0l-.32,5-2.22-.14.12-1.87c-.09,1.24-.42,1.83-1,1.79a12,12,0,0,1-1.49-.11l-2.86-.18a2.61,2.61,0,0,1-1.92-1,3,3,0,0,1-.68-2.16l1.25-19.64a2.73,2.73,0,0,1,.94-1.92,2.69,2.69,0,0,1,2-.69l3.41.21-.14,0c.89.06,1.34.45,1.35,1.19l0,.23a.75.75,0,0,0,0-.23l.07-1.14,2.84.18v.15l-.59,9.28-3.21-.2,0-.31a3.61,3.61,0,0,0-.46-2.54.64.64,0,0,0-.61-.23l-1.65-.11a.66.66,0,0,0-.65.16,3.42,3.42,0,0,0-.8,2.46l-.54,8.41a3.91,3.91,0,0,0,0,1c.09.73.38,1.17.88,1.3v0l2.18.14v0c.52-.07.87-.47,1-1.18a3.64,3.64,0,0,0,.1-1l.23-3.56-1-.07.17-2.75Zm-1.91,14.17v0l.42.06Z"/>
      <path class="cls-36" d="M1241.56,528.74l-.27,4.21-.33,5.21-3.3-.21.1-1.56c0-2-.57-3-1.55-3.09l-1.74-.11-.4,6.33,4.08.26-.17,2.74-4.09-.26-.36,5.78,1.33.09a3,3,0,0,0,1.45-.18,2.14,2.14,0,0,0,1.09-2l.14-2.51,3.07.2-.67,10.56-8.78-.56-2.29-.14.28-4.39h0a1.29,1.29,0,0,0,1-.33,1.38,1.38,0,0,0,.52-.86l.86-13.5a1.35,1.35,0,0,0-.41-.92,1.29,1.29,0,0,0-.9-.43h0l.32-5,9.17.59v0l1.9.12Z"/>
      <path class="cls-36" d="M1255.14,555.05a5.84,5.84,0,0,1-2.76-.37q-2.73-1-2.51-4.4l.23-3.73.59-9.21a1.47,1.47,0,0,0-.46-1.12,2,2,0,0,0-2.47-.16,1.42,1.42,0,0,0-.59,1.05l-.74,11.72a1.31,1.31,0,0,0,.47.76,1.67,1.67,0,0,0,1,.44h.06l-.3,4.61-6.46-.41.3-4.61h0a1.71,1.71,0,0,0,1.07-.31,1.32,1.32,0,0,0,.56-.83l.84-13.33a1.3,1.3,0,0,0-.44-.9,1.54,1.54,0,0,0-1-.44h0l.32-4.93,6.46.41-.06.84q2.25-1.67,3.82-.09a5,5,0,0,1,1.44,4l-.93,14.38a2.22,2.22,0,0,0,.07,1.11,1.79,1.79,0,0,0,1.78,1.2Z"/>
    </g>
  </g>
</svg>
